<svg width="250" height="47" viewBox="0 0 250 47" fill="none" xmlns="http://www.w3.org/2000/svg">
<path d="M2.72296 10.2893C4.42425 3.82021 13.9178 1.99445 23.2331 1.00031C30.6 1.00027 30.839 1.28152 35.5526 1.48196C40.3902 1.68768 45.4731 1.24802 50.3493 1.24802C56.4549 1.24802 62.5243 1.49572 68.6277 1.49572C87.175 1.49572 105.751 1.99243 124.288 1.72967C129.184 1.66027 134.129 1.56297 139.018 1.38563C146.036 1.1311 152.848 1.24802 159.841 1.24802C171.268 1.24802 182.513 0.83199 193.92 1.44068C197.799 1.64764 201.541 1.10718 205.392 1.01407C208.88 0.929715 212.412 1.24398 215.881 1.44068C221.194 1.74192 226.573 1.50502 231.861 1.86728C235.79 2.1365 241.344 3.01659 243.778 5.10122C246.239 7.20871 246.014 10.236 246.68 12.6975C247.494 15.7091 246.494 18.584 247.081 21.5599C247.743 24.916 249.644 28.129 248.778 31.5645C248.287 33.5076 247.787 34.9096 248.421 36.8626C248.878 38.2743 248.243 39.597 246.791 40.7158C245.448 41.7516 242.852 43.3488 240.699 43.8534C238.305 44.4144 235.438 44.3759 232.932 44.7342C228.217 45.4083 223.176 45.3742 218.357 45.3416L218.068 45.3397C211.245 45.294 205.392 45.2021 198.754 45.6424C193.657 45.0033 186.321 45.8228 181.119 45.6424C173.685 45.3846 163.92 45.1293 156.558 45.6424C145.24 46.4314 136.91 45.5216 125.494 45.5874C120.023 45.6189 114.554 45.3397 109.068 45.3397C103.603 45.3397 97.8721 45.6785 92.4632 45.2021C80.2477 44.126 67.2518 44.745 54.9691 45.2021C46.9663 45.4998 38.9629 46.1184 30.9551 45.6424C24.9836 45.2875 18.6488 46.6829 12.9669 44.8993C11.4821 44.4332 10.2498 43.4997 9.17282 42.725C8.11346 41.9629 6.76245 41.4406 5.78051 40.6333C3.19441 38.5071 3.27275 35.8191 2.74527 33.2984C2.15727 30.4885 1.68513 27.656 1.22766 24.8351C0.774075 22.0383 1.13839 19.1401 1.13839 16.3306C1.13839 14.2135 2.18198 12.3463 2.72296 10.2893Z" fill="#EFD392" stroke="#394038" stroke-linecap="round"/>
</svg>
