<svg width="310" height="47" viewBox="0 0 310 47" fill="none" xmlns="http://www.w3.org/2000/svg">
<path d="M3.1398 10.2893C5.2527 3.82021 17.043 1.99445 28.6121 1.00031C37.7614 1.00027 38.0581 1.28152 43.9121 1.48196C49.92 1.68768 56.2327 1.24802 62.2887 1.24802C69.8714 1.24802 77.4092 1.49572 84.9892 1.49572C108.024 1.49572 131.095 1.99243 154.116 1.72967C160.196 1.66027 166.338 1.56297 172.41 1.38563C181.125 1.1311 189.585 1.24802 198.27 1.24802C212.461 1.24802 226.428 0.83199 240.595 1.44068C245.411 1.64764 250.059 1.10718 254.841 1.01407C259.174 0.929715 263.56 1.24398 267.868 1.44068C274.467 1.74192 281.147 1.50502 287.714 1.86728C292.594 2.1365 299.492 3.01659 302.515 5.10122C305.571 7.20871 305.292 10.236 306.118 12.6975C307.129 15.7091 305.888 18.584 306.617 21.5599C307.439 24.916 309.8 28.129 308.724 31.5645C308.115 33.5076 307.494 34.9096 308.28 36.8626C308.849 38.2743 308.06 39.597 306.257 40.7158C304.588 41.7516 301.365 43.3488 298.69 43.8534C295.717 44.4144 292.157 44.3759 289.045 44.7342C283.189 45.4083 276.928 45.3742 270.943 45.3416L270.585 45.3397C262.111 45.294 254.841 45.2021 246.597 45.6424C240.268 45.0033 231.156 45.8228 224.697 45.6424C215.464 45.3846 203.336 45.1293 194.193 45.6424C180.136 46.4314 169.792 45.5216 155.613 45.5874C148.819 45.6189 142.026 45.3397 135.213 45.3397C128.427 45.3397 121.309 45.6785 114.591 45.2021C99.4205 44.126 83.2804 44.745 68.0262 45.2021C58.0872 45.4998 48.1475 46.1184 38.2023 45.6424C30.7861 45.2875 22.9187 46.6829 15.8621 44.8993C14.0182 44.4332 12.4876 43.4997 11.1501 42.725C9.83446 41.9629 8.1566 41.4406 6.93708 40.6333C3.72531 38.5071 3.82261 35.8191 3.16752 33.2984C2.43726 30.4885 1.85089 27.656 1.28274 24.8351C0.719416 22.0383 1.17187 19.1401 1.17187 16.3306C1.17187 14.2135 2.46794 12.3463 3.1398 10.2893Z" fill="#EFD392" stroke="#394038" stroke-linecap="round"/>
</svg>
