<svg width="163" height="47" viewBox="0 0 163 47" fill="none" xmlns="http://www.w3.org/2000/svg">
<path d="M2.11853 10.2893C3.223 3.82021 9.38612 1.99445 15.4336 1.00031C20.2162 1.00027 20.3713 1.28152 23.4313 1.48196C26.5718 1.68768 29.8716 1.24802 33.0373 1.24802C37.001 1.24802 40.9412 1.49572 44.9034 1.49572C56.9443 1.49572 69.004 1.99243 81.0381 1.72967C84.2163 1.66027 87.4266 1.56297 90.6006 1.38563C95.1563 1.1311 99.5785 1.24802 104.118 1.24802C111.537 1.24802 118.837 0.83199 126.243 1.44068C128.761 1.64764 131.19 1.10718 133.69 1.01407C135.955 0.929715 138.247 1.24398 140.499 1.44068C143.948 1.74192 147.441 1.50502 150.873 1.86728C153.424 2.1365 157.03 3.01659 158.61 5.10122C160.208 7.20871 160.062 10.236 160.494 12.6975C161.022 15.7091 160.373 18.584 160.755 21.5599C161.184 24.916 162.418 28.129 161.856 31.5645C161.537 33.5076 161.213 34.9096 161.624 36.8626C161.921 38.2743 161.509 39.597 160.566 40.7158C159.694 41.7516 158.009 43.3488 156.611 43.8534C155.057 44.4144 153.196 44.3759 151.569 44.7342C148.508 45.4083 145.235 45.3742 142.107 45.3416L141.919 45.3397C137.49 45.294 133.69 45.2021 129.38 45.6424C126.072 45.0033 121.309 45.8228 117.932 45.6424C113.106 45.3846 106.766 45.1293 101.987 45.6424C94.6394 46.4314 89.2322 45.5216 81.8205 45.5874C78.2689 45.6189 74.7183 45.3397 71.1568 45.3397C67.6094 45.3397 63.8888 45.6785 60.3773 45.2021C52.4471 44.126 44.0102 44.745 36.0364 45.2021C30.841 45.4998 25.6453 46.1184 20.4466 45.6424C16.57 45.2875 12.4575 46.6829 8.76881 44.8993C7.80494 44.4332 7.00488 43.4997 6.30575 42.725C5.61801 41.9629 4.74095 41.4406 4.10347 40.6333C2.42459 38.5071 2.47545 35.8191 2.13302 33.2984C1.7513 30.4885 1.44478 27.656 1.14779 24.8351C0.853331 22.0383 1.08984 19.1401 1.08984 16.3306C1.08984 14.2135 1.76733 12.3463 2.11853 10.2893Z" fill="#EFD392" stroke="#394038" stroke-linecap="round"/>
</svg>
