<svg width="387" height="364" viewBox="0 0 387 364" fill="none" xmlns="http://www.w3.org/2000/svg">
    <path d="M3.07806 83.5554C5.745 56.7649 -2.00578 17.1491 28.5 5.1647C40.5 0.450413 75.0738 1.40553 89 1.99994C141.314 4.23284 159.137 3.14692 211.453 5.16481C252.227 6.73755 303.485 -11.9505 336.5 16.4999C353.132 30.8325 350.5 63 350.5 87.5C350.5 112 357.299 289.052 357.619 299.934C358.548 304.093 392.5 352.5 385.5 362.5C370 359 328.278 348.726 307.505 343.958C288.807 339.667 269.098 340.512 250.082 341.174C215.708 342.372 182.202 348.187 148.114 351.789C119.471 354.816 91.4677 353.509 63.1978 347.874C52.2366 345.689 35.0127 342.243 25.3511 334.301C14.4652 325.353 14.438 304.775 12.7355 292.452C9.47737 268.869 7.3101 245.095 5.42717 221.37C1.77374 175.337 -1.50514 129.596 3.07806 83.5554Z" fill="#F2EFE8" stroke="black" stroke-linecap="round"/>
</svg>
