<svg width="124" height="56" viewBox="0 0 124 56" fill="none" xmlns="http://www.w3.org/2000/svg">
<path d="M1.85078 12.2492C2.69087 4.41523 7.3787 2.20427 11.9785 1.00038C15.6163 1.00033 15.7343 1.34092 18.0618 1.58365C20.4506 1.83277 22.9605 1.30035 25.3683 1.30035C28.3832 1.30035 31.3803 1.60031 34.3941 1.60031C43.5526 1.60031 52.7255 2.20182 61.879 1.88362C64.2964 1.79958 66.7382 1.68174 69.1525 1.467C72.6177 1.15876 75.9813 1.30035 79.4345 1.30035C85.0769 1.30035 90.6299 0.796543 96.2627 1.53365C98.1779 1.78428 100.026 1.1298 101.927 1.01704C103.65 0.914886 105.394 1.29546 107.107 1.53365C109.73 1.89845 112.386 1.61157 114.997 2.05027C116.938 2.37628 119.68 3.44206 120.882 5.96652C122.097 8.51865 121.986 12.1847 122.315 15.1655C122.717 18.8125 122.223 22.2939 122.513 25.8977C122.84 29.9619 123.779 33.8528 123.351 38.0131C123.109 40.3662 122.862 42.064 123.175 44.4291C123.401 46.1385 123.087 47.7404 122.37 49.0952C121.706 50.3495 120.425 52.2838 119.361 52.8948C118.179 53.5741 116.764 53.5275 115.526 53.9614C113.198 54.7777 110.709 54.7365 108.329 54.697L108.187 54.6947C104.818 54.6393 101.927 54.528 98.6493 55.0613C96.1327 54.2873 92.51 55.2797 89.9417 55.0613C86.2706 54.749 81.4486 54.4398 77.8133 55.0613C72.2245 56.0166 68.1116 54.9149 62.4741 54.9946C59.7727 55.0328 57.072 54.6947 54.3631 54.6947C51.6647 54.6947 48.8348 55.105 46.1639 54.528C40.1319 53.2249 33.7147 53.9745 27.6496 54.528C23.6978 54.8886 19.7458 55.6376 15.7916 55.0613C12.8429 54.6315 9.71486 56.3213 6.90915 54.1614C6.17601 53.597 5.56746 52.4665 5.03568 51.5283C4.51258 50.6055 3.84546 49.9729 3.36058 48.9953C2.08358 46.4205 2.12227 43.1653 1.8618 40.1129C1.57145 36.7101 1.33831 33.2799 1.11242 29.864C0.88844 26.477 1.06833 22.9673 1.06833 19.5651C1.06833 17.0013 1.58365 14.7402 1.85078 12.2492Z" fill="#E5C0B9" stroke="#394038" stroke-linecap="round"/>
<path d="M45.7446 30.068L47.3686 29.564C48.0126 30.516 48.6286 31.776 48.7966 32.616L47.1166 33.204C46.9206 32.364 46.3606 31.048 45.7446 30.068ZM41.0686 27.94L42.1606 26.652C43.1686 27.352 44.3726 28.388 44.9326 29.144L43.8126 30.628C43.2806 29.816 42.0766 28.696 41.0686 27.94ZM44.1766 24.86L46.1366 25.616C45.3526 26.596 44.5406 27.604 43.8966 28.276L42.4406 27.632C43.0286 26.848 43.7846 25.644 44.1766 24.86ZM46.0806 26.904L47.8166 27.688C46.4446 29.2 44.7086 30.992 43.3646 32.084L42.0766 31.44C43.4206 30.236 45.1286 28.248 46.0806 26.904ZM49.0206 33.148H51.2886V40.988H49.0206V33.148ZM40.8446 31.216C42.5806 31.104 44.9326 30.964 47.4526 30.768L47.4806 32.476C45.1566 32.7 42.9446 32.896 41.0406 33.036L40.8446 31.216ZM52.8286 29.9L54.5086 29.424C55.2086 30.432 55.8806 31.832 56.1046 32.784L54.3406 33.372C54.1446 32.42 53.5006 30.992 52.8286 29.9ZM47.7326 27.8L48.9366 26.568C50.0286 27.352 51.3446 28.528 51.9326 29.34L50.6726 30.74C50.1126 29.9 48.8246 28.64 47.7326 27.8ZM50.9806 24.832L52.9966 25.616C52.1286 26.68 51.2326 27.772 50.5046 28.5L49.0206 27.828C49.6646 27.016 50.5326 25.7 50.9806 24.832ZM52.9686 26.932L54.7606 27.744C53.3046 29.312 51.4846 31.132 50.0286 32.28L48.7126 31.58C50.1406 30.376 51.9606 28.332 52.9686 26.932ZM48.2926 31.216C50.0286 31.132 52.2966 30.992 54.7606 30.824L54.7886 32.504C52.6326 32.728 50.5046 32.868 48.6846 33.036L48.2926 31.216ZM41.6846 33.596H43.7566V36.032H46.7806V37.88H41.6846V33.596ZM53.0526 33.596H55.1246V37.88H50.8126V36.032H53.0526V33.596ZM45.4366 33.148H47.6766V35.864C47.6766 38.048 47.1446 40.148 43.5886 41.38C43.3086 40.848 42.6086 39.98 42.1326 39.56C45.0446 38.692 45.4366 37.264 45.4366 35.78V33.148ZM38.3246 19.876H45.3526V21.892H38.3246V19.876ZM51.2046 19.876H58.3166V21.892H51.2046V19.876ZM57.1686 16.292H60.4166V37.684C60.4166 39.28 60.1646 40.204 59.2126 40.764C58.2606 41.324 56.9726 41.38 55.1246 41.38C55.0126 40.484 54.5926 38.972 54.1726 38.104C55.2086 38.16 56.3286 38.16 56.6926 38.16C57.0566 38.16 57.1686 38.02 57.1686 37.656V16.292ZM38.6326 16.292H47.5086V25.448H38.6326V23.18H44.3446V18.56H38.6326V16.292ZM58.8486 16.292V18.56H52.5206V23.18H58.8486V25.448H49.3286V16.292H58.8486ZM36.6446 16.292H39.8366V41.52H36.6446V16.292ZM69.5726 29.172H83.4046V31.888H69.5726V29.172ZM76.7406 27.016H79.7366V37.88C79.7366 39.224 79.5126 39.98 78.5886 40.456C77.6926 40.904 76.4886 40.932 74.8366 40.932C74.6966 40.12 74.2486 38.916 73.8566 38.188C74.8646 38.216 75.9566 38.216 76.2926 38.216C76.6286 38.188 76.7406 38.104 76.7406 37.796V27.016ZM76.0686 30.824L78.4486 31.776C76.6846 34.716 73.5766 37.6 70.6926 39.168C70.1886 38.44 69.2646 37.32 68.5926 36.76C71.3926 35.556 74.4726 33.176 76.0686 30.824ZM66.3246 20.184H73.3526V22.452H66.3246V20.184ZM79.3166 20.184H86.4006V22.452H79.3166V20.184ZM85.0286 16.292H88.4166V37.488C88.4166 39.392 88.0246 40.344 86.8766 40.904C85.6726 41.464 83.9366 41.52 81.3606 41.52C81.2206 40.568 80.6886 38.972 80.1846 38.104C81.8366 38.188 83.7406 38.16 84.3006 38.16C84.8326 38.16 85.0286 37.964 85.0286 37.46V16.292ZM66.6046 16.292H75.4526V26.456H66.6046V24.048H72.3166V18.728H66.6046V16.292ZM86.8206 16.292V18.728H80.5486V24.132H86.8206V26.54H77.3566V16.292H86.8206ZM64.6726 16.292H68.0046V41.52H64.6726V16.292Z" fill="#7C2D01"/>
</svg>
