<svg width="309" height="84" viewBox="0 0 309 84" fill="none" xmlns="http://www.w3.org/2000/svg">
<path d="M3.13285 17.8763C5.2389 6.12363 16.9909 2.80668 28.5224 1.00057C37.642 1.00049 37.9378 1.51145 43.7727 1.87561C49.7612 2.24935 56.0534 1.45059 62.0897 1.45059C69.6478 1.45059 77.1611 1.90061 84.7165 1.90061C107.676 1.90061 130.672 2.803 153.619 2.32563C159.68 2.19955 165.801 2.02277 171.853 1.7006C180.54 1.23817 188.973 1.45059 197.63 1.45059C211.775 1.45059 225.696 0.694767 239.817 1.8006C244.618 2.17661 249.25 1.19473 254.017 1.02557C258.336 0.872309 262.708 1.44326 267.002 1.8006C273.579 2.34788 280.238 1.91749 286.783 2.57564C291.647 3.06474 298.523 4.66365 301.536 8.45091C304.582 12.2797 304.304 17.7795 305.128 22.2516C306.135 27.7229 304.898 32.9458 305.625 38.3523C306.444 44.4495 308.798 50.2867 307.725 56.5281C307.118 60.0584 306.499 62.6054 307.283 66.1536C307.849 68.7182 307.063 71.1213 305.266 73.1539C303.602 75.0356 300.389 77.9374 297.724 78.8542C294.76 79.8732 291.211 79.8033 288.109 80.4542C282.273 81.6789 276.032 81.617 270.066 81.5578L269.709 81.5543C261.263 81.4712 254.017 81.3043 245.8 82.1043C239.491 80.9431 230.409 82.4321 223.97 82.1043C214.767 81.6358 202.679 81.172 193.565 82.1043C179.555 83.5376 169.244 81.8848 155.111 82.0043C148.339 82.0616 141.568 81.5543 134.777 81.5543C128.013 81.5543 120.918 82.1699 114.223 81.3043C99.1009 79.3494 83.0133 80.474 67.8085 81.3043C57.9018 81.8453 47.9944 82.969 38.0815 82.1043C30.6894 81.4596 22.8475 83.9947 15.8138 80.7543C13.9759 79.9075 12.4503 78.2115 11.1172 76.8041C9.80578 75.4196 8.13336 74.4706 6.9178 73.0039C3.71646 69.1412 3.81344 64.2577 3.16048 59.6783C2.43259 54.5734 1.84813 49.4273 1.28182 44.3026C0.720327 39.2214 1.17131 33.9561 1.17131 28.8519C1.17131 25.0057 2.46318 21.6134 3.13285 17.8763Z" fill="#7C2D01" stroke="#394038" stroke-linecap="round"/>
<path d="M126.344 45.688L129.128 44.824C130.232 46.456 131.288 48.616 131.576 50.056L128.696 51.064C128.36 49.624 127.4 47.368 126.344 45.688ZM118.328 42.04L120.2 39.832C121.928 41.032 123.992 42.808 124.952 44.104L123.032 46.648C122.12 45.256 120.056 43.336 118.328 42.04ZM123.656 36.76L127.016 38.056C125.672 39.736 124.28 41.464 123.176 42.616L120.68 41.512C121.688 40.168 122.984 38.104 123.656 36.76ZM126.92 40.264L129.896 41.608C127.544 44.2 124.568 47.272 122.264 49.144L120.056 48.04C122.36 45.976 125.288 42.568 126.92 40.264ZM131.96 50.968H135.848V64.408H131.96V50.968ZM117.944 47.656C120.92 47.464 124.952 47.224 129.272 46.888L129.32 49.816C125.336 50.2 121.544 50.536 118.28 50.776L117.944 47.656ZM138.488 45.4L141.368 44.584C142.568 46.312 143.72 48.712 144.104 50.344L141.08 51.352C140.744 49.72 139.64 47.272 138.488 45.4ZM129.752 41.8L131.816 39.688C133.688 41.032 135.944 43.048 136.952 44.44L134.792 46.84C133.832 45.4 131.624 43.24 129.752 41.8ZM135.32 36.712L138.776 38.056C137.288 39.88 135.752 41.752 134.504 43L131.96 41.848C133.064 40.456 134.552 38.2 135.32 36.712ZM138.728 40.312L141.8 41.704C139.304 44.392 136.184 47.512 133.688 49.48L131.432 48.28C133.88 46.216 137 42.712 138.728 40.312ZM130.712 47.656C133.688 47.512 137.576 47.272 141.8 46.984L141.848 49.864C138.152 50.248 134.504 50.488 131.384 50.776L130.712 47.656ZM119.384 51.736H122.936V55.912H128.12V59.08H119.384V51.736ZM138.872 51.736H142.424V59.08H135.032V55.912H138.872V51.736ZM125.816 50.968H129.656V55.624C129.656 59.368 128.744 62.968 122.648 65.08C122.168 64.168 120.968 62.68 120.152 61.96C125.144 60.472 125.816 58.024 125.816 55.48V50.968ZM113.624 28.216H125.672V31.672H113.624V28.216ZM135.704 28.216H147.896V31.672H135.704V28.216ZM145.928 22.072H151.496V58.744C151.496 61.48 151.064 63.064 149.432 64.024C147.8 64.984 145.592 65.08 142.424 65.08C142.232 63.544 141.512 60.952 140.792 59.464C142.568 59.56 144.488 59.56 145.112 59.56C145.736 59.56 145.928 59.32 145.928 58.696V22.072ZM114.152 22.072H129.368V37.768H114.152V33.88H123.944V25.96H114.152V22.072ZM148.808 22.072V25.96H137.96V33.88H148.808V37.768H132.488V22.072H148.808ZM110.744 22.072H116.216V65.32H110.744V22.072ZM167.192 44.152H190.904V48.808H167.192V44.152ZM179.48 40.456H184.616V59.08C184.616 61.384 184.232 62.68 182.648 63.496C181.112 64.264 179.048 64.312 176.216 64.312C175.976 62.92 175.208 60.856 174.536 59.608C176.264 59.656 178.136 59.656 178.712 59.656C179.288 59.608 179.48 59.464 179.48 58.936V40.456ZM178.328 46.984L182.408 48.616C179.384 53.656 174.056 58.6 169.112 61.288C168.248 60.04 166.664 58.12 165.512 57.16C170.312 55.096 175.592 51.016 178.328 46.984ZM161.624 28.744H173.672V32.632H161.624V28.744ZM183.896 28.744H196.04V32.632H183.896V28.744ZM193.688 22.072H199.496V58.408C199.496 61.672 198.824 63.304 196.856 64.264C194.792 65.224 191.816 65.32 187.4 65.32C187.16 63.688 186.248 60.952 185.384 59.464C188.216 59.608 191.48 59.56 192.44 59.56C193.352 59.56 193.688 59.224 193.688 58.36V22.072ZM162.104 22.072H177.272V39.496H162.104V35.368H171.896V26.248H162.104V22.072ZM196.76 22.072V26.248H186.008V35.512H196.76V39.64H180.536V22.072H196.76ZM158.792 22.072H164.504V65.32H158.792V22.072Z" fill="#E5C0B9"/>
</svg>
