<svg width="309" height="84" viewBox="0 0 309 84" fill="none" xmlns="http://www.w3.org/2000/svg">
<path d="M3.13285 17.8763C5.2389 6.12363 16.9909 2.80668 28.5224 1.00057C37.642 1.00049 37.9378 1.51145 43.7727 1.87561C49.7612 2.24935 56.0534 1.45059 62.0897 1.45059C69.6478 1.45059 77.1611 1.90061 84.7165 1.90061C107.676 1.90061 130.672 2.803 153.619 2.32563C159.68 2.19955 165.801 2.02277 171.853 1.7006C180.54 1.23817 188.973 1.45059 197.63 1.45059C211.775 1.45059 225.696 0.694767 239.817 1.8006C244.618 2.17661 249.25 1.19473 254.017 1.02557C258.336 0.872309 262.708 1.44326 267.002 1.8006C273.579 2.34788 280.238 1.91749 286.783 2.57564C291.647 3.06474 298.523 4.66365 301.536 8.45091C304.582 12.2797 304.304 17.7795 305.128 22.2516C306.135 27.7229 304.898 32.9458 305.625 38.3523C306.444 44.4495 308.798 50.2867 307.725 56.5281C307.118 60.0584 306.499 62.6054 307.283 66.1536C307.849 68.7182 307.063 71.1213 305.266 73.1539C303.602 75.0356 300.389 77.9374 297.724 78.8542C294.76 79.8732 291.211 79.8033 288.109 80.4542C282.273 81.6789 276.032 81.617 270.066 81.5578L269.709 81.5543C261.263 81.4712 254.017 81.3043 245.8 82.1043C239.491 80.9431 230.409 82.4321 223.97 82.1043C214.767 81.6358 202.679 81.172 193.565 82.1043C179.555 83.5376 169.244 81.8848 155.111 82.0043C148.339 82.0616 141.568 81.5543 134.777 81.5543C128.013 81.5543 120.918 82.1699 114.223 81.3043C99.1009 79.3494 83.0133 80.474 67.8085 81.3043C57.9018 81.8453 47.9944 82.969 38.0815 82.1043C30.6894 81.4596 22.8475 83.9947 15.8138 80.7543C13.9759 79.9075 12.4503 78.2115 11.1172 76.8041C9.80578 75.4196 8.13336 74.4706 6.9178 73.0039C3.71646 69.1412 3.81344 64.2577 3.16048 59.6783C2.43259 54.5734 1.84813 49.4273 1.28182 44.3026C0.720327 39.2214 1.17131 33.9561 1.17131 28.8519C1.17131 25.0057 2.46318 21.6134 3.13285 17.8763Z" fill="#7C2D01" stroke="#394038" stroke-linecap="round"/>
<path d="M108.104 50.344C111.8 49.624 117.416 48.232 122.84 46.888L123.512 51.976C118.904 53.512 114.008 55 110.072 56.2L108.104 50.344ZM120.44 20.584H126.056V65.272H120.44V20.584ZM111.08 25.816H116.6V51.688H111.08V25.816ZM133.4 28.84H153.752V34.264H133.4V28.84ZM133.448 20.2L139.352 21.352C137.336 30.328 133.784 38.92 129.128 44.296C128.216 43.144 125.912 40.936 124.616 39.928C128.888 35.416 131.912 27.976 133.448 20.2ZM145.544 31.72L151.304 32.584C148.232 48.808 141.848 59.32 129.128 65.464C128.6 64.12 126.92 61.48 125.864 60.232C137.576 55.24 143.144 46.072 145.544 31.72ZM135.656 32.536C138.2 45.304 143.72 55.768 154.232 60.328C152.936 61.48 151.112 63.784 150.296 65.32C138.92 59.704 133.544 48.424 130.424 33.544L135.656 32.536ZM157.304 49.768H200.696V54.376H157.304V49.768ZM166.52 31.912H195.608V35.656H166.52V31.912ZM166.52 37.672H195.656V41.416H166.52V37.672ZM165.368 25.432H198.008V29.944H165.368V25.432ZM177.32 28.264H182.84V45.112H177.32V28.264ZM175.976 46.696H181.736V65.272H175.976V46.696ZM175.544 51.688L179.864 53.8C174.92 58.696 166.664 62.92 159.368 65.032C158.552 63.592 156.92 61.48 155.672 60.28C162.968 58.744 171.272 55.384 175.544 51.688ZM182.36 51.544C186.488 55.192 194.6 58.552 201.8 60.136C200.6 61.288 199.016 63.4 198.2 64.792C190.952 62.728 182.888 58.504 177.992 53.704L182.36 51.544ZM179.72 20.248L186.2 21.016C184.664 23.896 182.936 26.584 181.592 28.456L176.504 27.448C177.704 25.384 179.048 22.408 179.72 20.248ZM167.432 20.152L173.336 21.304C170.12 26.92 165.896 32.44 159.992 37.192C159.08 35.896 157.208 34.12 155.912 33.304C161.288 29.416 165.224 24.376 167.432 20.152ZM162.776 28.36H168.248V43.48H199.4V47.848H162.776V28.36Z" fill="#E5C0B9"/>
</svg>
