<svg width="125" height="56" viewBox="0 0 125 56" fill="none" xmlns="http://www.w3.org/2000/svg">
<path d="M2.31142 12.2492C3.1515 4.41523 7.83933 2.20427 12.4392 1.00038C16.0769 1.00033 16.1949 1.34092 18.5224 1.58365C20.9112 1.83277 23.4211 1.30035 25.829 1.30035C28.8439 1.30035 31.8409 1.60031 34.8547 1.60031C44.0133 1.60031 53.1862 2.20182 62.3396 1.88362C64.7571 1.79958 67.1989 1.68174 69.6131 1.467C73.0783 1.15876 76.4419 1.30035 79.8951 1.30035C85.5376 1.30035 91.0906 0.796543 96.7233 1.53365C98.6385 1.78428 100.486 1.1298 102.388 1.01704C104.11 0.914886 105.854 1.29546 107.567 1.53365C110.191 1.89845 112.847 1.61157 115.458 2.05027C117.398 2.37628 120.141 3.44206 121.343 5.96652C122.558 8.51865 122.447 12.1847 122.776 15.1655C123.178 18.8125 122.684 22.2939 122.974 25.8977C123.301 29.9619 124.239 33.8528 123.811 38.0131C123.569 40.3662 123.322 42.064 123.635 44.4291C123.861 46.1385 123.547 47.7404 122.831 49.0952C122.167 50.3495 120.885 52.2838 119.822 52.8948C118.64 53.5741 117.224 53.5275 115.987 53.9614C113.659 54.7777 111.17 54.7365 108.79 54.697L108.647 54.6947C105.278 54.6393 102.388 54.528 99.1099 55.0613C96.5934 54.2873 92.9706 55.2797 90.4024 55.0613C86.7312 54.749 81.9092 54.4398 78.2739 55.0613C72.6851 56.0166 68.5723 54.9149 62.9347 54.9946C60.2333 55.0328 57.5327 54.6947 54.8237 54.6947C52.1254 54.6947 49.2954 55.105 46.6245 54.528C40.5926 53.2249 34.1753 53.9745 28.1102 54.528C24.1585 54.8886 20.2065 55.6376 16.2522 55.0613C13.3036 54.6315 10.1755 56.3213 7.36979 54.1614C6.63664 53.597 6.02809 52.4665 5.49632 51.5283C4.97321 50.6055 4.30609 49.9729 3.82121 48.9953C2.54421 46.4205 2.5829 43.1653 2.32244 40.1129C2.03209 36.7101 1.79895 33.2799 1.57305 29.864C1.34907 26.477 1.52897 22.9673 1.52897 19.5651C1.52897 17.0013 2.04429 14.7402 2.31142 12.2492Z" fill="#E5C0B9" stroke="#394038" stroke-linecap="round"/>
<path d="M35.5653 32.784C37.7213 32.364 40.9973 31.552 44.1613 30.768L44.5533 33.736C41.8653 34.632 39.0093 35.5 36.7133 36.2L35.5653 32.784ZM42.7613 15.424H46.0373V41.492H42.7613V15.424ZM37.3013 18.476H40.5213V33.568H37.3013V18.476ZM50.3213 20.24H62.1933V23.404H50.3213V20.24ZM50.3493 15.2L53.7933 15.872C52.6173 21.108 50.5453 26.12 47.8293 29.256C47.2973 28.584 45.9533 27.296 45.1973 26.708C47.6893 24.076 49.4533 19.736 50.3493 15.2ZM57.4053 21.92L60.7653 22.424C58.9733 31.888 55.2493 38.02 47.8293 41.604C47.5213 40.82 46.5413 39.28 45.9253 38.552C52.7573 35.64 56.0053 30.292 57.4053 21.92ZM51.6373 22.396C53.1213 29.844 56.3413 35.948 62.4733 38.608C61.7173 39.28 60.6533 40.624 60.1773 41.52C53.5413 38.244 50.4053 31.664 48.5853 22.984L51.6373 22.396ZM64.2653 32.448H89.5773V35.136H64.2653V32.448ZM69.6413 22.032H86.6093V24.216H69.6413V22.032ZM69.6413 25.392H86.6373V27.576H69.6413V25.392ZM68.9693 18.252H88.0093V20.884H68.9693V18.252ZM75.9413 19.904H79.1613V29.732H75.9413V19.904ZM75.1573 30.656H78.5173V41.492H75.1573V30.656ZM74.9053 33.568L77.4253 34.8C74.5413 37.656 69.7253 40.12 65.4693 41.352C64.9933 40.512 64.0413 39.28 63.3133 38.58C67.5693 37.684 72.4133 35.724 74.9053 33.568ZM78.8813 33.484C81.2893 35.612 86.0213 37.572 90.2213 38.496C89.5213 39.168 88.5973 40.4 88.1213 41.212C83.8933 40.008 79.1893 37.544 76.3333 34.744L78.8813 33.484ZM77.3413 15.228L81.1213 15.676C80.2253 17.356 79.2173 18.924 78.4333 20.016L75.4653 19.428C76.1653 18.224 76.9493 16.488 77.3413 15.228ZM70.1733 15.172L73.6173 15.844C71.7413 19.12 69.2773 22.34 65.8333 25.112C65.3013 24.356 64.2093 23.32 63.4533 22.844C66.5893 20.576 68.8853 17.636 70.1733 15.172ZM67.4573 19.96H70.6493V28.78H88.8213V31.328H67.4573V19.96Z" fill="#7C2D01"/>
</svg>
