<svg width="215" height="48" viewBox="0 0 215 48" fill="none" xmlns="http://www.w3.org/2000/svg">
<path d="M2.4798 10.5029C3.94099 3.88506 12.0947 2.01732 20.0954 1.00032C26.4226 1.00028 26.6279 1.28799 30.6762 1.49304C34.8311 1.70349 39.1966 1.25372 43.3847 1.25372C48.6286 1.25372 53.8414 1.50712 59.0834 1.50712C75.0132 1.50712 90.968 2.01525 106.889 1.74645C111.094 1.67545 115.341 1.57591 119.54 1.3945C125.567 1.13411 131.418 1.25372 137.424 1.25372C147.238 1.25372 156.896 0.828127 166.694 1.45081C170.025 1.66253 173.239 1.10965 176.546 1.0144C179.542 0.928099 182.576 1.24959 185.555 1.45081C190.118 1.75898 194.738 1.51663 199.28 1.88722C202.654 2.16263 207.425 3.06296 209.515 5.19552C211.629 7.35146 211.436 10.4484 212.007 12.9665C212.706 16.0473 211.848 18.9883 212.352 22.0326C212.921 25.4659 214.553 28.7528 213.809 32.2672C213.388 34.2551 212.958 35.6892 213.502 37.6872C213.896 39.1313 213.35 40.4845 212.103 41.629C210.949 42.6885 208.72 44.3226 206.87 44.8388C204.814 45.4126 202.352 45.3732 200.2 45.7397C196.15 46.4294 191.82 46.3945 187.681 46.3611L187.434 46.3592C181.574 46.3124 176.546 46.2184 170.845 46.6689C166.468 46.015 160.166 46.8534 155.699 46.6689C149.314 46.4051 140.927 46.1439 134.604 46.6689C124.883 47.4759 117.73 46.5453 107.924 46.6126C103.225 46.6448 98.528 46.3592 93.8162 46.3592C89.1229 46.3592 84.2007 46.7058 79.5551 46.2184C69.0635 45.1176 57.9017 45.7508 47.3525 46.2184C40.4791 46.523 33.6052 47.1557 26.7275 46.6689C21.5988 46.3058 16.1581 47.7333 11.278 45.9087C10.0028 45.4319 8.94434 44.4769 8.0194 43.6844C7.10955 42.9048 5.9492 42.3704 5.10584 41.5445C2.88471 39.3695 2.952 36.6197 2.49896 34.041C1.99395 31.1665 1.58844 28.2689 1.19553 25.3832C0.80596 22.522 1.11886 19.5572 1.11886 16.683C1.11886 14.5173 2.01517 12.6072 2.4798 10.5029Z" fill="#F2EFE8" stroke="#313131" stroke-linecap="round"/>
</svg>
