<svg width="76" height="30" viewBox="0 0 76 30" fill="none" xmlns="http://www.w3.org/2000/svg">
<path d="M36.8691 1.91402C40.1927 1.78808 43.344 1.00002 46.6894 1.00002C49.3337 1.00002 50.9715 1.46345 53.6124 1.46345C57.9768 1.46345 62.1581 1.95481 66.2019 3.83213L66.2189 3.84002C68.4363 4.86942 71.7126 6.39037 72.7788 8.78833C73.9204 11.3562 75.2105 15.2601 74.971 18.1214C74.879 19.2212 74.1582 21.1788 73.4454 22.0735C71.8654 24.0567 68.6064 25.401 66.2917 26.2573C63.1485 27.4201 59.2386 27.7928 55.92 27.8794C53.5628 27.9409 51.2534 28.5491 48.8945 28.5745C46.818 28.5969 44.7403 28.5434 42.6638 28.5745C40.472 28.6074 38.3597 29.2486 36.1768 29.2697C33.9977 29.2907 31.8175 29.2697 29.6384 29.2697C24.4187 29.2697 18.8926 28.5993 13.7412 27.7764C11.4231 27.4061 9.46265 27.1264 7.4721 25.7939C5.85816 24.7135 3.83752 23.905 2.63884 22.331C1.37786 20.6752 0.922151 19.1602 1.01066 17.0272C1.0815 15.32 1.40897 12.9961 2.16449 11.4788C3.50971 8.77729 6.7638 6.2277 9.35668 4.75901C12.291 3.09689 15.9015 2.14226 19.2283 1.74666C21.8028 1.44053 24.4322 1.89501 27.0102 1.57931C30.361 1.169 33.5359 2.04032 36.8691 1.91402Z" fill="#777E94" stroke="#313131" stroke-linecap="round"/>
<path d="M34.2052 9.23813C34.2352 9.19813 34.2852 9.13813 34.3552 9.05813C34.4252 8.97813 34.4802 8.91813 34.5202 8.87813C34.5702 8.83813 34.6152 8.81813 34.6552 8.81813C34.7152 8.81813 34.8652 8.90813 35.1052 9.08813C35.3552 9.25813 35.5852 9.44313 35.7952 9.64313C36.0052 9.83313 36.1102 9.96313 36.1102 10.0331C36.0702 10.0931 36.0002 10.1531 35.9002 10.2131C35.8102 10.2631 35.7002 10.3031 35.5702 10.3331V11.5631H35.6452L35.9452 10.9931C35.9752 10.9431 36.0202 10.8631 36.0802 10.7531C36.1402 10.6431 36.1902 10.5631 36.2302 10.5131C36.2802 10.4531 36.3252 10.4231 36.3652 10.4231C36.4552 10.4231 36.6702 10.6181 37.0102 11.0081C37.3502 11.3981 37.5202 11.6481 37.5202 11.7581C37.4902 11.9181 37.3652 11.9981 37.1452 11.9981H35.5702V12.6881L35.5852 13.1081C35.5952 13.4381 35.6152 13.7331 35.6452 13.9931C35.5952 14.0931 35.4152 14.1981 35.1052 14.3081C34.7952 14.4181 34.5202 14.4731 34.2802 14.4731H34.0102V13.9631H32.6752V15.4931H34.1452L34.5202 14.9381C34.5702 14.8681 34.6252 14.7931 34.6852 14.7131C34.7452 14.6231 34.8052 14.5481 34.8652 14.4881C34.9252 14.4181 34.9752 14.3831 35.0152 14.3831C35.0752 14.3831 35.2202 14.4781 35.4502 14.6681C35.6902 14.8481 35.9152 15.0431 36.1252 15.2531C36.3352 15.4631 36.4402 15.6031 36.4402 15.6731C36.4102 15.8331 36.2802 15.9131 36.0502 15.9131H32.6752V17.4881H34.3102L34.7452 16.8881C34.7852 16.8381 34.8452 16.7531 34.9252 16.6331C35.0152 16.5131 35.0852 16.4281 35.1352 16.3781C35.1952 16.3181 35.2452 16.2881 35.2852 16.2881C35.3452 16.2881 35.5052 16.3931 35.7652 16.6031C36.0352 16.8031 36.2852 17.0181 36.5152 17.2481C36.7552 17.4681 36.8752 17.6131 36.8752 17.6831C36.8352 17.8431 36.7002 17.9231 36.4702 17.9231H32.6752V18.4331C32.6852 18.5431 32.6902 18.6781 32.6902 18.8381L32.7352 19.3481C32.7052 19.4681 32.5502 19.5881 32.2702 19.7081C31.9902 19.8281 31.7002 19.8881 31.4002 19.8881C31.1202 19.8881 30.9802 19.7881 30.9802 19.5881C31.0102 19.3481 31.0302 19.1181 31.0402 18.8981L31.0552 18.5831V17.9231H30.0502C29.4802 17.9331 28.8802 18.0031 28.2502 18.1331L27.8602 17.3681C28.4102 17.4281 29.0752 17.4681 29.8552 17.4881H31.0552V15.9131H30.2452C29.7652 15.9231 29.2752 15.9931 28.7752 16.1231L28.4002 15.3731C28.9002 15.4331 29.5002 15.4731 30.2002 15.4931H31.0552V13.9631H30.2902C29.8402 13.9731 29.3802 14.0431 28.9102 14.1731L28.5202 13.4081C29.0002 13.4681 29.5702 13.5081 30.2302 13.5281H31.0552V11.9981H29.9902C29.3702 12.0081 28.7102 12.0781 28.0102 12.2081L27.6352 11.4431C28.1852 11.5031 28.8502 11.5431 29.6302 11.5631H31.0552V10.0631H30.2752C29.8552 10.0731 29.4052 10.1431 28.9252 10.2731L28.5352 9.52313C29.0152 9.58313 29.5852 9.62313 30.2452 9.64313H31.0552C31.0552 8.93313 31.0202 8.35313 30.9502 7.90313C31.7402 8.08313 32.2852 8.22813 32.5852 8.33813C32.8952 8.43813 33.0502 8.52813 33.0502 8.60813C33.0502 8.64813 33.0102 8.69313 32.9302 8.74313L32.6752 8.92313V9.64313H33.8752L34.2052 9.23813ZM26.3302 8.84813C26.3702 8.79813 26.4202 8.73813 26.4802 8.66813C26.5502 8.58813 26.6052 8.52813 26.6452 8.48813C26.6852 8.44813 26.7252 8.42813 26.7652 8.42813C26.8252 8.42813 26.9802 8.52313 27.2302 8.71313C27.4802 8.90313 27.7102 9.10813 27.9202 9.32813C28.1402 9.53813 28.2502 9.67813 28.2502 9.74813C28.1302 9.87813 27.9102 9.96813 27.5902 10.0181C27.2602 10.8881 26.7402 12.0931 26.0302 13.6331H26.5702L26.9302 13.1981C26.9602 13.1581 27.0102 13.0981 27.0802 13.0181C27.1602 12.9281 27.2252 12.8631 27.2752 12.8231C27.3252 12.7731 27.3702 12.7481 27.4102 12.7481C27.4702 12.7481 27.6152 12.8431 27.8452 13.0331C28.0852 13.2231 28.3052 13.4231 28.5052 13.6331C28.7152 13.8431 28.8202 13.9831 28.8202 14.0531C28.7802 14.1231 28.7202 14.1781 28.6402 14.2181C28.5702 14.2481 28.4552 14.2781 28.2952 14.3081C28.0652 16.0981 27.6502 17.5781 27.0502 18.7481C27.6602 19.2981 28.4252 19.6681 29.3452 19.8581C30.2752 20.0481 31.5002 20.1431 33.0202 20.1431C35.1702 20.1431 36.6102 20.1331 37.3402 20.1131V20.2931C37.0502 20.3631 36.8252 20.5281 36.6652 20.7881C36.5052 21.0481 36.4152 21.3531 36.3952 21.7031H32.9302C31.3002 21.7031 29.9902 21.5431 29.0002 21.2231C28.0102 20.9131 27.2102 20.3381 26.6002 19.4981C25.9002 20.5581 24.9502 21.4181 23.7502 22.0781L23.6302 21.8981C24.6502 20.9881 25.4102 19.7831 25.9102 18.2831C25.6202 17.6531 25.3802 16.8981 25.1902 16.0181C24.8402 16.7881 24.6002 17.2931 24.4702 17.5331C24.5102 17.6131 24.5302 17.6681 24.5302 17.6981C24.5302 17.7781 24.4952 17.8431 24.4252 17.8931L23.5852 16.8881C23.8152 16.7181 24.0702 16.5131 24.3502 16.2731C24.6302 16.0331 24.8552 15.8281 25.0252 15.6581L25.1152 14.9981L25.6852 15.1781L25.2952 15.7331C25.5252 16.4431 25.7952 17.0681 26.1052 17.6081C26.3752 16.6481 26.5702 15.4681 26.6902 14.0681H25.8502L25.5352 14.7431C25.3652 14.7931 25.2002 14.8181 25.0402 14.8181C24.7302 14.8181 24.4002 14.7481 24.0502 14.6081C24.3802 13.8681 24.7252 13.0481 25.0852 12.1481C25.4452 11.2381 25.7502 10.4231 26.0002 9.70313H25.3102C24.9202 9.71313 24.5202 9.78313 24.1102 9.91313L23.7202 9.14813C24.1502 9.20813 24.6702 9.24813 25.2802 9.26813H26.0002L26.3302 8.84813ZM34.0102 10.0631H32.6752V11.5631H34.0102V10.0631ZM32.6752 13.5281H34.0102V11.9981H32.6752V13.5281ZM43.7602 9.89813C44.2102 9.95813 44.7602 9.99813 45.4102 10.0181H46.1902C46.1102 9.99813 46.0152 9.94813 45.9052 9.86813C45.8552 9.58813 45.7502 9.28813 45.5902 8.96813C45.4302 8.64813 45.2552 8.36313 45.0652 8.11313L45.2002 8.02313C45.8802 8.09313 46.3852 8.25313 46.7152 8.50313C47.0452 8.75313 47.2102 9.02313 47.2102 9.31313C47.2102 9.47313 47.1652 9.61813 47.0752 9.74813C46.9852 9.87813 46.8652 9.96813 46.7152 10.0181H48.0952C48.2152 9.68813 48.3102 9.31813 48.3802 8.90813C48.4602 8.49813 48.5052 8.13313 48.5152 7.81313C49.8852 8.13313 50.5702 8.35813 50.5702 8.48813C50.5702 8.51813 50.5252 8.55313 50.4352 8.59313L50.1652 8.69813C49.7152 9.12813 49.1302 9.56813 48.4102 10.0181H50.0002L50.3452 9.53813C50.3752 9.49813 50.4252 9.43313 50.4952 9.34313C50.5652 9.24313 50.6202 9.17313 50.6602 9.13313C50.7102 9.08313 50.7552 9.05813 50.7952 9.05813C50.8552 9.05813 50.9952 9.13813 51.2152 9.29813C51.4352 9.45813 51.6402 9.63313 51.8302 9.82313C52.0202 10.0031 52.1152 10.1281 52.1152 10.1981C52.0752 10.3581 51.9452 10.4381 51.7252 10.4381H48.3802V11.5631H49.5202L49.8502 11.0981C49.9002 11.0381 49.9502 10.9731 50.0002 10.9031C50.0502 10.8331 50.1002 10.7731 50.1502 10.7231C50.2002 10.6631 50.2452 10.6331 50.2852 10.6331C50.3452 10.6331 50.4802 10.7131 50.6902 10.8731C50.9102 11.0231 51.1152 11.1881 51.3052 11.3681C51.4952 11.5481 51.5902 11.6731 51.5902 11.7431C51.5602 11.9031 51.4302 11.9831 51.2002 11.9831H48.3802V13.1681H50.0752L50.4502 12.6581C50.4902 12.6081 50.5452 12.5331 50.6152 12.4331C50.6952 12.3331 50.7552 12.2581 50.7952 12.2081C50.8452 12.1581 50.8902 12.1331 50.9302 12.1331C50.9902 12.1331 51.1352 12.2231 51.3652 12.4031C51.6052 12.5731 51.8252 12.7581 52.0252 12.9581C52.2252 13.1481 52.3252 13.2781 52.3252 13.3481C52.2852 13.5081 52.1552 13.5881 51.9352 13.5881H46.0252C45.3152 13.5981 44.5652 13.6681 43.7752 13.7981L43.4602 13.1531C43.4002 13.2831 43.2752 13.3481 43.0852 13.3481H40.6102C40.2702 13.3581 39.9102 13.4281 39.5302 13.5581L39.1402 12.7931C39.5802 12.8531 40.1102 12.8931 40.7302 12.9131H41.4952L41.8102 12.4481C41.8402 12.4081 41.8852 12.3431 41.9452 12.2531C42.0052 12.1531 42.0552 12.0831 42.0952 12.0431C42.1452 11.9931 42.1902 11.9681 42.2302 11.9681C42.3202 11.9681 42.5302 12.1131 42.8602 12.4031C43.2002 12.6931 43.4002 12.9081 43.4602 13.0481C44.0002 13.1081 44.6452 13.1481 45.3952 13.1681H46.7902V11.9831H46.0102C45.5902 11.9931 45.1402 12.0631 44.6602 12.1931L44.2702 11.4431C44.7502 11.5031 45.3202 11.5431 45.9802 11.5631H46.7902V10.4381H45.8602C45.3202 10.4481 44.7502 10.5181 44.1502 10.6481L43.7602 9.89813ZM41.7352 9.50813C41.0252 9.51813 40.2752 9.58813 39.4852 9.71813L39.0952 8.96813C39.5252 9.02813 40.0352 9.06813 40.6252 9.08813H41.3302L41.6752 8.57813C41.7052 8.53813 41.7552 8.46813 41.8252 8.36813C41.8952 8.26813 41.9502 8.19313 41.9902 8.14313C42.0402 8.09313 42.0852 8.06813 42.1252 8.06813C42.1852 8.06813 42.3202 8.15313 42.5302 8.32313C42.7502 8.49313 42.9502 8.67813 43.1302 8.87813C43.3202 9.06813 43.4152 9.19813 43.4152 9.26813C43.3852 9.42813 43.2602 9.50813 43.0402 9.50813H41.7352ZM40.3702 11.3981C39.9202 11.4081 39.4402 11.4781 38.9302 11.6081L38.5402 10.8731C39.0902 10.9331 39.7552 10.9731 40.5352 10.9931H41.9002L42.2302 10.4831C42.2602 10.4431 42.3102 10.3731 42.3802 10.2731C42.4502 10.1731 42.5052 10.0981 42.5452 10.0481C42.5952 9.99813 42.6402 9.97313 42.6802 9.97313C42.7402 9.97313 42.8752 10.0581 43.0852 10.2281C43.3052 10.3981 43.5052 10.5831 43.6852 10.7831C43.8752 10.9731 43.9702 11.1031 43.9702 11.1731C43.9302 11.3231 43.8052 11.3981 43.5952 11.3981H40.3702ZM52.3702 16.4831C52.3302 16.6431 52.2002 16.7231 51.9802 16.7231H49.5652C49.6252 17.2831 49.7052 17.7681 49.8052 18.1781L50.0452 17.4881C50.0752 17.4181 50.1152 17.3181 50.1652 17.1881C50.2152 17.0481 50.2552 16.9481 50.2852 16.8881C50.3252 16.8181 50.3652 16.7831 50.4052 16.7831C50.4652 16.7831 50.6352 16.8431 50.9152 16.9631C51.1952 17.0731 51.4502 17.1931 51.6802 17.3231C51.9102 17.4531 52.0252 17.5531 52.0252 17.6231C51.9852 17.7131 51.9252 17.7781 51.8452 17.8181C51.7652 17.8481 51.6452 17.8531 51.4852 17.8331C51.1552 18.3831 50.7402 18.9081 50.2402 19.4081C50.4502 19.7981 50.7002 20.0931 50.9902 20.2931C51.0402 20.3331 51.0902 20.3531 51.1402 20.3531C51.2002 20.3531 51.2602 20.3031 51.3202 20.2031C51.4002 20.0631 51.4902 19.8531 51.5902 19.5731C51.7002 19.2831 51.7952 19.0031 51.8752 18.7331L52.0252 18.7631L51.8902 20.6231C52.1502 20.9731 52.2802 21.2281 52.2802 21.3881C52.2802 21.4881 52.2452 21.5881 52.1752 21.6881C52.0252 21.9381 51.7952 22.0631 51.4852 22.0631C51.1552 22.0631 50.7852 21.9281 50.3752 21.6581C49.8552 21.3381 49.4352 20.8981 49.1152 20.3381C48.4552 20.8081 47.7502 21.1731 47.0002 21.4331L46.8952 21.2231C47.5752 20.8131 48.1952 20.2781 48.7552 19.6181C48.4452 18.8881 48.2252 17.9231 48.0952 16.7231H46.7002V17.6531L47.8702 17.4431L47.9152 17.6381C47.4552 17.8881 47.0502 18.0981 46.7002 18.2681V20.2181C46.7002 20.5981 46.6552 20.9081 46.5652 21.1481C46.4852 21.3981 46.3152 21.5981 46.0552 21.7481C45.8052 21.9081 45.4352 22.0131 44.9452 22.0631C44.9252 21.5831 44.8502 21.2431 44.7202 21.0431C44.5502 20.8031 44.2352 20.6481 43.7752 20.5781V20.3681C44.4552 20.4181 44.8652 20.4431 45.0052 20.4431C45.1052 20.4431 45.1752 20.4231 45.2152 20.3831C45.2552 20.3431 45.2752 20.2781 45.2752 20.1881V18.9281L44.3602 19.3181C44.3002 19.5181 44.1802 19.6331 44.0002 19.6631L43.4152 18.1631C43.9352 18.1031 44.5552 18.0131 45.2752 17.8931V16.7231H44.6902C44.3602 16.7331 44.0202 16.8031 43.6702 16.9331L43.2802 16.1831C43.6602 16.2431 44.1102 16.2831 44.6302 16.3031H45.2752V15.2681C44.6952 15.3381 44.1152 15.3831 43.5352 15.4031L43.4902 15.1781C44.0402 15.0081 44.6302 14.7731 45.2602 14.4731C45.9002 14.1731 46.4002 13.8981 46.7602 13.6481L47.9302 14.8031L47.8702 13.7231C49.1302 13.7831 49.7602 13.8831 49.7602 14.0231C49.7602 14.0531 49.7252 14.0931 49.6552 14.1431L49.4152 14.3081C49.4552 15.2081 49.4952 15.8731 49.5352 16.3031H50.2252L50.7202 15.6431C50.5702 15.6031 50.4452 15.5331 50.3452 15.4331C50.3252 15.2231 50.2652 14.9931 50.1652 14.7431C50.0652 14.4931 49.9552 14.2731 49.8352 14.0831L49.9852 13.9931C50.5352 14.0731 50.9352 14.2131 51.1852 14.4131C51.4452 14.6131 51.5752 14.8281 51.5752 15.0581C51.5752 15.1581 51.5452 15.2581 51.4852 15.3581C51.4352 15.4481 51.3652 15.5181 51.2752 15.5681L51.6352 15.8681L52.3702 16.4831ZM42.2302 13.9181C42.2902 13.9181 42.4202 13.9981 42.6202 14.1581C42.8302 14.3181 43.0252 14.4931 43.2052 14.6831C43.3852 14.8631 43.4752 14.9881 43.4752 15.0581C43.4352 15.2081 43.3052 15.2831 43.0852 15.2831H40.6102C40.2702 15.2931 39.9102 15.3631 39.5302 15.4931L39.1402 14.7581C39.5802 14.8181 40.1102 14.8581 40.7302 14.8781H41.4952L41.8102 14.3981C41.8402 14.3581 41.8852 14.2931 41.9452 14.2031C42.0052 14.1031 42.0552 14.0331 42.0952 13.9931C42.1452 13.9431 42.1902 13.9181 42.2302 13.9181ZM46.7002 16.3031H48.0502C48.0202 16.0031 47.9852 15.5781 47.9452 15.0281C47.9152 15.0381 47.8652 15.0431 47.7952 15.0431C47.6352 15.0431 47.4702 15.0081 47.3002 14.9381C47.1902 14.9681 47.0852 14.9931 46.9852 15.0131C46.8852 15.0231 46.7902 15.0381 46.7002 15.0581V16.3031ZM43.2052 18.6581C43.2252 19.6081 43.2552 20.3531 43.2952 20.8931C43.2352 20.9931 43.0602 21.1031 42.7702 21.2231C42.4802 21.3531 42.2202 21.4181 41.9902 21.4181H41.7352V20.7431H40.6702V21.0131C40.6802 21.1131 40.6852 21.2031 40.6852 21.2831C40.6952 21.3731 40.7052 21.4381 40.7152 21.4781C40.6952 21.5881 40.5452 21.7081 40.2652 21.8381C39.9952 21.9681 39.7202 22.0331 39.4402 22.0331C39.3402 22.0331 39.2602 22.0031 39.2002 21.9431C39.1502 21.8831 39.1252 21.8131 39.1252 21.7331C39.1652 21.3031 39.1952 20.7531 39.2152 20.0831V19.1081C39.2152 17.9081 39.1552 16.9131 39.0352 16.1231L40.7152 16.8431H41.6002L41.9152 16.4531C41.9552 16.4131 42.0052 16.3581 42.0652 16.2881C42.1352 16.2081 42.1902 16.1531 42.2302 16.1231C42.2702 16.0831 42.3102 16.0631 42.3502 16.0631C42.4102 16.0631 42.5552 16.1481 42.7852 16.3181C43.0252 16.4781 43.2452 16.6531 43.4452 16.8431C43.6452 17.0231 43.7452 17.1481 43.7452 17.2181C43.6452 17.3481 43.4652 17.4431 43.2052 17.5031V18.6581ZM40.6702 20.3081H41.7352V17.2631H40.6702V20.3081Z" fill="white"/>
</svg>
