<svg width="116" height="116" viewBox="0 0 116 116" fill="none" xmlns="http://www.w3.org/2000/svg">
<path d="M33.4696 6.99497C39.0317 3.24294 44.6974 1.71 51.3633 1H62.9434C72.8247 1 82.3942 3.51162 90.6816 8.90247C92.9575 10.3829 94.6333 12.5565 96.4866 14.5038C98.5254 16.6462 100.399 18.2163 102.77 20.0446C106.687 23.0642 109.236 28.5533 111.448 32.9126C113.797 37.5422 114.259 43.2878 114.889 48.3845C115.302 51.7282 114.433 55.0309 114.38 58.3459C114.33 61.5169 114.488 64.5964 113.961 67.7319C112.868 74.2447 110.972 82.1695 106.72 87.3519C101.785 93.367 96.1889 101.019 89.3351 104.822C86.1444 106.593 83.8667 109.009 80.2087 110C75.8759 111.173 71.7928 112.97 67.4018 113.936C62.9488 114.915 58.3074 115.549 53.787 114.329C48.9524 113.025 43.865 113.273 39.0651 111.907C33.8743 110.43 28.9296 108.228 24.6723 104.792C21.9451 102.59 19.9064 99.7442 17.072 97.6765C14.588 95.8645 12.4078 94.1706 10.6386 91.621C2.94298 80.5304 -0.358711 65.5369 1.51225 52.0481C2.43843 45.3708 4.45861 38.5005 6.89832 32.2465C8.75003 27.4999 12.9197 24.2671 16.6531 21.1044C19.9195 18.3372 22.3193 14.556 25.7496 12.0211C28.2056 10.2061 30.9354 8.70446 33.4696 6.99497Z" fill="#F2EFE8" stroke="#394038" stroke-linecap="round"/>
<path d="M27.2035 74.6911C27.2035 67.3363 27.0414 59.9825 27.0414 52.6259C27.0414 49.8082 26.907 46.9645 27.1225 44.1512C27.2791 42.1054 26.9769 40.0127 27.2305 37.9771C27.4721 36.038 28.8894 35.7564 30.9679 35.3972C33.0559 35.0363 35.0681 35.0003 37.1908 35.0003C39.1157 35.0003 42.2225 34.9353 43.1435 36.7496C43.9141 38.2678 43.0895 40.1753 43.0895 41.7477" stroke="black" stroke-linecap="round"/>
<path d="M43.0898 42.0123H85.3983" stroke="black" stroke-linecap="round"/>
<path d="M85.0732 42.0123C87.2862 42.2381 89.5574 42.908 89.9003 44.923C90.0686 45.9122 89.9363 46.9666 89.9363 47.9659" stroke="black" stroke-linecap="round"/>
<path d="M29.3294 67.6409C28.3451 70.3836 27.4271 72.7016 27.2038 75.6172C26.9513 78.914 30.3422 79.1112 31.7967 79.16C34.7465 79.2589 43.3571 79.4675 46.3087 79.4885C53.1709 79.16 79.2117 80.2783 86.1187 79.1159C88.8014 78.5405 90.3145 76.1536 91.0358 74.1325C92.1755 70.9387 93.6244 67.8241 94.7281 64.6214C95.8504 61.3646 96.7798 58.0108 97.6459 54.6987C98.2216 52.4971 98.5034 49.7177 95.1603 49.0832C93.9679 48.8569 77.176 48.8921 75.9566 48.8921C73.3941 48.8921 53.5288 48.5881 50.9715 48.6849C48.6392 48.6849 40.0625 48.1822 38.6549 48.8921C32.9364 50.4081 30.3957 65.6445 29.3294 67.6409Z" fill="#E7C96E" stroke="black" stroke-linecap="round"/>
</svg>
