<svg width="64" height="32" viewBox="0 0 64 32" fill="none" xmlns="http://www.w3.org/2000/svg">
<path d="M30.841 1.96194C33.6061 1.8294 36.2277 1.00002 39.011 1.00002C41.2108 1.00002 42.5734 1.48775 44.7705 1.48775C48.4014 1.48775 51.88 2.00488 55.2442 3.98063L55.2584 3.98894C57.1032 5.07232 59.8288 6.67302 60.7158 9.19671C61.6656 11.8993 62.7388 16.0079 62.5396 19.0192C62.463 20.1766 61.8634 22.2369 61.2704 23.1785C59.9559 25.2657 57.2446 26.6805 55.3189 27.5817C52.704 28.8054 49.4512 29.1977 46.6903 29.2888C44.7292 29.3535 42.8079 29.9936 40.8455 30.0204C39.1179 30.044 37.3894 29.9876 35.6619 30.0204C33.8384 30.055 32.0811 30.7298 30.265 30.752C28.4522 30.7741 26.6384 30.752 24.8255 30.752C20.483 30.752 15.8856 30.0465 11.6 29.1804C9.67145 28.7907 8.04044 28.4963 6.38441 27.094C5.04171 25.9569 3.36066 25.106 2.36342 23.4495C1.31435 21.7069 0.935234 20.1124 1.00887 17.8676C1.0678 16.0709 1.34024 13.6251 1.96879 12.0283C3.08793 9.18508 5.79515 6.50181 7.95228 4.95611C10.3935 3.20684 13.3972 2.20215 16.1649 1.78581C18.3067 1.46363 20.4942 1.94194 22.639 1.60969C25.4266 1.17786 28.068 2.09486 30.841 1.96194Z" fill="#DBC157" stroke="#313131" stroke-linecap="round"/>
<path d="M26.572 22.182C26.012 22.182 25.3493 22.014 24.584 21.678C23.8187 21.3327 23.142 20.7773 22.554 20.012C21.9753 19.2467 21.686 18.2667 21.686 17.072C21.686 16.316 21.854 15.5087 22.19 14.65C22.5353 13.7913 23.0767 13.0587 23.814 12.452C24.5513 11.8453 25.4753 11.542 26.586 11.542C26.894 11.542 27.1693 11.5747 27.412 11.64C27.664 11.696 27.944 11.7847 28.252 11.906C28.588 12.018 28.826 12.074 28.966 12.074C29.106 12.074 29.2413 12.046 29.372 11.99C29.5027 11.934 29.6427 11.8313 29.792 11.682C29.876 12.018 29.9693 12.4333 30.072 12.928C30.184 13.4227 30.268 13.81 30.324 14.09L30.352 14.216C30.352 14.2533 30.324 14.286 30.268 14.314C30.2493 14.3327 30.2213 14.342 30.184 14.342C30.128 14.342 30.0767 14.314 30.03 14.258C29.722 13.81 29.4233 13.4367 29.134 13.138C28.854 12.83 28.504 12.5687 28.084 12.354C27.6733 12.1393 27.1927 12.032 26.642 12.032C25.7927 12.032 25.144 12.3633 24.696 13.026C24.248 13.6887 23.9587 14.4073 23.828 15.182C23.6973 15.9473 23.632 16.6147 23.632 17.184C23.632 17.9027 23.7673 18.6167 24.038 19.326C24.3087 20.026 24.668 20.6 25.116 21.048C25.5733 21.496 26.0587 21.72 26.572 21.72C27.188 21.72 27.6547 21.5893 27.972 21.328C28.2893 21.0573 28.49 20.7213 28.574 20.32C28.6487 20.0307 28.686 19.7087 28.686 19.354C28.686 19.2233 28.6767 19.074 28.658 18.906C28.63 18.654 28.5273 18.4533 28.35 18.304C28.1727 18.1453 27.8087 18.066 27.258 18.066C27.1833 18.066 27.146 18.01 27.146 17.898C27.146 17.7953 27.1833 17.744 27.258 17.744H31.584C31.6493 17.744 31.682 17.7953 31.682 17.898C31.682 18.01 31.6493 18.066 31.584 18.066C31.248 18.066 30.9633 18.1407 30.73 18.29C30.506 18.4393 30.3753 18.6587 30.338 18.948C30.3193 19.0787 30.31 19.298 30.31 19.606C30.31 20.1007 30.324 20.7447 30.352 21.538H30.086C29.75 21.538 29.456 21.566 29.204 21.622C28.952 21.6687 28.6487 21.748 28.294 21.86C27.9767 21.9627 27.692 22.042 27.44 22.098C27.188 22.154 26.8987 22.182 26.572 22.182ZM37.4691 22.182C36.6851 22.182 35.9151 21.9767 35.1591 21.566C34.4031 21.1553 33.7778 20.5487 33.2831 19.746C32.7978 18.9433 32.5551 17.982 32.5551 16.862C32.5551 15.742 32.7978 14.7807 33.2831 13.978C33.7778 13.1753 34.4031 12.5687 35.1591 12.158C35.9151 11.7473 36.6851 11.542 37.4691 11.542C38.2531 11.542 39.0185 11.7473 39.7651 12.158C40.5211 12.5687 41.1418 13.1753 41.6271 13.978C42.1218 14.7807 42.3691 15.742 42.3691 16.862C42.3691 17.982 42.1218 18.9433 41.6271 19.746C41.1418 20.5487 40.5211 21.1553 39.7651 21.566C39.0185 21.9767 38.2531 22.182 37.4691 22.182ZM37.4691 21.748C38.0198 21.748 38.5145 21.566 38.9531 21.202C39.3918 20.838 39.7418 20.292 40.0031 19.564C40.2645 18.8267 40.3951 17.9307 40.3951 16.876C40.3951 15.8213 40.2645 14.9253 40.0031 14.188C39.7418 13.4507 39.3918 12.9 38.9531 12.536C38.5145 12.172 38.0245 11.99 37.4831 11.99C36.9325 11.99 36.4331 12.172 35.9851 12.536C35.5465 12.9 35.1965 13.4507 34.9351 14.188C34.6831 14.916 34.5571 15.812 34.5571 16.876C34.5571 17.9307 34.6831 18.8267 34.9351 19.564C35.1965 20.292 35.5465 20.838 35.9851 21.202C36.4238 21.566 36.9185 21.748 37.4691 21.748Z" fill="#313131"/>
</svg>
