<svg width="374" height="110" viewBox="0 0 374 110" fill="none" xmlns="http://www.w3.org/2000/svg">
<path d="M44.6289 11.5813C34.1754 17.6489 24.7508 30.8282 22.426 51.0221C21.9763 54.929 21.8929 55.9527 21.8168 59.3445C21.65 66.7741 18.6844 70.2742 15.7923 75.3862C12.6437 80.9515 9.51968 86.3222 6.51852 92.1515L6.51529 92.1578C5.89227 93.3679 -0.882568 106.527 1.50931 105.057C5.17892 102.803 8.80649 101.838 12.6107 100.474C14.6153 99.7553 20.8474 94.7496 22.426 98.7853C24.9146 105.147 29.6251 106.705 33.6967 107.892C42.5762 110.481 52.1473 107.771 61.0779 107.409C80.367 106.628 99.6224 106.384 118.92 106.384C150.387 106.384 181.821 107.09 213.283 108.012C243.386 108.895 273.451 107.6 303.549 107.47C314.845 107.42 326.149 107.13 337.395 105.057C346.62 103.357 357.07 102.725 365.69 96.1318C376.911 87.5489 372.673 60.7414 369.549 44.7501C367.889 36.2545 365.239 29.0855 362.035 22.1953C358.579 14.7639 355.254 12.7294 349.85 11.0988C330.755 5.33649 310.694 6.55971 291.399 4.88716C260.069 2.17144 228.717 4.23365 197.375 2.71611C170.48 1.41387 143.594 0.663848 116.687 1.14812C102.963 1.39513 89.2878 2.65788 75.5978 4.28409C65.1424 5.52607 54.6944 5.7388 44.6289 11.5813Z" fill="#F2EFE8" stroke="black" stroke-linecap="round"/>
</svg>
