<svg width="361" height="657" viewBox="0 0 361 657" fill="none" xmlns="http://www.w3.org/2000/svg">
<rect x="14" y="14" width="331" height="635" fill="#F9F7F4"/>
<mask id="path-2-inside-1_1662_951" fill="white">
<path d="M335.66 656.086C336.872 656.159 338.009 656.18 339.205 656.391C344.701 657.357 350.575 656.893 356.193 656.858C356.193 651.804 356.214 646.75 356.268 641.695C356.298 638.908 355.794 636.277 355.459 633.522C355.136 630.894 355.312 628.211 355.312 625.57C355.312 620.851 354.582 615.866 355.987 611.299C356.822 608.589 356.218 605.691 356.197 602.925C356.172 600.149 356.197 597.372 356.197 594.596C356.197 589.313 355.975 583.971 356.81 578.723C357.267 575.849 358.131 573.111 358.224 570.193C358.299 567.818 358.127 565.443 358.035 563.068C357.817 557.418 357.98 551.751 357.972 546.097C357.963 541.168 357.137 536.144 358.005 531.242C359.029 525.457 358.861 519.797 358.861 513.957C358.861 508.421 358.861 502.882 358.874 497.346C358.882 494.279 358.639 491.125 358.975 488.072C359.226 485.787 360.049 483.616 360.489 481.363C361.551 475.945 360.628 469.824 360.632 464.334C360.636 458.663 359.667 453.165 359.105 447.533C357.934 435.818 358.861 423.729 358.857 411.968C358.857 400.333 358.857 388.694 358.857 377.058C358.857 371.488 359.222 365.81 358.66 360.257C358.396 357.675 357.867 355.12 357.783 352.527C357.695 349.868 358.018 347.22 357.993 344.565C357.968 341.909 357.301 339.32 357.124 336.675C356.957 334.144 357.082 331.586 357.082 329.052C357.082 325.984 357.322 322.969 356.688 319.943C356.176 317.51 356.126 315.2 356.18 312.722C356.298 307.518 355.329 302.464 355.308 297.295C355.287 291.753 355.387 286.207 355.178 280.668C354.972 275.212 353.89 269.873 353.457 264.445C353.03 259.051 353.457 253.644 353.516 248.243C353.646 236.424 353.525 224.598 353.525 212.776L353.525 194.833C353.525 189.359 353.948 183.734 353.269 178.288C352.593 172.891 352.442 167.563 352.43 162.131C352.425 159.725 353.705 157.689 353.814 155.304C353.923 152.822 353.546 150.333 353.525 147.851C353.436 136.814 352.576 125.355 354.062 114.388C354.41 111.829 354.401 109.396 354.385 106.83C354.368 104.355 355.106 102.046 355.35 99.5948C355.878 94.2842 354.846 88.9217 355.513 83.6249C356.91 72.5744 355.304 61.6624 355.304 50.5946C355.304 44.9967 355.232 39.6168 355.945 34.0674C356.625 28.7845 356.076 23.6746 357.351 18.4194C358.106 15.3037 358.605 12.1256 357.586 9.02721C357.024 7.32048 357.301 5.76261 356.873 4.06972C356.634 3.11077 356.222 2.08257 356.143 1.15131C354.993 1.25517 353.722 1.10977 352.706 0.874359C351.364 0.562785 350.344 0.140429 348.901 0.164663C347.466 0.188896 346.04 0.233901 344.605 0.233901C338.509 0.240825 332.413 0.233901 326.316 0.230439C320.166 0.230439 314.132 0.282367 308.007 0.770499C305.036 1.00591 302.062 0.902052 299.116 1.32095C296.335 1.71561 293.612 1.66714 290.813 1.84716C288.095 2.02372 285.452 2.60532 282.72 2.7161C279.838 2.83035 276.956 2.65725 274.077 2.56724C268.212 2.38722 262.456 3.42926 256.586 3.34271C250.452 3.25616 244.318 3.2804 238.184 3.2804C232.382 3.2804 226.6 3.53312 220.802 3.56774C218.033 3.58505 215.335 3.36002 212.621 2.90304C209.738 2.41837 206.709 1.5979 203.751 1.67752C202.333 1.7156 200.957 1.87831 199.539 1.71906C198.36 1.58751 197.231 1.28286 196.065 1.09938C193.078 0.625093 189.856 0.915895 186.835 0.967824C183.99 1.01629 181.045 1.18593 178.213 0.953976C175.234 0.708179 172.385 0.126574 169.373 0.0434877C163.327 -0.119223 157.273 0.226969 151.227 0.226969C138.737 0.226969 126.146 -0.171154 113.672 0.337749C107.669 0.583546 101.702 0.988592 95.686 0.988592L76.8186 0.988591C64.127 0.98859 51.4312 0.967818 38.7396 0.988589C32.7735 0.998975 26.8494 1.69136 20.8875 1.74675C15.8192 1.79522 10.751 1.76752 5.68274 1.75714C5.74149 1.80214 5.80441 1.84022 5.86316 1.88869C7.25189 2.99651 5.17087 4.77248 3.78635 3.67158C3.84506 3.72005 4.36111 6.55191 4.41147 6.87387C4.53735 7.64242 4.49539 8.41097 4.47861 9.18298C4.42407 11.6479 4.96948 13.9051 5.34289 16.3353C6.0939 21.1786 7.00851 25.9976 6.37079 30.8928C5.7121 35.9368 3.45486 40.3542 3.64367 45.5437C3.84506 51.1243 1.96548 56.608 3.11505 62.1852C4.05066 66.7168 4.32757 71.3316 5.07858 75.9117C5.90509 80.9384 5.39743 86.2248 5.40161 91.2965C5.40161 93.9034 5.54428 96.5448 5.26739 99.1413C5.03662 101.298 4.4786 103.399 4.4031 105.567C4.24786 110.119 2.45635 114.592 2.61578 119.189C2.70388 121.786 2.578 124.348 2.57382 126.944C2.57382 129.454 3.30804 131.863 3.53042 134.353C3.75277 136.859 3.51782 139.345 3.11505 141.827C2.70809 144.326 2.8507 146.843 2.3934 149.332C1.35708 154.948 1.79763 160.577 1.85217 166.244C1.90252 171.319 2.68288 176.709 1.75985 181.743C1.2354 184.592 0.778129 187.178 0.96273 190.09C1.11794 192.527 1.80184 194.912 1.84798 197.356C1.94866 202.778 0.484396 208.036 0.0774443 213.409C-0.325327 218.713 0.975301 223.885 0.97109 229.161C0.97109 234.517 1.73049 239.703 1.97384 245.024C2.22557 250.487 1.86055 255.956 1.85216 261.419C1.82701 272.802 2.44374 284.185 2.06194 295.571C1.88573 300.816 0.5096 306.085 1.12215 311.323C1.75987 316.776 1.27739 322.36 2.30531 327.753C2.7668 330.173 3.48842 332.562 3.59331 335.02C3.6982 337.468 3.50523 339.849 3.84926 342.297C4.63383 347.878 5.56105 353.109 5.45198 358.762C5.35548 363.778 5.90507 368.756 4.77226 373.697C3.56395 378.973 4.52894 385.076 4.52894 390.442C4.53734 401.821 2.18779 413.215 4.14714 424.594C5.02821 429.711 4.87715 434.668 4.59187 439.823C4.44081 442.575 4.24784 445.372 4.57508 448.121C4.87718 450.659 5.57365 453.037 5.36805 455.609C5.15827 458.261 4.4492 460.865 4.5373 463.537C4.61283 465.839 5.24638 468.093 5.42259 470.388C5.84214 475.848 5.40159 481.425 5.40159 486.898C5.40159 492.372 5.40159 498.042 5.40159 503.613C5.40159 506.417 5.56104 509.238 5.49812 512.042C5.45197 514.061 4.53312 515.871 4.35691 517.869C3.89118 523.273 4.50797 528.905 4.50797 534.33L4.50797 656.08L119.995 656.08C131.68 656.08 143.385 655.92 155.066 656.163C160.545 656.277 166.029 656.457 171.508 656.381C174.445 656.339 177.382 656.228 180.306 655.983C182.933 655.764 185.522 655.29 188.148 655.117C193.485 654.764 198.889 655.314 204.238 655.314L222.233 655.314C228.086 655.314 233.938 655.314 239.791 655.314C245.615 655.314 251.476 655.017 257.266 655.678C259.98 655.989 262.619 656.332 265.367 656.353C268.015 656.37 270.654 656.242 273.297 656.156C279.104 655.965 284.931 656.083 290.742 656.08C293.536 656.08 296.335 656.028 299.125 656.149C300.526 656.208 301.793 656.242 303.153 655.896C304.302 655.605 305.33 655.304 306.534 655.224C309.446 655.034 312.4 655.342 315.32 655.297C318.156 655.256 320.988 655.141 323.824 655.121C326.472 655.103 329.178 655.096 331.792 655.488C333.08 655.681 334.326 655.993 335.635 656.069L335.66 656.086ZM120.855 637.929C118.38 637.897 115.976 637.531 113.538 637.24C111.184 636.959 108.831 637.011 106.46 637.07C101.191 637.209 95.9042 637.125 90.6303 637.125C68.9435 637.125 47.2566 637.125 25.5697 637.125C24.9236 638.292 22.2678 638.119 22.3055 636.599C22.4188 632.009 23.3376 627.501 23.3376 622.897C23.3377 613.21 23.3377 603.524 23.3377 593.837C23.3377 584.151 22.9181 575.088 23.1614 565.744C23.2747 561.364 24.3656 557.127 24.353 552.717C24.3404 547.97 24.3488 543.224 24.353 538.481C24.3698 528.94 24.0299 519.357 24.5544 509.827C24.8061 505.219 24.525 500.912 23.7782 496.336C23.0733 492.043 23.3335 487.681 23.3335 483.364L23.3335 454.145C23.3335 434.457 23.2831 414.766 23.3377 395.078C23.3628 385.606 24.7054 376.272 24.3488 366.78C24.2607 364.415 23.6146 362.103 23.3418 359.749C23.0943 357.599 23.3251 355.452 23.2034 353.302C22.9349 348.681 22.5405 343.91 21.6553 339.34C20.7994 334.916 21.2692 330.253 21.2692 325.787C21.2692 321.321 21.2567 316.426 21.2525 311.745C21.2525 307.075 19.9644 302.561 20.1197 297.88C20.2665 293.425 21.4371 289.156 21.2735 284.666C21.1182 280.273 20.9504 275.998 21.8105 271.646C22.7083 267.1 22.2552 262.416 22.4105 257.826C22.5573 253.412 21.2651 249.112 21.2776 244.681C21.2902 239.969 21.349 235.247 21.2609 230.535C21.177 226.09 20.5644 221.621 21.135 217.183C21.3825 215.251 22.0622 213.361 22.2594 211.429C22.4902 209.161 22.2972 206.818 22.2972 204.543C22.3097 194.708 22.2972 184.869 22.2972 175.034C22.2972 170.27 22.3056 165.503 22.3056 160.739C22.3056 156.235 23.7069 151.808 23.4467 147.318C23.1866 142.879 22.2972 138.597 22.2972 134.124C22.2972 129.523 22.3056 124.922 22.2972 120.321C22.2888 115.648 22.8006 110.798 21.693 106.197C20.6987 102.06 21.2693 97.7842 21.2525 93.5918C21.2441 91.1615 21.286 88.7278 21.2567 86.294C21.2357 84.3623 20.5476 82.5863 20.212 80.6857C19.4987 76.663 20.4008 72.5709 21.328 68.6174C21.3574 68.4997 21.3993 68.3959 21.4539 68.3024C21.5 66.6857 21.2861 65.0966 21.2357 63.4626C21.1812 61.5378 21.2399 59.5922 21.3784 57.6708C21.6427 53.9769 22.8762 50.6223 23.9418 47.0461C24.4998 45.1767 24.6677 43.4284 24.0551 41.5555C23.4845 39.8142 23.3502 38.232 23.3419 36.4318C23.3293 32.4541 23.3293 28.4729 23.3293 24.4951C23.3293 24.3185 23.3712 24.1628 23.4384 24.0243C23.2286 23.2696 23.7572 22.3591 25.0369 22.3522C30.9107 22.3106 36.8054 21.7359 42.675 21.5213C45.2931 21.4244 47.8398 20.912 50.4453 20.7354C51.8298 20.642 53.1472 20.8185 54.5275 20.822C55.7946 20.8255 56.8477 20.5727 58.0476 20.2923C63.2543 19.0668 69.2288 19.7523 74.5781 19.8838C77.3388 19.9496 80.0995 19.9046 82.856 20.0985C85.667 20.2958 88.3816 20.7562 91.222 20.6835C96.4245 20.552 101.426 21.5421 106.62 21.5455C111.868 21.5455 117.121 21.5455 122.37 21.5455C127.618 21.5455 133.232 21.5455 138.665 21.5455C144.153 21.5455 149.687 21.3759 155.154 21.7948C160.071 22.1722 164.825 22.3972 169.767 22.2345C174.928 22.0648 179.912 22.0406 184.976 22.9338C187.724 23.4185 190.405 23.9377 193.237 23.9931C195.838 24.0451 198.444 23.9724 201.045 23.9758C206.369 23.9758 211.693 23.9793 217.018 23.9758C219.644 23.9758 222.065 23.8235 224.654 23.4946C226.999 23.1969 229.378 23.3804 231.731 23.1727C234.253 22.9476 236.749 22.5599 239.284 22.4214C241.62 22.2933 243.983 22.3591 246.328 22.3591C251.958 22.3591 257.589 22.366 263.223 22.3591C265.938 22.3556 268.724 22.4837 271.43 22.3453C273.503 22.2379 275.479 21.6286 277.539 21.4244C282.46 20.9363 287.583 21.5663 292.538 21.5421C298.013 21.5109 303.488 21.4244 308.963 21.4486C311.712 21.459 314.56 21.3725 317.292 21.6459C319.469 21.8641 321.491 22.3833 323.711 22.4249C326.333 22.4734 328.611 22.1341 331.158 21.7429C333.646 21.3586 336.243 21.5421 338.76 21.5559C340.703 21.5663 340.921 23.6504 339.432 24.1282L339.432 38.6163C339.432 43.0995 339.73 47.5412 338.693 51.9552C337.527 56.9161 338.379 62.0848 338.404 67.1011C338.429 72.2836 338.563 77.4661 338.572 82.6486C338.576 85.432 338.588 88.2258 338.446 91.0092C338.328 93.3356 337.598 95.5686 337.388 97.8811C336.935 102.832 337.506 107.869 337.317 112.833C337.212 115.534 337.795 117.881 338.274 120.512C338.693 122.831 338.559 125.268 338.572 127.609C338.584 130.33 338.656 133.089 338.332 135.8C338.047 138.206 337.409 140.549 337.38 142.976C337.33 147.688 337.56 152.358 336.717 157.035C335.761 162.332 336.302 167.836 336.247 173.182C336.197 178.181 337.539 183.024 337.64 187.981C337.737 192.586 336.306 197.072 336.092 201.656C335.861 206.662 336.34 211.692 336.34 216.702C336.34 227.312 336.751 237.982 336.293 248.589C336.184 251.134 336.054 253.447 336.952 255.915C337.598 257.691 337.477 259.377 337.401 261.205C337.2 266.193 338.567 271.095 338.458 276.094C338.228 286.563 338.244 297.06 338.278 307.529C338.295 312.607 339.482 317.555 339.725 322.606C339.96 327.497 339.436 332.403 339.436 337.298C339.436 348.03 339.478 358.762 339.453 369.494C339.44 374.438 340.422 379.263 340.539 384.19C340.602 386.776 340.619 389.369 340.506 391.951C340.405 394.202 339.696 396.365 339.486 398.602C339 403.829 339.436 409.209 339.436 414.454L339.436 462.412C339.436 467.543 339.453 472.67 339.444 477.8C339.436 482.644 340.514 487.442 340.732 492.292C340.946 497.073 339.537 501.605 339.407 506.358C339.268 511.257 339.633 516.138 339.809 521.03C339.99 525.973 338.488 530.65 338.274 535.559C338.043 540.749 338.416 545.959 338.4 551.152C338.379 556.414 338.819 561.766 338.014 566.997C337.33 571.435 337.539 575.898 336.738 580.325C335.815 585.418 336.268 590.365 336.34 595.482C336.415 600.661 336.344 605.843 336.352 611.022C336.352 613.425 337.011 615.637 337.43 617.991C337.787 619.996 337.456 621.986 337.393 623.994C337.258 628.121 338.244 632.279 339.381 636.257C339.86 637.936 336.574 638.645 336.092 636.966C336.029 636.748 335.97 636.53 335.907 636.312C335.832 636.319 335.756 636.329 335.672 636.329C332.492 636.329 329.299 636.398 326.119 636.322C324.936 636.295 323.757 636.167 322.574 636.139C321.366 636.115 320.866 636.447 319.813 636.772C317.552 637.475 314.72 637.115 312.328 637.195C309.677 637.281 307.096 637.326 304.483 636.907C301.844 636.488 299.398 636.454 296.729 636.277C294.132 636.108 291.632 635.367 289.022 635.374C286.492 635.377 284.08 635.692 281.575 635.263C280.249 635.034 278.986 634.64 277.614 634.612C276.335 634.584 275.101 634.754 273.821 634.598C272.563 634.442 271.367 634.065 270.108 633.916C268.946 633.781 267.755 633.809 266.584 633.816C264.079 633.837 261.575 633.902 259.07 633.902C253.762 633.902 248.396 634.079 243.097 633.844C241.864 633.788 240.626 633.698 239.388 633.74C238.277 633.778 237.467 634.082 236.443 634.335C234.161 634.896 231.761 634.449 229.428 634.848C224.842 635.626 220.382 635.453 215.713 635.495C210.473 635.543 205.459 636.758 200.256 637.087C195.037 637.416 189.709 637.202 184.481 637.101C178.897 636.997 173.308 636.852 167.724 636.897C164.984 636.921 162.211 636.932 159.484 637.136C157.369 637.295 155.297 637.683 153.182 637.849C147.841 638.268 142.269 637.946 136.903 637.936C131.558 637.929 126.205 638.005 120.859 637.936L120.855 637.929Z"/>
</mask>
<path d="M335.66 656.086C336.872 656.159 338.009 656.18 339.205 656.391C344.701 657.357 350.575 656.893 356.193 656.858C356.193 651.804 356.214 646.75 356.268 641.695C356.298 638.908 355.794 636.277 355.459 633.522C355.136 630.894 355.312 628.211 355.312 625.57C355.312 620.851 354.582 615.866 355.987 611.299C356.822 608.589 356.218 605.691 356.197 602.925C356.172 600.149 356.197 597.372 356.197 594.596C356.197 589.313 355.975 583.971 356.81 578.723C357.267 575.849 358.131 573.111 358.224 570.193C358.299 567.818 358.127 565.443 358.035 563.068C357.817 557.418 357.98 551.751 357.972 546.097C357.963 541.168 357.137 536.144 358.005 531.242C359.029 525.457 358.861 519.797 358.861 513.957C358.861 508.421 358.861 502.882 358.874 497.346C358.882 494.279 358.639 491.125 358.975 488.072C359.226 485.787 360.049 483.616 360.489 481.363C361.551 475.945 360.628 469.824 360.632 464.334C360.636 458.663 359.667 453.165 359.105 447.533C357.934 435.818 358.861 423.729 358.857 411.968C358.857 400.333 358.857 388.694 358.857 377.058C358.857 371.488 359.222 365.81 358.66 360.257C358.396 357.675 357.867 355.12 357.783 352.527C357.695 349.868 358.018 347.22 357.993 344.565C357.968 341.909 357.301 339.32 357.124 336.675C356.957 334.144 357.082 331.586 357.082 329.052C357.082 325.984 357.322 322.969 356.688 319.943C356.176 317.51 356.126 315.2 356.18 312.722C356.298 307.518 355.329 302.464 355.308 297.295C355.287 291.753 355.387 286.207 355.178 280.668C354.972 275.212 353.89 269.873 353.457 264.445C353.03 259.051 353.457 253.644 353.516 248.243C353.646 236.424 353.525 224.598 353.525 212.776L353.525 194.833C353.525 189.359 353.948 183.734 353.269 178.288C352.593 172.891 352.442 167.563 352.43 162.131C352.425 159.725 353.705 157.689 353.814 155.304C353.923 152.822 353.546 150.333 353.525 147.851C353.436 136.814 352.576 125.355 354.062 114.388C354.41 111.829 354.401 109.396 354.385 106.83C354.368 104.355 355.106 102.046 355.35 99.5948C355.878 94.2842 354.846 88.9217 355.513 83.6249C356.91 72.5744 355.304 61.6624 355.304 50.5946C355.304 44.9967 355.232 39.6168 355.945 34.0674C356.625 28.7845 356.076 23.6746 357.351 18.4194C358.106 15.3037 358.605 12.1256 357.586 9.02721C357.024 7.32048 357.301 5.76261 356.873 4.06972C356.634 3.11077 356.222 2.08257 356.143 1.15131C354.993 1.25517 353.722 1.10977 352.706 0.874359C351.364 0.562785 350.344 0.140429 348.901 0.164663C347.466 0.188896 346.04 0.233901 344.605 0.233901C338.509 0.240825 332.413 0.233901 326.316 0.230439C320.166 0.230439 314.132 0.282367 308.007 0.770499C305.036 1.00591 302.062 0.902052 299.116 1.32095C296.335 1.71561 293.612 1.66714 290.813 1.84716C288.095 2.02372 285.452 2.60532 282.72 2.7161C279.838 2.83035 276.956 2.65725 274.077 2.56724C268.212 2.38722 262.456 3.42926 256.586 3.34271C250.452 3.25616 244.318 3.2804 238.184 3.2804C232.382 3.2804 226.6 3.53312 220.802 3.56774C218.033 3.58505 215.335 3.36002 212.621 2.90304C209.738 2.41837 206.709 1.5979 203.751 1.67752C202.333 1.7156 200.957 1.87831 199.539 1.71906C198.36 1.58751 197.231 1.28286 196.065 1.09938C193.078 0.625093 189.856 0.915895 186.835 0.967824C183.99 1.01629 181.045 1.18593 178.213 0.953976C175.234 0.708179 172.385 0.126574 169.373 0.0434877C163.327 -0.119223 157.273 0.226969 151.227 0.226969C138.737 0.226969 126.146 -0.171154 113.672 0.337749C107.669 0.583546 101.702 0.988592 95.686 0.988592L76.8186 0.988591C64.127 0.98859 51.4312 0.967818 38.7396 0.988589C32.7735 0.998975 26.8494 1.69136 20.8875 1.74675C15.8192 1.79522 10.751 1.76752 5.68274 1.75714C5.74149 1.80214 5.80441 1.84022 5.86316 1.88869C7.25189 2.99651 5.17087 4.77248 3.78635 3.67158C3.84506 3.72005 4.36111 6.55191 4.41147 6.87387C4.53735 7.64242 4.49539 8.41097 4.47861 9.18298C4.42407 11.6479 4.96948 13.9051 5.34289 16.3353C6.0939 21.1786 7.00851 25.9976 6.37079 30.8928C5.7121 35.9368 3.45486 40.3542 3.64367 45.5437C3.84506 51.1243 1.96548 56.608 3.11505 62.1852C4.05066 66.7168 4.32757 71.3316 5.07858 75.9117C5.90509 80.9384 5.39743 86.2248 5.40161 91.2965C5.40161 93.9034 5.54428 96.5448 5.26739 99.1413C5.03662 101.298 4.4786 103.399 4.4031 105.567C4.24786 110.119 2.45635 114.592 2.61578 119.189C2.70388 121.786 2.578 124.348 2.57382 126.944C2.57382 129.454 3.30804 131.863 3.53042 134.353C3.75277 136.859 3.51782 139.345 3.11505 141.827C2.70809 144.326 2.8507 146.843 2.3934 149.332C1.35708 154.948 1.79763 160.577 1.85217 166.244C1.90252 171.319 2.68288 176.709 1.75985 181.743C1.2354 184.592 0.778129 187.178 0.96273 190.09C1.11794 192.527 1.80184 194.912 1.84798 197.356C1.94866 202.778 0.484396 208.036 0.0774443 213.409C-0.325327 218.713 0.975301 223.885 0.97109 229.161C0.97109 234.517 1.73049 239.703 1.97384 245.024C2.22557 250.487 1.86055 255.956 1.85216 261.419C1.82701 272.802 2.44374 284.185 2.06194 295.571C1.88573 300.816 0.5096 306.085 1.12215 311.323C1.75987 316.776 1.27739 322.36 2.30531 327.753C2.7668 330.173 3.48842 332.562 3.59331 335.02C3.6982 337.468 3.50523 339.849 3.84926 342.297C4.63383 347.878 5.56105 353.109 5.45198 358.762C5.35548 363.778 5.90507 368.756 4.77226 373.697C3.56395 378.973 4.52894 385.076 4.52894 390.442C4.53734 401.821 2.18779 413.215 4.14714 424.594C5.02821 429.711 4.87715 434.668 4.59187 439.823C4.44081 442.575 4.24784 445.372 4.57508 448.121C4.87718 450.659 5.57365 453.037 5.36805 455.609C5.15827 458.261 4.4492 460.865 4.5373 463.537C4.61283 465.839 5.24638 468.093 5.42259 470.388C5.84214 475.848 5.40159 481.425 5.40159 486.898C5.40159 492.372 5.40159 498.042 5.40159 503.613C5.40159 506.417 5.56104 509.238 5.49812 512.042C5.45197 514.061 4.53312 515.871 4.35691 517.869C3.89118 523.273 4.50797 528.905 4.50797 534.33L4.50797 656.08L119.995 656.08C131.68 656.08 143.385 655.92 155.066 656.163C160.545 656.277 166.029 656.457 171.508 656.381C174.445 656.339 177.382 656.228 180.306 655.983C182.933 655.764 185.522 655.29 188.148 655.117C193.485 654.764 198.889 655.314 204.238 655.314L222.233 655.314C228.086 655.314 233.938 655.314 239.791 655.314C245.615 655.314 251.476 655.017 257.266 655.678C259.98 655.989 262.619 656.332 265.367 656.353C268.015 656.37 270.654 656.242 273.297 656.156C279.104 655.965 284.931 656.083 290.742 656.08C293.536 656.08 296.335 656.028 299.125 656.149C300.526 656.208 301.793 656.242 303.153 655.896C304.302 655.605 305.33 655.304 306.534 655.224C309.446 655.034 312.4 655.342 315.32 655.297C318.156 655.256 320.988 655.141 323.824 655.121C326.472 655.103 329.178 655.096 331.792 655.488C333.08 655.681 334.326 655.993 335.635 656.069L335.66 656.086ZM120.855 637.929C118.38 637.897 115.976 637.531 113.538 637.24C111.184 636.959 108.831 637.011 106.46 637.07C101.191 637.209 95.9042 637.125 90.6303 637.125C68.9435 637.125 47.2566 637.125 25.5697 637.125C24.9236 638.292 22.2678 638.119 22.3055 636.599C22.4188 632.009 23.3376 627.501 23.3376 622.897C23.3377 613.21 23.3377 603.524 23.3377 593.837C23.3377 584.151 22.9181 575.088 23.1614 565.744C23.2747 561.364 24.3656 557.127 24.353 552.717C24.3404 547.97 24.3488 543.224 24.353 538.481C24.3698 528.94 24.0299 519.357 24.5544 509.827C24.8061 505.219 24.525 500.912 23.7782 496.336C23.0733 492.043 23.3335 487.681 23.3335 483.364L23.3335 454.145C23.3335 434.457 23.2831 414.766 23.3377 395.078C23.3628 385.606 24.7054 376.272 24.3488 366.78C24.2607 364.415 23.6146 362.103 23.3418 359.749C23.0943 357.599 23.3251 355.452 23.2034 353.302C22.9349 348.681 22.5405 343.91 21.6553 339.34C20.7994 334.916 21.2692 330.253 21.2692 325.787C21.2692 321.321 21.2567 316.426 21.2525 311.745C21.2525 307.075 19.9644 302.561 20.1197 297.88C20.2665 293.425 21.4371 289.156 21.2735 284.666C21.1182 280.273 20.9504 275.998 21.8105 271.646C22.7083 267.1 22.2552 262.416 22.4105 257.826C22.5573 253.412 21.2651 249.112 21.2776 244.681C21.2902 239.969 21.349 235.247 21.2609 230.535C21.177 226.09 20.5644 221.621 21.135 217.183C21.3825 215.251 22.0622 213.361 22.2594 211.429C22.4902 209.161 22.2972 206.818 22.2972 204.543C22.3097 194.708 22.2972 184.869 22.2972 175.034C22.2972 170.27 22.3056 165.503 22.3056 160.739C22.3056 156.235 23.7069 151.808 23.4467 147.318C23.1866 142.879 22.2972 138.597 22.2972 134.124C22.2972 129.523 22.3056 124.922 22.2972 120.321C22.2888 115.648 22.8006 110.798 21.693 106.197C20.6987 102.06 21.2693 97.7842 21.2525 93.5918C21.2441 91.1615 21.286 88.7278 21.2567 86.294C21.2357 84.3623 20.5476 82.5863 20.212 80.6857C19.4987 76.663 20.4008 72.5709 21.328 68.6174C21.3574 68.4997 21.3993 68.3959 21.4539 68.3024C21.5 66.6857 21.2861 65.0966 21.2357 63.4626C21.1812 61.5378 21.2399 59.5922 21.3784 57.6708C21.6427 53.9769 22.8762 50.6223 23.9418 47.0461C24.4998 45.1767 24.6677 43.4284 24.0551 41.5555C23.4845 39.8142 23.3502 38.232 23.3419 36.4318C23.3293 32.4541 23.3293 28.4729 23.3293 24.4951C23.3293 24.3185 23.3712 24.1628 23.4384 24.0243C23.2286 23.2696 23.7572 22.3591 25.0369 22.3522C30.9107 22.3106 36.8054 21.7359 42.675 21.5213C45.2931 21.4244 47.8398 20.912 50.4453 20.7354C51.8298 20.642 53.1472 20.8185 54.5275 20.822C55.7946 20.8255 56.8477 20.5727 58.0476 20.2923C63.2543 19.0668 69.2288 19.7523 74.5781 19.8838C77.3388 19.9496 80.0995 19.9046 82.856 20.0985C85.667 20.2958 88.3816 20.7562 91.222 20.6835C96.4245 20.552 101.426 21.5421 106.62 21.5455C111.868 21.5455 117.121 21.5455 122.37 21.5455C127.618 21.5455 133.232 21.5455 138.665 21.5455C144.153 21.5455 149.687 21.3759 155.154 21.7948C160.071 22.1722 164.825 22.3972 169.767 22.2345C174.928 22.0648 179.912 22.0406 184.976 22.9338C187.724 23.4185 190.405 23.9377 193.237 23.9931C195.838 24.0451 198.444 23.9724 201.045 23.9758C206.369 23.9758 211.693 23.9793 217.018 23.9758C219.644 23.9758 222.065 23.8235 224.654 23.4946C226.999 23.1969 229.378 23.3804 231.731 23.1727C234.253 22.9476 236.749 22.5599 239.284 22.4214C241.62 22.2933 243.983 22.3591 246.328 22.3591C251.958 22.3591 257.589 22.366 263.223 22.3591C265.938 22.3556 268.724 22.4837 271.43 22.3453C273.503 22.2379 275.479 21.6286 277.539 21.4244C282.46 20.9363 287.583 21.5663 292.538 21.5421C298.013 21.5109 303.488 21.4244 308.963 21.4486C311.712 21.459 314.56 21.3725 317.292 21.6459C319.469 21.8641 321.491 22.3833 323.711 22.4249C326.333 22.4734 328.611 22.1341 331.158 21.7429C333.646 21.3586 336.243 21.5421 338.76 21.5559C340.703 21.5663 340.921 23.6504 339.432 24.1282L339.432 38.6163C339.432 43.0995 339.73 47.5412 338.693 51.9552C337.527 56.9161 338.379 62.0848 338.404 67.1011C338.429 72.2836 338.563 77.4661 338.572 82.6486C338.576 85.432 338.588 88.2258 338.446 91.0092C338.328 93.3356 337.598 95.5686 337.388 97.8811C336.935 102.832 337.506 107.869 337.317 112.833C337.212 115.534 337.795 117.881 338.274 120.512C338.693 122.831 338.559 125.268 338.572 127.609C338.584 130.33 338.656 133.089 338.332 135.8C338.047 138.206 337.409 140.549 337.38 142.976C337.33 147.688 337.56 152.358 336.717 157.035C335.761 162.332 336.302 167.836 336.247 173.182C336.197 178.181 337.539 183.024 337.64 187.981C337.737 192.586 336.306 197.072 336.092 201.656C335.861 206.662 336.34 211.692 336.34 216.702C336.34 227.312 336.751 237.982 336.293 248.589C336.184 251.134 336.054 253.447 336.952 255.915C337.598 257.691 337.477 259.377 337.401 261.205C337.2 266.193 338.567 271.095 338.458 276.094C338.228 286.563 338.244 297.06 338.278 307.529C338.295 312.607 339.482 317.555 339.725 322.606C339.96 327.497 339.436 332.403 339.436 337.298C339.436 348.03 339.478 358.762 339.453 369.494C339.44 374.438 340.422 379.263 340.539 384.19C340.602 386.776 340.619 389.369 340.506 391.951C340.405 394.202 339.696 396.365 339.486 398.602C339 403.829 339.436 409.209 339.436 414.454L339.436 462.412C339.436 467.543 339.453 472.67 339.444 477.8C339.436 482.644 340.514 487.442 340.732 492.292C340.946 497.073 339.537 501.605 339.407 506.358C339.268 511.257 339.633 516.138 339.809 521.03C339.99 525.973 338.488 530.65 338.274 535.559C338.043 540.749 338.416 545.959 338.4 551.152C338.379 556.414 338.819 561.766 338.014 566.997C337.33 571.435 337.539 575.898 336.738 580.325C335.815 585.418 336.268 590.365 336.34 595.482C336.415 600.661 336.344 605.843 336.352 611.022C336.352 613.425 337.011 615.637 337.43 617.991C337.787 619.996 337.456 621.986 337.393 623.994C337.258 628.121 338.244 632.279 339.381 636.257C339.86 637.936 336.574 638.645 336.092 636.966C336.029 636.748 335.97 636.53 335.907 636.312C335.832 636.319 335.756 636.329 335.672 636.329C332.492 636.329 329.299 636.398 326.119 636.322C324.936 636.295 323.757 636.167 322.574 636.139C321.366 636.115 320.866 636.447 319.813 636.772C317.552 637.475 314.72 637.115 312.328 637.195C309.677 637.281 307.096 637.326 304.483 636.907C301.844 636.488 299.398 636.454 296.729 636.277C294.132 636.108 291.632 635.367 289.022 635.374C286.492 635.377 284.08 635.692 281.575 635.263C280.249 635.034 278.986 634.64 277.614 634.612C276.335 634.584 275.101 634.754 273.821 634.598C272.563 634.442 271.367 634.065 270.108 633.916C268.946 633.781 267.755 633.809 266.584 633.816C264.079 633.837 261.575 633.902 259.07 633.902C253.762 633.902 248.396 634.079 243.097 633.844C241.864 633.788 240.626 633.698 239.388 633.74C238.277 633.778 237.467 634.082 236.443 634.335C234.161 634.896 231.761 634.449 229.428 634.848C224.842 635.626 220.382 635.453 215.713 635.495C210.473 635.543 205.459 636.758 200.256 637.087C195.037 637.416 189.709 637.202 184.481 637.101C178.897 636.997 173.308 636.852 167.724 636.897C164.984 636.921 162.211 636.932 159.484 637.136C157.369 637.295 155.297 637.683 153.182 637.849C147.841 638.268 142.269 637.946 136.903 637.936C131.558 637.929 126.205 638.005 120.859 637.936L120.855 637.929Z" fill="#EFD392" stroke="#313131" stroke-width="6" mask="url(#path-2-inside-1_1662_951)"/>
</svg>
