<svg width="64" height="32" viewBox="0 0 64 32" fill="none" xmlns="http://www.w3.org/2000/svg">
<path d="M30.841 1.96194C33.6061 1.8294 36.2277 1.00002 39.011 1.00002C41.2108 1.00002 42.5734 1.48775 44.7705 1.48775C48.4014 1.48775 51.88 2.00488 55.2442 3.98063L55.2584 3.98894C57.1032 5.07232 59.8288 6.67302 60.7158 9.19671C61.6656 11.8993 62.7388 16.0079 62.5396 19.0192C62.463 20.1766 61.8634 22.2369 61.2704 23.1785C59.9559 25.2657 57.2446 26.6805 55.3189 27.5817C52.704 28.8054 49.4512 29.1977 46.6903 29.2888C44.7292 29.3535 42.8079 29.9936 40.8455 30.0204C39.1179 30.044 37.3894 29.9876 35.6619 30.0204C33.8384 30.055 32.0811 30.7298 30.265 30.752C28.4522 30.7741 26.6384 30.752 24.8255 30.752C20.483 30.752 15.8856 30.0465 11.6 29.1804C9.67145 28.7907 8.04044 28.4963 6.38441 27.094C5.04171 25.9569 3.36066 25.106 2.36342 23.4495C1.31435 21.7069 0.935234 20.1124 1.00887 17.8676C1.0678 16.0709 1.34024 13.6251 1.96879 12.0283C3.08793 9.18508 5.79515 6.50181 7.95228 4.95611C10.3935 3.20684 13.3972 2.20215 16.1649 1.78581C18.3067 1.46363 20.4942 1.94194 22.639 1.60969C25.4266 1.17786 28.068 2.09486 30.841 1.96194Z" fill="#575757" stroke="#313131" stroke-linecap="round"/>
</svg>
