<svg width="272" height="117" viewBox="0 0 272 117" fill="none" xmlns="http://www.w3.org/2000/svg">
<path d="M2.8758 24.7572C4.72802 8.21264 15.0637 3.5433 25.2054 1.0008C33.2259 1.00069 33.486 1.71998 38.6177 2.23261C43.8844 2.75873 49.4183 1.6343 54.7271 1.6343C61.3743 1.6343 67.9821 2.26781 74.6269 2.26781C94.8196 2.26781 115.044 3.53812 135.225 2.86611C140.555 2.68864 145.939 2.43978 151.262 1.98625C158.902 1.33528 166.318 1.6343 173.932 1.6343C186.372 1.6343 198.615 0.570318 211.034 2.12703C215.257 2.65633 219.331 1.27412 223.523 1.03599C227.321 0.820247 231.166 1.62398 234.943 2.12703C240.727 2.89744 246.584 2.29158 252.34 3.21806C256.618 3.90658 262.665 6.15739 265.315 11.4888C267.994 16.8787 267.75 24.6209 268.474 30.9162C269.36 38.6183 268.272 45.9707 268.911 53.5816C269.632 62.1648 271.701 70.3819 270.758 79.1681C270.224 84.1376 269.679 87.7231 270.369 92.718C270.868 96.3282 270.176 99.7111 268.595 102.573C267.132 105.221 264.307 109.306 261.962 110.597C259.356 112.031 256.235 111.933 253.507 112.849C248.374 114.573 242.885 114.486 237.638 114.403L237.324 114.398C229.896 114.281 223.523 114.046 216.296 115.172C210.748 113.538 202.76 115.634 197.098 115.172C189.004 114.513 178.372 113.86 170.357 115.172C158.035 117.19 148.967 114.863 136.537 115.031C130.581 115.112 124.627 114.398 118.654 114.398C112.705 114.398 106.466 115.265 100.577 114.046C87.2777 111.294 73.129 112.877 59.7567 114.046C51.044 114.808 42.3306 116.389 33.6124 115.172C27.1112 114.265 20.2144 117.833 14.0284 113.272C12.412 112.08 11.0703 109.692 9.89783 107.711C8.74449 105.762 7.27364 104.426 6.20458 102.361C3.38907 96.9238 3.47436 90.0491 2.9001 83.6026C2.25994 76.4164 1.74591 69.1721 1.24785 61.9579C0.754033 54.8051 1.15066 47.3929 1.15066 40.2076C1.15066 34.7933 2.28683 30.018 2.8758 24.7572Z" fill="#F2EFE8" stroke="#313131" stroke-linecap="round"/>
</svg>
