<svg width="285" height="94" viewBox="0 0 285 94" fill="none" xmlns="http://www.w3.org/2000/svg">
<path d="M2.96611 20.0057C4.90752 6.77011 15.7408 3.03464 26.3708 1.00064C34.7775 1.00055 35.0502 1.57599 40.4289 1.98609C45.9493 2.40699 51.7495 1.50744 57.3139 1.50744C64.2812 1.50744 71.2072 2.01424 78.1719 2.01424C99.3368 2.01424 120.535 3.0305 141.688 2.49289C147.275 2.35091 152.918 2.15182 158.497 1.789C166.505 1.26822 174.278 1.50744 182.258 1.50744C195.297 1.50744 208.13 0.656254 221.147 1.90162C225.573 2.32507 229.843 1.2193 234.237 1.0288C238.218 0.856198 242.248 1.49918 246.207 1.90162C252.27 2.51795 258.408 2.03326 264.442 2.77445C268.926 3.32526 275.264 5.12591 278.042 9.39104C280.85 13.7029 280.593 19.8967 281.352 24.933C282.281 31.0947 281.141 36.9766 281.811 43.0653C282.566 49.9318 284.735 56.5055 283.746 63.5345C283.187 67.5101 282.616 70.3785 283.339 74.3744C283.861 77.2626 283.136 79.9689 281.48 82.258C279.946 84.3771 276.984 87.6451 274.527 88.6775C271.795 89.8251 268.524 89.7464 265.664 90.4795C260.284 91.8587 254.531 91.789 249.032 91.7223L248.703 91.7183C240.917 91.6248 234.237 91.4368 226.662 92.3378C220.847 91.0301 212.475 92.7068 206.54 92.3378C198.056 91.8102 186.912 91.2878 178.511 92.3378C165.596 93.9519 156.091 92.0905 143.063 92.2251C136.82 92.2896 130.579 91.7183 124.319 91.7183C118.084 91.7183 111.544 92.4116 105.371 91.4368C91.4318 89.2352 76.6018 90.5017 62.5857 91.4368C53.4535 92.046 44.3206 93.3115 35.1826 92.3378C28.3684 91.6116 21.1396 94.4666 14.6557 90.8173C12.9615 89.8638 11.5552 87.9538 10.3262 86.3687C9.11738 84.8095 7.5757 83.7408 6.45517 82.0891C3.5041 77.739 3.5935 72.2393 2.99158 67.0821C2.3206 61.3331 1.78182 55.5377 1.25979 49.7663C0.742191 44.044 1.15792 38.1143 1.15792 32.3661C1.15792 28.0346 2.34879 24.2144 2.96611 20.0057Z" fill="#F2EFE8" stroke="#313131" stroke-linecap="round"/>
</svg>
