<svg xmlns="http://www.w3.org/2000/svg" width="646" height="139" viewBox="0 0 646 139" fill="none">
  <path d="M76.5295 14.4225C58.4327 22.1194 42.1169 38.8377 38.0923 64.4539C37.3137 69.4099 37.1695 70.7085 37.0377 75.011C36.749 84.4356 31.6149 88.8755 26.6081 95.3602C21.1573 102.42 15.7491 109.233 10.5535 116.627L10.5475 116.636C9.46643 118.175 -2.25848 134.863 1.88171 132.999C8.2345 130.138 14.5145 128.914 21.1003 127.184C24.5705 126.273 35.3595 119.923 38.0923 125.042C42.4006 133.113 50.5552 135.088 57.6039 136.594C72.976 139.878 89.5454 136.441 105.006 135.982C138.399 134.991 171.733 134.682 205.142 134.682C259.616 134.682 314.033 135.577 368.5 136.747C420.614 137.866 472.662 136.224 524.768 136.059C544.324 135.996 563.893 135.628 583.361 132.999C599.331 130.842 617.423 130.04 632.345 121.676C651.771 110.789 644.434 76.7831 639.025 56.4979C636.151 45.721 631.564 36.627 626.017 27.8866C620.035 18.4597 614.278 15.879 604.924 13.8105C571.866 6.50092 537.136 8.05259 503.733 5.93094C449.496 2.48599 395.22 5.10195 340.961 3.17692C294.401 1.525 247.856 0.573584 201.275 1.1879C177.516 1.50122 153.842 3.10305 130.142 5.16593C112.042 6.7414 93.9548 7.01125 76.5295 14.4225Z" fill="#F2EFE8" stroke="black" stroke-linecap="round"/>
</svg>