<svg width="262" height="94" viewBox="0 0 262 94" fill="none" xmlns="http://www.w3.org/2000/svg">
<path d="M2.80632 20.0057C4.58994 6.77011 14.5428 3.03464 24.3089 1.00064C32.0323 1.00055 32.2828 1.57599 37.2245 1.98609C42.2961 2.40699 47.625 1.50744 52.7372 1.50744C59.1382 1.50744 65.5013 2.01424 71.9 2.01424C91.3448 2.01424 110.82 3.0305 130.254 2.49289C135.387 2.35091 140.571 2.15182 145.697 1.789C153.054 1.26822 160.195 1.50744 167.527 1.50744C179.506 1.50744 191.296 0.656254 203.255 1.90162C207.321 2.32507 211.245 1.2193 215.282 1.0288C218.939 0.856198 222.642 1.49918 226.279 1.90162C231.848 2.51795 237.488 2.03326 243.031 2.77445C247.151 3.32526 252.974 5.12591 255.526 9.39104C258.106 13.7029 257.87 19.8967 258.567 24.933C259.421 31.0947 258.373 36.9766 258.989 43.0653C259.683 49.9318 261.675 56.5055 260.767 63.5345C260.253 67.5101 259.728 70.3785 260.393 74.3744C260.873 77.2626 260.206 79.9689 258.684 82.258C257.276 84.3771 254.555 87.6451 252.297 88.6775C249.787 89.8251 246.782 89.7464 244.154 90.4795C239.212 91.8587 233.926 91.789 228.874 91.7223L228.572 91.7183C221.419 91.6248 215.282 91.4368 208.322 92.3378C202.979 91.0301 195.288 92.7068 189.835 92.3378C182.041 91.8102 171.803 91.2878 164.085 92.3378C152.219 93.9519 143.487 92.0905 131.518 92.2251C125.782 92.2896 120.048 91.7183 114.297 91.7183C108.568 91.7183 102.559 92.4116 96.8888 91.4368C84.0822 89.2352 70.4575 90.5017 57.5805 91.4368C49.1905 92.046 40.7998 93.3115 32.4045 92.3378C26.1441 91.6116 19.5028 94.4666 13.5459 90.8173C11.9893 89.8638 10.6973 87.9538 9.56828 86.3687C8.45766 84.8095 7.04128 83.7408 6.01182 82.0891C3.30059 77.739 3.38272 72.2393 2.82972 67.0821C2.21327 61.3331 1.71828 55.5377 1.23867 49.7663C0.763143 44.044 1.14508 38.1143 1.14508 32.3661C1.14508 28.0346 2.23917 24.2144 2.80632 20.0057Z" fill="#F2EFE8" stroke="#313131" stroke-linecap="round"/>
</svg>
