<svg width="286" height="70" viewBox="0 0 286 70" fill="none" xmlns="http://www.w3.org/2000/svg">
<path d="M2.97306 15.0477C4.92132 5.26487 15.7929 2.50386 26.4605 1.00047C34.8968 1.00041 35.1705 1.42573 40.5683 1.72885C46.1081 2.03995 51.9288 1.37507 57.5129 1.37507C64.5048 1.37507 71.4553 1.74966 78.4446 1.74966C99.6843 1.74966 120.957 2.5008 142.185 2.10344C147.792 1.9985 153.454 1.85135 159.053 1.58317C167.089 1.19825 174.89 1.37507 182.898 1.37507C195.984 1.37507 208.862 0.745927 221.925 1.66642C226.366 1.9794 230.652 1.16209 235.061 1.02128C239.057 0.893711 243.101 1.36896 247.073 1.66642C253.158 2.12197 259.318 1.76371 265.373 2.31155C269.873 2.71867 276.233 4.04959 279.02 7.20207C281.839 10.3891 281.581 14.9671 282.343 18.6896C283.275 23.2439 282.131 27.5914 282.803 32.0917C283.561 37.167 285.738 42.0258 284.745 47.2211C284.184 50.1596 283.611 52.2797 284.336 55.2333C284.861 57.368 284.133 59.3683 282.471 61.0603C280.932 62.6265 277.96 65.042 275.493 65.8051C272.752 66.6534 269.469 66.5952 266.599 67.137C261.2 68.1564 255.427 68.1049 249.908 68.0556L249.578 68.0527C241.765 67.9835 235.061 67.8446 227.46 68.5105C221.623 67.544 213.222 68.7833 207.266 68.5105C198.752 68.1206 187.569 67.7345 179.139 68.5105C166.178 69.7036 156.639 68.3278 143.565 68.4273C137.3 68.4749 131.037 68.0527 124.755 68.0527C118.497 68.0527 111.934 68.5651 105.74 67.8446C91.7514 66.2173 76.869 67.1534 62.8033 67.8446C53.6388 68.2949 44.4737 69.2302 35.3034 68.5105C28.4651 67.9738 21.2107 70.084 14.704 67.3867C13.0037 66.6819 11.5925 65.2702 10.3592 64.0986C9.14606 62.9462 7.59894 62.1562 6.47445 60.9354C3.51295 57.7201 3.60266 53.6551 2.99862 49.8433C2.32527 45.594 1.78459 41.3105 1.2607 37.0447C0.74128 32.8152 1.15847 28.4323 1.15847 24.1836C1.15847 20.9821 2.35356 18.1584 2.97306 15.0477Z" fill="#F2EFE8" stroke="#313131" stroke-linecap="round"/>
</svg>
