<svg width="62" height="62" viewBox="0 0 62 62" fill="none" xmlns="http://www.w3.org/2000/svg">
<path d="M18.0893 4.15525C21.0167 2.18049 23.9986 1.37368 27.507 1H33.6018C38.8025 1 43.839 2.3219 48.2009 5.15919C49.3987 5.93837 50.2807 7.08235 51.2561 8.10728C52.3292 9.23485 53.3152 10.0612 54.5633 11.0235C56.6248 12.6127 57.9661 15.5018 59.1305 17.7961C60.367 20.2328 60.6102 23.2568 60.9416 25.9392C61.159 27.699 60.7017 29.4373 60.6739 31.182C60.6473 32.851 60.7303 34.4718 60.4534 36.1221C59.8781 39.5498 58.88 43.7208 56.6422 46.4483C54.0447 49.6142 51.0994 53.6415 47.4922 55.6432C45.8128 56.575 44.614 57.8469 42.6888 58.3682C40.4084 58.9857 38.2594 59.9314 35.9483 60.4398C33.6047 60.9553 31.1618 61.2889 28.7827 60.647C26.2381 59.9604 23.5605 60.0911 21.0343 59.3721C18.3023 58.5946 15.6998 57.436 13.4591 55.6273C12.0237 54.4686 10.9508 52.9706 9.45895 51.8824C8.15159 50.9287 7.00411 50.0372 6.07297 48.6953C2.02262 42.8581 0.284889 34.9668 1.26961 27.8674C1.75707 24.3531 2.82032 20.7371 4.10438 17.4455C5.07896 14.9473 7.27351 13.2458 9.23847 11.5812C10.9577 10.1248 12.2207 8.13475 14.0261 6.80056C15.3187 5.8453 16.7555 5.05498 18.0893 4.15525Z" fill="#777E94" stroke="#394038" stroke-linecap="round"/>
<g clip-path="url(#clip0_1479_4413)">
<path d="M47.8216 31.3006C47.6327 30.8918 47.1312 30.7039 46.7651 30.5202L42.3127 28.2825C36.2215 25.2216 30.129 22.1593 24.0365 19.097C23.1768 18.6647 22.3183 18.2337 21.4586 17.8014C20.8359 17.4878 20.1195 16.9878 19.4017 17.0002C17.7734 17.0292 18.4091 19.0376 18.7269 19.9824C19.9254 23.553 21.6475 27.7949 22.8459 31.3656C22.8459 31.3656 22.8537 31.3918 22.855 31.3932C21.9979 34.4513 20.9271 37.7595 19.7013 40.6699C19.3678 41.46 19.0213 42.2445 18.6618 43.0222C18.3869 43.6148 17.9375 44.2943 18.0079 44.9877C18.0482 45.3897 18.271 45.7861 18.6383 45.9325C19.248 46.1784 19.9566 45.6867 20.5037 45.4463C26.5168 42.7957 32.4764 40.0055 38.3735 37.0772C39.8976 36.3202 41.4178 35.555 42.9327 34.7801C44.3657 34.048 45.852 33.367 47.2406 32.5465C47.4998 32.3932 47.7551 32.1971 47.8541 31.9125C48.0574 31.7716 48.0469 31.4015 47.8216 31.302V31.3006Z" fill="black"/>
<path d="M20.3381 22.3183C20.0945 21.5946 19.8523 20.8694 19.6087 20.1456C19.4354 19.629 18.8219 18.4729 19.2335 18.0212C19.5344 17.6911 19.89 17.9342 20.2444 18.1054C20.5583 18.2574 20.8696 18.419 21.181 18.5765L23.2899 19.6359L39.2226 27.6446C40.5891 28.3311 41.9569 29.0189 43.3234 29.7054C43.9486 30.019 44.5726 30.3339 45.1979 30.6475C45.392 30.7442 46.1215 31.0232 46.5865 31.3077C43.7988 31.3865 41.0086 31.4279 38.2196 31.4251C35.0646 31.4224 31.9096 31.3657 28.7559 31.258C27.0168 31.1986 25.2791 31.1226 23.5414 31.0315L20.3368 22.3197L20.3381 22.3183Z" fill="#FFECC3"/>
<path d="M45.2619 32.6582C44.5819 33.0118 43.9019 33.364 43.2193 33.7135C41.9323 34.3751 40.6414 35.0285 39.3478 35.6777C34.175 38.269 28.954 40.7539 23.69 43.1311C22.9084 43.4847 22.1255 43.8341 21.3413 44.1822C20.9531 44.3549 20.5649 44.5262 20.1767 44.6974C19.8902 44.8231 19.4642 45.116 19.1542 45.1394C18.4286 45.1933 18.951 44.2596 19.1177 43.9046C19.3001 43.5164 19.4785 43.1283 19.6557 42.7374C19.9722 42.0343 20.2784 41.3257 20.5728 40.6116C21.6058 38.1101 23.165 33.0574 23.5741 31.7217C26.6822 31.8847 29.7929 31.9979 32.9049 32.0587C36.0599 32.1209 39.215 32.1305 42.37 32.0877C43.7794 32.0684 45.1889 32.0366 46.5984 31.9966C46.4186 32.078 46.231 32.1526 46.1659 32.1858C45.8637 32.3433 45.5615 32.5007 45.2606 32.6582H45.2619Z" fill="#FFECC3"/>
</g>
<defs>
<clipPath id="clip0_1479_4413">
<rect width="30" height="29" fill="white" transform="translate(18 17)"/>
</clipPath>
</defs>
</svg>
