<svg width="76" height="30" viewBox="0 0 76 30" fill="none" xmlns="http://www.w3.org/2000/svg">
<path d="M36.8691 1.91402C40.1927 1.78808 43.344 1.00002 46.6894 1.00002C49.3337 1.00002 50.9715 1.46345 53.6124 1.46345C57.9768 1.46345 62.1581 1.95481 66.2019 3.83213L66.2189 3.84002C68.4363 4.86942 71.7126 6.39037 72.7788 8.78833C73.9204 11.3562 75.2105 15.2601 74.971 18.1214C74.879 19.2212 74.1582 21.1788 73.4454 22.0735C71.8654 24.0567 68.6064 25.401 66.2917 26.2573C63.1485 27.4201 59.2386 27.7928 55.92 27.8794C53.5628 27.9409 51.2534 28.5491 48.8945 28.5745C46.818 28.5969 44.7403 28.5434 42.6638 28.5745C40.472 28.6074 38.3597 29.2486 36.1768 29.2697C33.9977 29.2907 31.8175 29.2697 29.6384 29.2697C24.4187 29.2697 18.8926 28.5993 13.7412 27.7764C11.4231 27.4061 9.46265 27.1264 7.4721 25.7939C5.85816 24.7135 3.83752 23.905 2.63884 22.331C1.37786 20.6752 0.922151 19.1602 1.01066 17.0272C1.0815 15.32 1.40897 12.9961 2.16449 11.4788C3.50971 8.77729 6.7638 6.2277 9.35668 4.75901C12.291 3.09689 15.9015 2.14226 19.2283 1.74666C21.8028 1.44053 24.4322 1.89501 27.0102 1.57931C30.361 1.169 33.5359 2.04032 36.8691 1.91402Z" fill="#777E94" stroke="#313131" stroke-linecap="round"/>
<path d="M33.7402 8.68313C33.9502 8.32313 34.1002 8.02313 34.1902 7.78313L35.5102 8.75813C35.3802 8.93813 35.0052 9.06313 34.3852 9.13313C34.6652 9.58313 35.0752 9.99313 35.6152 10.3631C36.1552 10.7231 36.7602 10.9981 37.4302 11.1881V11.3681C37.1802 11.4581 36.9502 11.6081 36.7402 11.8181C36.5402 12.0281 36.3852 12.2631 36.2752 12.5231L36.3952 12.6131C36.3452 12.6731 36.2702 12.7331 36.1702 12.7931L36.1552 12.8381L36.1252 12.8081C36.0952 12.8281 36.0302 12.8481 35.9302 12.8681V16.3031C35.9202 16.3631 35.7752 16.4431 35.4952 16.5431C35.2152 16.6431 34.9552 16.7031 34.7152 16.7231V19.9631C34.7152 20.0531 34.7302 20.1131 34.7602 20.1431C34.8002 20.1731 34.8802 20.1881 35.0002 20.1881H35.9152C35.9752 20.1881 36.0202 20.1781 36.0502 20.1581C36.0802 20.1381 36.1152 20.0931 36.1552 20.0231C36.2152 19.9231 36.3552 19.4981 36.5752 18.7481C36.5852 18.6981 36.6252 18.5581 36.6952 18.3281H36.8452L36.9052 20.0981C37.0752 20.1781 37.1852 20.2731 37.2352 20.3831C37.2952 20.4831 37.3252 20.6181 37.3252 20.7881C37.3252 21.1181 37.1702 21.3631 36.8602 21.5231C36.5602 21.6831 36.0402 21.7631 35.3002 21.7631H34.4902C34.1102 21.7631 33.8252 21.7181 33.6352 21.6281C33.4552 21.5481 33.3352 21.4131 33.2752 21.2231C33.2152 21.0431 33.1852 20.7681 33.1852 20.3981V16.2131H32.7202C32.6002 17.7131 32.2302 18.9281 31.6102 19.8581C31.0002 20.7781 29.9952 21.4981 28.5952 22.0181L28.5202 21.8231C29.4202 21.2031 30.0552 20.4831 30.4252 19.6631C30.7952 18.8431 31.0052 17.8531 31.0552 16.6931C30.7952 16.8231 30.4902 16.8881 30.1402 16.8881H29.8702V12.6431C29.7102 12.7431 29.4002 12.9031 28.9402 13.1231C28.8802 13.2631 28.7552 13.3331 28.5652 13.3331H26.8552C26.1452 13.3431 25.3952 13.4131 24.6052 13.5431L24.2152 12.7781C24.7152 12.8381 25.3252 12.8781 26.0452 12.8981H26.9152L27.6502 11.9231C28.1002 12.3131 28.4802 12.6531 28.7902 12.9431C29.0002 12.7131 29.2102 12.4481 29.4202 12.1481C29.6902 11.7381 29.9202 11.2631 30.1102 10.7231C30.3102 10.1731 30.4202 9.68813 30.4402 9.26813C31.1902 9.62813 31.7102 9.89313 32.0002 10.0631C32.2902 10.2331 32.4352 10.3481 32.4352 10.4081C32.4352 10.4481 32.3952 10.4781 32.3152 10.4981L32.0602 10.5731C31.7402 11.0531 31.3252 11.5081 30.8152 11.9381L31.6252 12.2531H34.2202L34.9402 11.4581L34.9852 11.4881C34.5452 10.7981 34.2352 10.0081 34.0552 9.11813H33.0502C32.4602 9.12813 31.8502 9.19813 31.2202 9.32813L30.8302 8.56313C31.3802 8.62313 32.0402 8.66313 32.8102 8.68313H33.7402ZM27.2152 8.54813C27.2552 8.49813 27.3052 8.42313 27.3652 8.32313C27.4352 8.22313 27.4902 8.14813 27.5302 8.09813C27.5802 8.04813 27.6252 8.02313 27.6652 8.02313C27.7252 8.02313 27.8652 8.11313 28.0852 8.29313C28.3052 8.46313 28.5102 8.64813 28.7002 8.84813C28.8902 9.04813 28.9852 9.18313 28.9852 9.25313C28.9452 9.41313 28.8202 9.49313 28.6102 9.49313H26.9302C26.2202 9.50313 25.4702 9.57313 24.6802 9.70313L24.2902 8.93813C24.7702 8.99813 25.3502 9.03813 26.0302 9.05813H26.8702L27.2152 8.54813ZM25.6252 11.3831C25.0852 11.3931 24.5252 11.4631 23.9452 11.5931L23.5552 10.8431C24.1052 10.9031 24.7702 10.9431 25.5502 10.9631H27.5752L27.9202 10.4531C27.9502 10.4131 28.0002 10.3431 28.0702 10.2431C28.1402 10.1431 28.1952 10.0681 28.2352 10.0181C28.2852 9.96813 28.3302 9.94313 28.3702 9.94313C28.4302 9.94313 28.5652 10.0331 28.7752 10.2131C28.9952 10.3831 29.2002 10.5681 29.3902 10.7681C29.5802 10.9581 29.6752 11.0881 29.6752 11.1581C29.6352 11.3081 29.5102 11.3831 29.3002 11.3831H25.6252ZM31.4152 15.7781H34.3402V12.6731H31.4152V15.7781ZM27.2302 14.3681C27.2602 14.3281 27.3102 14.2581 27.3802 14.1581C27.4502 14.0581 27.5052 13.9831 27.5452 13.9331C27.5952 13.8831 27.6402 13.8581 27.6802 13.8581C27.7402 13.8581 27.8752 13.9431 28.0852 14.1131C28.2952 14.2831 28.4902 14.4631 28.6702 14.6531C28.8502 14.8431 28.9402 14.9731 28.9402 15.0431C28.9002 15.1931 28.7752 15.2681 28.5652 15.2681H26.8552C26.1452 15.2781 25.3952 15.3481 24.6052 15.4781L24.2152 14.7431C24.7152 14.8031 25.3252 14.8431 26.0452 14.8631H26.9002L27.2302 14.3681ZM27.4852 16.3781C27.5252 16.3381 27.5752 16.2831 27.6352 16.2131C27.7052 16.1331 27.7602 16.0781 27.8002 16.0481C27.8402 16.0081 27.8802 15.9881 27.9202 15.9881C27.9802 15.9881 28.1252 16.0731 28.3552 16.2431C28.5952 16.4031 28.8152 16.5781 29.0152 16.7681C29.2252 16.9481 29.3302 17.0731 29.3302 17.1431C29.2202 17.2931 29.0402 17.3881 28.7902 17.4281V18.6431C28.8102 19.6231 28.8402 20.3981 28.8802 20.9681C28.8302 21.0781 28.6602 21.1931 28.3702 21.3131C28.0802 21.4431 27.8102 21.5081 27.5602 21.5081C27.3502 21.5081 27.2452 21.4081 27.2452 21.2081C27.2452 21.2081 27.2652 21.1181 27.3052 20.9381V20.6381H25.8352V20.9531C25.8452 21.0731 25.8502 21.1781 25.8502 21.2681C25.8602 21.3681 25.8702 21.4381 25.8802 21.4781C25.8602 21.5981 25.7102 21.7231 25.4302 21.8531C25.1502 21.9831 24.8602 22.0481 24.5602 22.0481C24.4602 22.0481 24.3852 22.0181 24.3352 21.9581C24.2852 21.8981 24.2602 21.8281 24.2602 21.7481C24.3002 21.3081 24.3302 20.7481 24.3502 20.0681V19.0781C24.3502 17.8281 24.2852 16.8131 24.1552 16.0331L25.8952 16.7681H27.1702L27.4852 16.3781ZM25.8352 17.2031V20.2181H27.3052V17.2031H25.8352ZM47.0902 16.3631C46.8902 17.5931 46.4502 18.6881 45.7702 19.6481C45.1002 20.5981 44.0552 21.3931 42.6352 22.0331L42.5002 21.8981C43.3702 21.2081 44.0352 20.4531 44.4952 19.6331C44.9552 18.8031 45.2602 17.9331 45.4102 17.0231C45.5702 16.1131 45.6502 15.0681 45.6502 13.8881V11.1281C45.6502 9.99813 45.5902 9.05813 45.4702 8.30813L47.4802 9.07313H49.8202L50.1502 8.62313C50.1802 8.58313 50.2302 8.52313 50.3002 8.44313C50.3702 8.35313 50.4252 8.28813 50.4652 8.24813C50.5152 8.19813 50.5602 8.17313 50.6002 8.17313C50.6602 8.17313 50.8202 8.26813 51.0802 8.45813C51.3402 8.64813 51.5852 8.84813 51.8152 9.05813C52.0452 9.26813 52.1602 9.40813 52.1602 9.47813C52.1102 9.54813 52.0302 9.61313 51.9202 9.67313C51.8202 9.72313 51.7002 9.75813 51.5602 9.77813V19.9781C51.5602 20.4181 51.5052 20.7731 51.3952 21.0431C51.2952 21.3131 51.0802 21.5281 50.7502 21.6881C50.4302 21.8581 49.9502 21.9731 49.3102 22.0331C49.2602 21.4531 49.1252 21.0531 48.9052 20.8331C48.7552 20.6931 48.5652 20.5731 48.3352 20.4731C48.1052 20.3731 47.7952 20.2931 47.4052 20.2331V20.0231C48.6452 20.0931 49.3802 20.1281 49.6102 20.1281C49.7502 20.1281 49.8452 20.1031 49.8952 20.0531C49.9452 20.0031 49.9702 19.9181 49.9702 19.7981V16.3631H47.0902ZM42.9502 8.92313C42.9902 8.87313 43.0452 8.80813 43.1152 8.72813C43.1852 8.63813 43.2402 8.57313 43.2802 8.53313C43.3302 8.49313 43.3752 8.47313 43.4152 8.47313C43.4752 8.47313 43.6302 8.56813 43.8802 8.75813C44.1302 8.93813 44.3652 9.13313 44.5852 9.34313C44.8052 9.54313 44.9152 9.67813 44.9152 9.74813C44.7952 9.89813 44.5952 10.0031 44.3152 10.0631V14.3981C44.3352 15.6381 44.3752 16.8131 44.4352 17.9231C44.3552 18.0431 44.1602 18.1781 43.8502 18.3281C43.5402 18.4781 43.2552 18.5531 42.9952 18.5531C42.7852 18.5531 42.6802 18.4531 42.6802 18.2531C42.6802 18.2331 42.7002 18.0481 42.7402 17.6981V17.2631H40.9102V17.7731C40.9202 17.8831 40.9252 18.0181 40.9252 18.1781L40.9702 18.6881C40.9302 18.8081 40.7802 18.9431 40.5202 19.0931C40.2702 19.2331 39.9702 19.3031 39.6202 19.3031C39.4902 19.3031 39.3852 19.2731 39.3052 19.2131C39.2252 19.1531 39.1852 19.0831 39.1852 19.0031C39.2252 18.4131 39.2602 17.8431 39.2902 17.2931C39.3202 16.7331 39.3402 16.0031 39.3502 15.1031V11.6531C39.3502 10.3931 39.2852 9.36813 39.1552 8.57813L41.0902 9.35813H42.5902L42.9502 8.92313ZM49.9702 12.4781V9.50813H47.2402V12.4781H49.9702ZM42.7402 13.0631V9.79313H40.9102V13.0631H42.7402ZM47.2402 13.8731C47.2402 14.6131 47.2052 15.2981 47.1352 15.9281H49.9702V12.9131H47.2402V13.8731ZM40.9102 13.4981V16.8281H42.7402V13.4981H40.9102Z" fill="white"/>
</svg>
