<svg width="116" height="116" viewBox="0 0 116 116" fill="none" xmlns="http://www.w3.org/2000/svg">
<path d="M33.4696 6.99497C39.0317 3.24294 44.6974 1.71 51.3633 1H62.9434C72.8247 1 82.3942 3.51162 90.6816 8.90247C92.9575 10.3829 94.6333 12.5565 96.4866 14.5038C98.5254 16.6462 100.399 18.2163 102.77 20.0446C106.687 23.0642 109.236 28.5533 111.448 32.9126C113.797 37.5422 114.259 43.2878 114.889 48.3845C115.302 51.7282 114.433 55.0309 114.38 58.3459C114.33 61.5169 114.488 64.5964 113.961 67.7319C112.868 74.2447 110.972 82.1695 106.72 87.3519C101.785 93.367 96.1889 101.019 89.3351 104.822C86.1444 106.593 83.8667 109.009 80.2087 110C75.8759 111.173 71.7928 112.97 67.4018 113.936C62.9488 114.915 58.3074 115.549 53.787 114.329C48.9524 113.025 43.865 113.273 39.0651 111.907C33.8743 110.43 28.9296 108.228 24.6723 104.792C21.9451 102.59 19.9064 99.7442 17.072 97.6765C14.588 95.8645 12.4078 94.1706 10.6386 91.621C2.94298 80.5304 -0.358711 65.5369 1.51225 52.0481C2.43843 45.3708 4.45861 38.5005 6.89832 32.2465C8.75003 27.4999 12.9197 24.2671 16.6531 21.1044C19.9195 18.3372 22.3193 14.556 25.7496 12.0211C28.2056 10.2061 30.9354 8.70446 33.4696 6.99497Z" fill="#F2EFE8" stroke="#394038" stroke-linecap="round"/>
<g clip-path="url(#clip0_1074_8380)">
<path d="M92.4819 43.1511C92.4286 42.3335 92.372 41.5149 92.2961 40.6985C92.2304 39.9882 92.1443 39.2452 91.7466 38.6309C91.3581 38.0313 90.7304 37.7027 90.0416 37.5695C89.1478 37.3967 88.2211 37.3391 87.317 37.2341C83.677 36.8152 80.0245 36.4425 76.3573 36.3827C72.732 36.324 69.1226 36.7677 65.4985 36.7011C61.8641 36.6345 58.2638 36.0755 54.6487 35.7469C51.7213 35.4804 48.787 35.3178 45.8506 35.2185C45.9049 34.7103 45.9593 32.7083 45.9661 32.2035C45.9763 31.4684 45.4948 31.1771 44.823 31.1184C43.3083 30.9863 41.7846 30.923 40.2665 30.8248C39.5267 30.7773 38.7869 30.7231 38.046 30.696C37.4184 30.6735 36.5664 30.547 35.966 30.7672C35.3089 31.0088 35.4256 31.7349 35.4256 32.3006C35.4256 32.7252 35.4301 34.6426 35.4335 35.0672C34.474 35.066 33.5155 35.0672 32.5571 35.0672C32.1742 35.0672 31.7913 35.0773 31.4208 35.118C31.005 35.2128 30.8578 35.2433 30.4907 35.3461C30.1236 35.4488 30.3683 35.38 29.5798 35.6397C28.2725 36.2314 26.9651 36.8219 25.6611 37.4193C25.0312 37.7072 24.5418 38.0403 24.4421 38.7766C24.339 39.5388 24.5917 40.3834 24.6778 41.14C25.055 44.4847 25.097 47.8576 25.0041 51.2192C24.8171 57.9243 24.3243 64.6272 23.9527 71.3234C23.853 73.1188 23.6491 74.9515 23.9856 76.7334C24.3039 78.4181 25.0981 79.9685 25.3983 81.6589C25.3609 81.896 25.447 82.1467 25.7234 82.3003C29.3737 84.3159 33.5903 84.6005 37.6676 84.8895C42.4326 85.2272 47.201 85.5479 51.9796 85.5727C61.4053 85.6201 70.8492 84.7405 80.2613 85.5817C82.3266 85.7658 84.7261 86.2175 86.5636 84.9686C87.4767 84.3475 88.0874 83.4306 88.6674 82.5126C89.3551 81.424 90.0394 80.3332 90.7248 79.2447C90.8018 79.1227 90.8335 79.0019 90.8313 78.889C91.349 77.9122 91.5733 76.7943 91.7093 75.7035C91.9166 74.0267 91.9676 72.325 92.0729 70.6402C92.1851 68.8527 92.2916 67.0652 92.3867 65.2765C92.7764 57.9108 92.9622 50.5191 92.4819 43.1522V43.1511Z" fill="black"/>
<path d="M36.7884 34.424C36.7884 34.1789 36.7873 32.4411 36.7861 32.1961C36.7861 32.1283 36.7861 32.0617 36.7861 31.9939C37.3435 31.9488 37.9859 32.0459 38.4911 32.0707C39.1947 32.1057 39.8982 32.1565 40.6006 32.2017L42.7123 32.3383C43.0828 32.3621 43.4533 32.3858 43.8237 32.4095C44.0254 32.4219 44.3596 32.3869 44.6213 32.4163C44.6145 32.685 44.542 34.4861 44.5238 34.7017C44.5103 34.8598 44.4978 35.0191 44.4842 35.1771C41.9216 35.1071 39.3567 35.08 36.7918 35.071C36.7907 34.8553 36.7873 34.6396 36.7873 34.4228L36.7884 34.424Z" fill="#3E3E40"/>
<path d="M25.4785 77.155C25.0673 75.6396 25.1568 74.1073 25.2429 72.558C25.423 69.3093 25.6031 66.0595 25.7844 62.8108C26.1378 56.4512 26.6816 50.0486 26.2625 43.68C26.2047 42.7958 26.1265 41.9128 26.0246 41.032C25.9758 40.6052 25.9203 40.1783 25.8614 39.7515C25.8082 39.3676 25.6507 38.9938 25.9962 38.7522C26.3236 38.5229 26.7791 38.3942 27.145 38.2282C27.5438 38.0475 27.9426 37.8657 28.3413 37.6851C28.6166 37.5597 28.8919 37.4355 29.1672 37.3102C29.14 37.8996 29.165 38.4992 29.157 39.0819C29.1434 40.0575 29.1287 41.0331 29.1151 42.0088C29.063 45.6854 29.0109 49.3621 28.9576 53.0387C28.8534 60.3921 28.7277 67.7454 28.6438 75.0998C28.6314 76.2223 28.6982 77.409 29.2884 78.3485C28.2043 78.7234 27.2368 79.3287 26.4267 80.1214C26.1367 79.1254 25.7504 78.1588 25.4785 77.155Z" fill="#939BA6"/>
<path d="M87.7791 81.3759C87.284 82.1619 86.8161 83.0178 86.0968 83.6275C84.641 84.864 82.4409 84.4338 80.7053 84.2689C76.1805 83.8376 71.6285 83.8161 67.0878 83.9065C62.5732 83.9957 58.0609 84.1967 53.5451 84.2192C48.958 84.2418 44.3822 84.0013 39.8087 83.6863C35.5422 83.3927 30.9347 83.3633 27.0205 81.4482C27.8623 80.4771 28.9872 79.7996 30.2425 79.4755C30.3003 79.4608 30.3524 79.4405 30.4 79.4156C31.3686 79.9904 32.5581 80.109 33.6706 80.1406C35.2794 80.188 36.8665 80.2151 38.4651 80.4376C40.246 80.686 42.0077 81.0496 43.775 81.3782C47.287 82.0309 50.7933 82.3538 54.3676 82.3041C57.9668 82.2544 61.5536 81.9371 65.1449 81.7181C68.7758 81.4968 72.3819 81.4809 76.0162 81.6515C79.5916 81.8197 83.3347 82.1652 86.8852 81.5577C87.1979 81.5047 87.5049 81.4313 87.8018 81.3387C87.7938 81.3511 87.7859 81.3635 87.7791 81.3748V81.3759Z" fill="#444F50"/>
<path d="M39.3725 36.4463C41.1862 36.4633 43.0011 36.4926 44.8149 36.5446C44.9599 36.548 45.0777 36.548 45.2409 36.557C46.7454 36.6033 48.2499 36.6643 49.7532 36.7467C53.1701 36.9364 56.562 37.3034 59.9629 37.6636C63.3684 38.0238 66.7207 38.1142 70.1398 37.9267C73.5668 37.7381 76.9644 37.6806 80.3914 37.9177C82.1089 38.0363 83.8218 38.2034 85.5336 38.3897C86.3527 38.4789 87.1707 38.5726 87.9886 38.6686C88.674 38.7488 89.7582 38.6923 90.353 39.1045C90.839 39.4398 90.8877 40.167 90.9376 40.7C91.0203 41.5898 91.0803 42.483 91.137 43.3751C91.2457 45.0847 91.3182 46.7966 91.3613 48.5095C91.4474 51.9367 91.4134 55.366 91.3069 58.792C91.1993 62.2225 91.0191 65.6507 90.8107 69.0767C90.7064 70.7897 90.5988 72.5016 90.4844 74.2134C90.4006 75.4533 90.2975 76.7541 89.8001 77.9115C89.2507 79.1887 88.2288 79.8955 86.8852 80.1846C85.2934 80.5268 83.5782 80.5019 81.9582 80.4997C78.479 80.4951 75.009 80.1778 71.531 80.1541C64.7766 80.109 58.0574 81.1727 51.3008 80.9197C47.9361 80.7944 44.6812 80.1586 41.3788 79.5534C39.7678 79.2587 38.1467 78.9967 36.5119 78.8725C35.1524 78.7697 33.7533 78.9075 32.4062 78.6862C31.0796 78.4682 30.1914 77.7715 30.0374 76.3849C29.8595 74.7859 30.0328 73.1046 30.0566 71.4977C30.1053 68.0458 30.1552 64.5938 30.2039 61.143C30.3025 54.2391 30.401 47.3363 30.4984 40.4324C30.5098 39.607 30.5222 38.7815 30.5336 37.9561C30.5392 37.5688 30.4996 37.1453 30.5698 36.7625C30.5732 36.7422 30.5789 36.7241 30.5834 36.7049C30.7398 36.6123 30.921 36.5536 31.1068 36.5141C31.3606 36.4701 31.4693 36.4565 31.7401 36.4396C31.7571 36.4396 31.7752 36.4373 31.7922 36.4362C32.6034 36.3944 33.4225 36.4238 34.2348 36.4249L39.3736 36.4463H39.3725Z" fill="#DBDBDB"/>
<path d="M79.9185 48.61C78.4321 46.6633 76.0678 45.5206 73.6978 45.035C72.0403 44.6951 70.3466 44.6996 68.7221 45.0158C68.4581 45.026 68.5861 45.0248 68.406 45.0429C66.5865 45.2292 64.6765 45.4133 62.8899 45.7983C62.098 45.9689 61.3084 46.1518 60.5199 46.3381C59.6917 46.5335 58.8148 46.678 58.0411 47.0472C56.6227 47.7248 56.1718 49.3101 55.6529 50.6697C55.0502 52.2494 54.6152 53.8642 54.5574 55.5614C54.4486 58.7739 55.5215 61.9165 56.9501 64.7542C57.5607 65.968 58.2416 67.6856 59.6679 68.1271C60.3477 68.3371 61.1226 68.345 61.8272 68.4274C62.7279 68.5336 63.6285 68.6521 64.5326 68.7165C68.2134 68.9774 71.884 68.1463 75.2883 66.7867C75.5602 66.7201 75.7755 66.6139 76.0304 66.5022C76.1901 66.4321 76.2808 66.3904 76.4983 66.2605C77.0251 66.0256 77.5292 65.7479 77.9926 65.3989C78.9397 64.6853 79.6172 63.713 80.153 62.6674C81.2961 60.4361 82.4483 57.9372 82.6137 55.4089C82.7847 52.7847 81.4559 50.6245 79.9185 48.61Z" fill="black"/>
<path d="M61.8283 67.0724C61.2154 67.0001 60.4383 67.043 59.8809 66.7562C59.3303 66.4728 59.0233 65.7433 58.74 65.2329C57.3284 62.6855 56.1548 59.876 55.944 56.9435C55.8375 55.4598 55.9973 54.002 56.4255 52.5769C56.6226 51.922 56.8617 51.2817 57.1109 50.646C57.3715 49.982 57.6015 49.1475 58.1158 48.6236C58.6517 48.0782 59.524 47.9664 60.2355 47.797C61.0953 47.5926 61.9552 47.3883 62.8185 47.1974C63.2377 47.1048 63.6568 47.0156 64.0771 46.9298C63.0496 47.6243 62.1206 48.4757 61.3378 49.4784C60.5515 50.4845 60.0293 51.6024 59.6226 52.8073C59.2023 54.0505 58.8443 55.3276 58.7808 56.6454C58.6675 59.0032 59.4662 61.3508 60.9492 63.1823C62.9136 65.6067 65.6677 66.8364 68.6031 67.2192C67.8814 67.3186 67.1541 67.3818 66.4222 67.4021C64.8792 67.4439 63.3555 67.2519 61.8261 67.0724H61.8283Z" fill="#939BA6"/>
<path d="M79.4633 60.9668C78.9795 62.0362 78.4584 63.1371 77.6008 63.9637C76.7092 64.8219 75.5106 65.2476 74.3494 65.5999C74.3188 65.6089 74.2916 65.6202 74.2644 65.6315C70.4771 66.4253 66.3341 66.134 63.256 63.5809C61.6926 62.2835 60.6277 60.5298 60.2606 58.5289C59.855 56.3157 60.4883 53.9139 61.4252 51.9039C63.1529 48.199 67.4104 46.0061 71.4106 46.1201C73.5609 46.1811 75.7836 46.8485 77.5328 48.1177C78.4165 48.7591 79.0192 49.6466 79.6253 50.5376C80.2552 51.4624 80.8658 52.4165 81.1264 53.5175C81.7314 56.0797 80.4954 58.6881 79.4644 60.9668H79.4633Z" fill="#444F50"/>
<path d="M78.6463 54.1024C78.0787 52.6096 76.9458 51.3596 75.72 50.358C74.527 49.3835 73.1415 48.7478 71.5724 48.8246C70.0804 48.898 68.6722 49.501 67.5291 50.4461C66.3588 51.4149 65.5182 52.7293 64.9302 54.1148C64.3593 55.4597 63.9299 56.957 64.0908 58.4306C64.2766 60.1414 65.3222 61.3462 66.829 62.1062C68.4082 62.9022 70.2481 63.6261 72.0279 63.1428C72.1457 63.1111 72.2386 63.0569 72.3122 62.9903C73.5539 62.7125 74.8159 62.5341 75.9318 61.8589C77.1259 61.1362 78.0708 60.0352 78.5953 58.7457C79.1901 57.2822 79.2093 55.5783 78.6485 54.1013L78.6463 54.1024Z" fill="black"/>
<path d="M77.5217 57.6854C77.1887 58.9309 76.3492 60.0239 75.2435 60.6902C73.952 61.4693 72.3999 61.5032 70.9849 61.9323C70.9736 61.9357 70.9634 61.9402 70.952 61.9436C69.8463 61.9899 68.7316 61.5145 67.7493 61.0504C66.6527 60.5321 65.7169 59.841 65.4779 58.5876C65.2581 57.4369 65.5787 56.2253 65.9718 55.1481C66.3864 54.011 66.9914 52.9089 67.8275 52.0247C69.5778 50.1728 72.2843 49.5326 74.4436 51.0762C76.5588 52.5882 78.24 54.9967 77.5206 57.6842L77.5217 57.6854Z" fill="#3E3E40"/>
<path d="M49.761 69.8751C49.258 69.5905 48.5714 69.5047 48.0106 69.4098C47.3966 69.3071 46.7758 69.2416 46.1538 69.193C44.8397 69.0903 43.5255 69.0248 42.2159 68.8814C39.2443 68.5562 36.3066 67.9679 33.4302 67.1616C32.6496 66.9425 32.2837 68.0446 32.9011 68.3981C32.9272 70.4171 32.9533 72.4361 32.9793 74.454C32.9827 74.7216 33.1855 75.0649 33.4778 75.1078C36.1911 75.5064 38.9089 75.879 41.6301 76.2245C42.9602 76.3928 44.2913 76.5554 45.6236 76.7112C46.2898 76.7891 46.9559 76.8648 47.6221 76.9393C48.1693 77.0003 48.7856 77.1527 49.2138 76.7067C49.582 76.3228 49.5763 75.6904 49.6534 75.197C49.7689 74.4675 49.8833 73.7392 49.9989 73.0097C50.0952 72.3966 50.2017 71.7845 50.2878 71.1703C50.3603 70.652 50.2527 70.154 49.7621 69.8762L49.761 69.8751Z" fill="black"/>
<path d="M48.2569 75.3833C48.2479 75.4442 48.2173 75.5312 48.1992 75.6125C47.9805 75.5775 47.6316 75.5854 47.5115 75.5718C46.8816 75.5018 46.2528 75.4296 45.6241 75.3562C44.4402 75.2184 43.2563 75.075 42.0736 74.9259C39.4894 74.6007 36.9087 74.2484 34.3313 73.8724C34.3098 72.1775 34.2883 70.4837 34.2656 68.7888C36.1236 69.2664 38.0042 69.6537 39.9018 69.9372C42.1914 70.2793 44.4878 70.3696 46.7864 70.6045C47.354 70.6621 47.9182 70.749 48.4733 70.8845C48.6047 70.9162 48.7486 70.9737 48.88 70.9929C48.9038 70.9963 48.9242 70.9997 48.9412 71.0031C48.8642 71.2798 48.854 71.605 48.8098 71.8839C48.6251 73.0503 48.4416 74.2168 48.2569 75.3833Z" fill="#F7F4ED"/>
<path d="M71.0395 55.3186C71.197 54.9279 71.3046 54.5089 71.206 54.0866C71.0655 53.4848 70.6135 53.0376 70.0527 52.8761C69.9462 52.7881 69.8001 52.7372 69.6132 52.753C67.7552 52.9055 66.7854 54.5677 66.739 56.2942C66.6982 57.7825 67.1095 60.103 69.0852 59.9618C69.8579 59.9065 70.5184 59.3803 70.6973 58.6226C70.7914 58.2263 70.7132 57.8435 70.5444 57.4832C70.3813 57.1343 70.2567 56.8102 70.4175 56.4263C70.5795 56.0424 70.8786 55.7172 71.0384 55.3186H71.0395Z" fill="black"/>
<path d="M69.6347 55.1312C69.4013 55.5648 69.1 55.8968 69.0207 56.3993C68.9505 56.8475 68.9924 57.3297 69.168 57.7486C69.2971 58.058 69.5736 58.4623 69.0739 58.5989C67.9376 58.9106 67.5309 54.7642 69.2949 54.1725C69.3368 54.1759 69.381 54.177 69.4274 54.1725C70.106 54.1081 69.8364 54.7574 69.6347 55.1312Z" fill="white"/>
</g>
<defs>
<clipPath id="clip0_1074_8380">
<rect width="68.9699" height="55.1759" fill="white" transform="translate(23.7998 30.64)"/>
</clipPath>
</defs>
</svg>
