<svg width="62" height="62" viewBox="0 0 62 62" fill="none" xmlns="http://www.w3.org/2000/svg">
<path d="M18.0893 4.15525C21.0167 2.18049 23.9986 1.37368 27.507 1H33.6018C38.8025 1 43.839 2.3219 48.2009 5.15919C49.3987 5.93837 50.2807 7.08235 51.2561 8.10728C52.3292 9.23485 53.3152 10.0612 54.5633 11.0235C56.6248 12.6127 57.9661 15.5018 59.1305 17.7961C60.367 20.2328 60.6102 23.2568 60.9416 25.9392C61.159 27.699 60.7017 29.4373 60.6739 31.182C60.6473 32.851 60.7303 34.4718 60.4534 36.1221C59.8781 39.5498 58.88 43.7208 56.6422 46.4483C54.0447 49.6142 51.0994 53.6415 47.4922 55.6432C45.8128 56.575 44.614 57.8469 42.6888 58.3682C40.4084 58.9857 38.2594 59.9314 35.9483 60.4398C33.6047 60.9553 31.1618 61.2889 28.7827 60.647C26.2381 59.9604 23.5605 60.0911 21.0343 59.3721C18.3023 58.5946 15.6998 57.436 13.4591 55.6273C12.0237 54.4686 10.9508 52.9706 9.45895 51.8824C8.15159 50.9287 7.00411 50.0372 6.07297 48.6953C2.02262 42.8581 0.284889 34.9668 1.26961 27.8674C1.75707 24.3531 2.82032 20.7371 4.10438 17.4455C5.07896 14.9473 7.27351 13.2458 9.23847 11.5812C10.9577 10.1248 12.2207 8.13475 14.0261 6.80056C15.3187 5.8453 16.7555 5.05498 18.0893 4.15525Z" fill="#777E94" stroke="#394038" stroke-linecap="round"/>
<g clip-path="url(#clip0_507_18529)">
<path d="M46.9956 13.2974C46.9421 13.0583 46.6549 13.0428 46.4172 13.0422C42.5699 13.015 38.7226 12.9769 34.8747 13.0202C30.9372 13.0641 26.9997 13.1113 23.0623 13.1572C20.8327 13.183 18.6025 13.2089 16.373 13.2347C15.9666 13.2393 15.8919 13.7595 16.1514 13.9449C16.1598 22.5013 16.1598 31.057 16.1611 39.6134C16.1611 42.0121 16.1617 44.4115 16.1624 46.8102C16.1624 46.8173 16.163 46.8244 16.1637 46.8315H16.9339C16.9339 46.8315 16.9339 46.8289 16.9339 46.8276C24.5338 46.8431 32.1338 46.8586 39.7337 46.8735C41.8602 46.878 43.9874 46.8819 46.1139 46.8864C46.3213 47.1003 46.7863 47.0137 46.7888 46.626C46.8165 42.3074 46.8436 37.9889 46.8713 33.6709C46.899 29.3523 46.926 25.0338 46.9537 20.7158L46.9994 13.5553C46.9866 13.4603 46.9795 13.4299 46.9949 13.2974H46.9956Z" fill="#313131"/>
<path d="M46.1461 26.3227C46.1184 30.6413 46.0913 34.9599 46.0636 39.2778C46.0495 41.555 46.0346 43.8329 46.0205 46.1101C38.369 46.0946 30.7175 46.0791 23.0667 46.0636C21.0233 46.0597 18.9792 46.0552 16.9358 46.0513C16.9345 37.7114 16.9345 29.3709 16.93 21.031C16.9287 18.6878 16.9274 16.3453 16.9248 14.0029C24.642 13.9098 32.3623 13.7457 40.0801 13.776C42.1287 13.7838 44.1773 13.8012 46.2266 13.8155C46.2002 17.9848 46.1737 22.1534 46.1473 26.3227H46.1461Z" fill="#EFECE5"/>
<path d="M43.986 37.9738C43.9235 32.4818 43.8617 26.9897 43.7992 21.4976C43.7825 20.0055 43.7658 18.5141 43.7484 17.022C43.7625 16.5716 43.7168 16.2827 43.7007 16.2789C43.0168 16.107 42.3161 16.096 41.6212 16.0986C40.831 16.1018 40.0415 16.105 39.2513 16.1102C37.714 16.1192 36.1768 16.1309 34.6395 16.1457C31.5438 16.1755 28.448 16.2175 25.3523 16.2717C23.6018 16.3021 21.8514 16.337 20.101 16.3751C19.8859 16.337 19.6373 16.4591 19.6373 16.7428C19.6502 22.3732 19.6773 28.0036 19.7191 33.6346C19.7314 35.2249 19.7442 36.8152 19.7584 38.4055C19.7603 38.6381 19.9297 38.7629 20.1094 38.7784C20.1377 38.7829 20.1673 38.7848 20.1995 38.7829C26.2539 38.4417 32.3146 38.7881 38.3728 38.79C40.0943 38.79 41.8163 38.7616 43.5358 38.6834C43.8095 38.6711 43.9326 38.4288 43.9042 38.2188C43.9545 38.1587 43.986 38.0779 43.9847 37.9764L43.986 37.9738Z" fill="#313131"/>
<path d="M38.4829 16.8901C39.3369 16.885 40.1909 16.8798 41.0448 16.8766C41.6695 16.874 42.3425 16.8107 42.9743 16.905C43.0251 21.4026 43.076 25.8995 43.1269 30.3971C41.8575 29.3263 40.5876 28.2562 39.3189 27.1842C38.0746 26.1328 36.8195 25.0517 35.9385 23.6617C35.7813 23.4136 35.4271 23.4091 35.2713 23.6617C34.3188 25.2061 33.1499 26.5916 31.992 27.9822L28.5472 32.1186C27.1677 30.6511 25.7876 29.1829 24.4075 27.7154C24.2703 27.5693 23.9973 27.5622 23.8607 27.7154C22.6893 29.0304 21.5635 30.3842 20.479 31.7716C20.4552 28.3519 20.4365 24.9328 20.4236 21.5131C20.4185 20.0565 20.414 18.6 20.4108 17.1435C26.4335 17.0136 32.4576 16.9289 38.4816 16.8901H38.4829Z" fill="#F9F8F7"/>
<path d="M25.362 37.8556C23.75 37.8646 22.1387 37.904 20.5287 37.988C20.5139 36.326 20.501 34.664 20.4888 33.0019C20.5081 32.9845 20.5268 32.9644 20.5442 32.9418C21.6911 31.4388 22.8935 29.9796 24.1435 28.5625C25.5262 30.0333 26.9082 31.5034 28.2909 32.9741C28.4249 33.1169 28.7063 33.1318 28.8377 32.9741C30.0987 31.4594 31.3603 29.9454 32.6212 28.4307C33.6652 27.177 34.7169 25.9221 35.6159 24.558C36.4756 25.7418 37.5743 26.7176 38.6891 27.6611C40.1536 28.8998 41.6213 30.1347 43.087 31.3722C43.1038 31.3864 43.1212 31.3987 43.1386 31.409C43.1456 32.0527 43.1534 32.6963 43.1604 33.3392C43.1778 34.8656 43.1952 36.3926 43.2126 37.9189C37.2639 38.1677 31.3126 37.8213 25.362 37.8549V37.8556Z" fill="#5E7C85"/>
<path d="M28.2259 20.6931C27.873 20.1109 27.4112 19.6243 26.7331 19.4511C26.1084 19.2915 25.4264 19.3736 24.8262 19.5926C24.2176 19.8149 23.6875 20.1755 23.3965 20.7726C23.1234 21.3328 23.0493 21.9648 23.0596 22.582C23.0809 23.8446 23.4229 25.2527 24.8848 25.4207C26.2146 25.5739 27.8034 25.0937 28.4912 23.8679C28.5324 23.7949 28.5472 23.7232 28.5427 23.6566C29.0109 22.7538 28.7726 21.5958 28.2252 20.6931H28.2259Z" fill="#313131"/>
<path d="M24.2691 24.3318C23.9915 24.0165 23.9046 23.5486 23.8646 23.1428C23.7803 22.2911 23.7603 21.1072 24.5615 20.5722C25.3034 20.0765 26.5521 19.8969 27.2141 20.6064C27.9058 21.347 28.5286 22.9677 27.522 23.7237C27.4125 23.8064 27.3629 23.9182 27.3577 24.03C26.8812 24.4249 26.2365 24.6116 25.6183 24.6555C25.161 24.6879 24.5995 24.7079 24.2691 24.3324V24.3318Z" fill="#E7C96E"/>
</g>
<defs>
<clipPath id="clip0_507_18529">
<rect width="31" height="34" fill="white" transform="translate(16 13)"/>
</clipPath>
</defs>
</svg>
