<?xml version="1.0" encoding="UTF-8"?>
<svg id="_甲烷排放量" data-name="甲烷排放量" xmlns="http://www.w3.org/2000/svg" xmlns:xlink="http://www.w3.org/1999/xlink" viewBox="0 0 302.81 231.25">
  <defs>
    <style>
      .cls-1 {
        fill: #313231;
      }

      .cls-1, .cls-2, .cls-3, .cls-4, .cls-5, .cls-6, .cls-7, .cls-8 {
        stroke-width: 0px;
      }

      .cls-2 {
        fill: #c0e0c5;
      }

      .cls-3 {
        fill: #f8f6f3;
      }

      .cls-4, .cls-9 {
        fill: none;
      }

      .cls-9, .cls-10 {
        stroke: #303131;
        stroke-miterlimit: 10;
      }

      .cls-10 {
        fill: #efebe4;
      }

      .cls-11 {
        clip-path: url(#clippath);
      }

      .cls-5 {
        fill: #cdcdcb;
      }

      .cls-6 {
        fill: #e5e4e1;
      }

      .cls-7 {
        fill: #231815;
      }

      .cls-8 {
        fill: url(#_未命名漸層_2);
      }
    </style>
    <clipPath id="clippath">
      <path class="cls-4" d="M101.36,2.38s28.09-3.06,54.98,4.94c26.89,8,36.94,24.51,40.34,27.23,3.4,2.72,17.7,11.91,27.57,37.96,9.87,26.04,1.53,74.55-2.21,83.91-3.74,9.36-26.72,48.17-54.81,60.26-28.09,12.09-48.17,15.32-64,11.4-15.83-3.91-24.34-1.7-37.62-7.49-13.28-5.79-26.21-19.06-29.79-24.17s-6.98,2.38-22.13-24.68C-1.45,144.68,1.28,112.85,6.04,88.85c4.77-24,17.53-40.34,24-43.4,6.47-3.06,12.77-16.17,20.26-21.11S76.51,4.6,101.36,2.38Z"/>
    </clipPath>
    <linearGradient id="_未命名漸層_2" data-name="未命名漸層 2" x1="123.8" y1="152.22" x2="123.8" y2="-123.68" gradientUnits="userSpaceOnUse">
      <stop offset=".24" stop-color="#f0ede5"/>
      <stop offset=".5" stop-color="#ecebe5"/>
      <stop offset=".73" stop-color="#e2e8e5"/>
      <stop offset=".95" stop-color="#d0e1e5"/>
      <stop offset="1" stop-color="#cbe0e6"/>
    </linearGradient>
  </defs>
  <g class="cls-11">
    <rect class="cls-8" x="-14.14" y="-227.23" width="275.89" height="487.21"/>
    <g>
      <path class="cls-1" d="M261.53,108.59l-.75-.13c-16.62-2.78-34.08-3.92-51.4-3.32-9.06.31-17.91,1.25-26.84,2.12-4.75.46-9.53.87-14.35,1.04-4.79.17-9.59.08-14.38-.07-9.54-.29-19.06-.53-28.61-.58-9.67-.05-19.34-.05-29-.07-18.76-.04-37.61-.34-56.33.48-18.01.78-35.65,2.9-52.2,7.04-.27.07-1.28.37-1.61.38,0,0-.01.5,0,.5v144.72h275.48s0-152.11,0-152.11Z"/>
      <path class="cls-2" d="M-13.2,260.28V115.79c15.01-3.82,30.99-6.07,47.41-7.02,18.53-1.08,37.23-.81,55.83-.78,18.93.04,37.92-.15,56.83.44,9.49.3,18.83.61,28.29-.1,9.08-.68,18.01-1.86,27.12-2.43,17.98-1.11,36.3-.34,53.79,2.25,1.57.23,3.14.48,4.7.75v151.37H-13.2Z"/>
    </g>
    <g>
      <path class="cls-1" d="M54.11,170.63c-.73-.49-1.71-.31-2.36.24-.35-.69-1.08-1.2-1.91-1.1-.39.05-.73.22-1,.45-.04-.07-.08-.13-.13-.19-.48-.63-1.36-.95-2.06-.46-.69.48-1.11,1.4-1.33,2.19-.24.88-.23,1.8,0,2.68.13.47.86.27.73-.2-.35-1.25-.12-2.67.69-3.71.18-.23.4-.46.71-.44.26.02.5.2.65.4.1.13.16.27.2.42-.29.59-.34,1.32-.07,1.94.13.3.62.21.69-.09.12-.55.23-1.15.16-1.71.19-.27.46-.47.78-.52.61-.11,1.24.45,1.34,1.05-.1.23-.15.48-.13.75.02.34.52.55.7.19.12-.24.17-.48.18-.73.32-.59,1.18-.93,1.76-.5.75.56.5,1.85-.26,2.26-.43.23-.05.88.38.65,1.26-.68,1.49-2.73.26-3.57Z"/>
      <path class="cls-1" d="M211.84,118.2c-.81.2-1.25.9-1.42,1.66-.35-.44-.77-.83-1.24-1.16-.15-.11-.44-.04-.52.14-.69,1.63-.65,3.48.14,5.07.21.43.87.05.65-.38-.59-1.19-.7-2.62-.29-3.89.52.44.93.98,1.25,1.58.09.17.31.22.47.15.19-.08.25-.26.22-.44-.1-.7.1-1.68.83-1.97.48-.2,1.4.17,1.28.8-.09.47.63.68.73.2.23-1.16-1.03-2.02-2.1-1.76Z"/>
      <path class="cls-1" d="M153.74,141.96c-.1-.17-.35-.25-.52-.14-1.05.72-1.72,1.86-1.84,3.13-.02.2.19.38.38.38.22,0,.36-.17.38-.38.01-.12.02-.19.05-.33.03-.13.06-.27.11-.4.08-.24.17-.44.31-.67.25-.43.6-.81,1.01-1.08.17-.11.24-.33.14-.52Z"/>
      <path class="cls-1" d="M144.95,150.38c-.14-.13-.4-.16-.53,0-.55.66-1.1,1.33-1.65,1.99-.13.15-.16.39,0,.53.14.13.4.16.53,0,.55-.66,1.1-1.33,1.65-1.99.13-.15.16-.39,0-.53Z"/>
      <g>
        <polygon class="cls-1" points="15.81 137.59 15.81 137.59 15.81 137.59 15.81 137.59"/>
        <path class="cls-1" d="M15.81,137.59h0s.01,0,0,0c0,0,0,0,0,0,0,0,0,0,0,0Z"/>
        <polygon class="cls-1" points="15.82 137.59 15.82 137.59 15.81 137.59 15.82 137.59"/>
        <path class="cls-1" d="M17.8,137.74c-.06-.19-.26-.32-.46-.26-.04.01-.08.02-.12.03-.01,0-.02,0-.04,0,0,0,0,0,0,0-.08,0-.16,0-.24,0-.01,0-.03,0-.04,0-.04,0-.07-.02-.11-.03-.04-.01-.07-.02-.11-.04,0,0,0,0,0,0,0,0,0,0,0,0,0,0,0,0,0,0-.01,0-.02-.01-.02-.01-.01,0-.02,0-.03-.01-.04-.02-.07-.04-.11-.06-.02-.01-.04-.03-.05-.04,0,0-.01,0-.02-.01,0,0,0,0,0,0,0,0,0,0-.01,0,0,0,0,0,0,0-.01-.01-.02-.02-.04-.03-.03-.03-.06-.06-.09-.1,0,0,0,0-.01-.02,0,0,0,0-.01-.01,0,0,0,0,0,0,0,0,0-.01-.01-.01,0,0,0,0,0,0-.03-.04-.05-.08-.08-.12-.1-.12-.25-.16-.4-.16-.61.02-.89.76-.71,1.27.11.33.4.59.76.56.2-.02.39-.16.38-.38,0-.19-.17-.4-.38-.38-.01,0-.02,0-.03,0,0,0,0,0,0,0,0-.01,0-.03-.01-.04,0,.02,0-.01,0-.04,0,0,0,0,0,0,0-.01,0-.02,0-.03,0,0,0,.02,0,.02,0-.03,0-.06,0-.08,0,0,0,0,0-.01,0,0,0-.02,0-.03.44.47,1.14.69,1.77.5.19-.06.33-.27.26-.46Z"/>
        <polygon class="cls-1" points="15.81 137.59 15.81 137.6 15.81 137.6 15.81 137.59 15.81 137.59"/>
        <polygon class="cls-1" points="15.81 137.59 15.81 137.59 15.81 137.59 15.81 137.59 15.81 137.59"/>
        <path class="cls-1" d="M16.28,137.15s0,0-.02-.03c0,0,0,0,0,0,0,0,.01.01.02.02Z"/>
        <path class="cls-1" d="M16.45,137.31s0,0-.03-.02c0,0,0,0,0,0,0,0,.02,0,.03.02Z"/>
        <path class="cls-1" d="M16.68,137.44s-.04-.02-.04-.02c.01,0,.02.01.03.02,0,0,0,0,0,0Z"/>
        <polygon class="cls-1" points="15.81 137.59 15.81 137.59 15.81 137.59 15.81 137.59 15.81 137.59"/>
        <path class="cls-1" d="M15.77,137.85s0,.01,0,.02c0,0,0-.02-.01-.05,0,0,0,0,0,0,0,0,0,.01,0,.02Z"/>
        <polygon class="cls-1" points="15.81 137.94 15.81 137.94 15.81 137.95 15.81 137.94"/>
      </g>
      <g>
        <path class="cls-1" d="M234.93,173.31c-.06-.18-.27-.34-.46-.26-.38.15-.73.39-1,.71-.26.32-.46.69-.54,1.1-.04.19.05.42.26.46.19.04.42-.06.46-.26.02-.08.04-.16.06-.24.01-.04.03-.07.04-.11,0,0,0,0,0,.01,0,0,0,0,0-.01,0,0,0,0,0,0,.01-.03.01-.03,0-.02,0,0,0-.02.01-.03.04-.08.08-.15.12-.22.02-.04.05-.07.07-.1.01-.01.03-.03.03-.05,0,0,0,0,0,0,0,0,0,0,0,0,.05-.06.11-.13.17-.18.03-.03.06-.05.08-.08.02-.01.03-.03.05-.04.06-.05.13-.09.2-.13.04-.02.07-.04.11-.06.02-.01.04-.02.06-.03,0,0,0,0,0,0,.09-.04.16-.08.21-.17.05-.08.07-.2.04-.29Z"/>
        <path class="cls-1" d="M233.75,174.7s0-.02.01-.02c0,0,0,.01,0,.02,0,0,0,0,0,0Z"/>
        <path class="cls-1" d="M234,174.29s-.03.06,0,0h0Z"/>
      </g>
      <path class="cls-1" d="M79.79,127.49c-.07-.07-.17-.11-.27-.11-.1,0-.19.04-.27.11-.27.27-.54.54-.8.81-.07.07-.11.17-.11.27s.04.2.11.27c.07.07.17.11.27.11.1,0,.19-.04.27-.11.27-.27.54-.54.8-.81.07-.07.11-.17.11-.27s-.04-.2-.11-.27Z"/>
      <path class="cls-1" d="M117.85,232.44c-.22.11-.4-.09-.55-.26-.26-.29-.46-.62-.7-.91-.25-.3-.54-.58-.91-.72-.48-.19-.99-.07-1.43.16-.48.25-.89.63-1.38.86-.54.26-1.14.29-1.73.28-1.11-.04-2.19-.27-3.29-.07-.76.14-1.49.48-1.96,1.07-.69-1.07-1.96-1.79-3.26-1.54-1.34.26-2.04,1.65-1.8,2.92.13.7.57,1.26,1.24,1.52.11.04.29,0,.37-.1.48-.57.97-1.15,1.45-1.72.31-.37-.22-.9-.53-.53-.43.51-.86,1.02-1.29,1.53-.83-.53-.62-2.02.07-2.59,1.18-.96,2.94.22,3.37,1.41.13.35.6.36.73,0,.28-.83,1.2-1.17,2-1.27,1.07-.14,2.15.14,3.22.13.57,0,1.13-.09,1.65-.32.49-.21.9-.56,1.36-.83.37-.22.76-.35,1.15-.09.3.21.52.53.73.82.46.63,1.04,1.35,1.89.92.43-.22.05-.87-.38-.65Z"/>
      <path class="cls-1" d="M237.37,210.12c-.6.17-.7-1.03-.75-1.39-.09-.62-.31-1.29-.95-1.52-.74-.26-1.43.29-1.77.9-.34.58-.38,1.57-1.06,1.89-.66.32-1.51-.05-2.18-.19-.77-.16-1.56-.25-2.35-.27-1.55-.04-3.11.2-4.58.69-1.66.55-3.2,1.42-4.52,2.57-.37.32.17.85.53.53,2.32-2.01,5.4-3.09,8.47-3.03.76.01,1.51.09,2.25.25.73.15,1.47.42,2.23.29.78-.13,1.22-.73,1.49-1.43.13-.33.22-.69.41-.99.17-.26.49-.62.84-.49.29.11.37.5.42.76.07.35.07.71.18,1.05.22.66.76,1.32,1.54,1.11.47-.13.27-.86-.2-.73Z"/>
      <path class="cls-1" d="M32.15,208.04c-.73-.33-1.49-.2-2.22.05-.66.22-1.41.62-2.12.52-.43-.06-.7-.38-.99-.68-.28-.28-.59-.53-.99-.61-.7-.14-1.43.17-1.92.68-.58.6-.82,1.44-.43,2.21.22.43.87.05.65-.38-.49-.96.95-2.23,1.84-1.64.34.22.57.59.9.83.28.21.6.32.95.35.65.06,1.3-.18,1.9-.4.62-.22,1.41-.57,2.06-.27.44.2.82-.45.38-.65Z"/>
    </g>
    <g>
      <path class="cls-1" d="M103.55,177.85c.81,0,1.46.25,1.95.64,0,0,0,0,0-.01.03.02.06.04.07.07,0,0,0,0,0,0,.09.08.18.16.26.25.25.05.55-.14.46-.46-.07-.27-.24-.44-.49-.56-.06-.03-.12-.06-.18-.08-.06-.18-.25-.29-.42-.28-.04-.03-.08-.07-.12-.11-.36-.37-.82-.76-1.03-1.24-.24-.57-.14-1.29-.1-1.89.02-.34.07-.67.11-1.01.05-.36.05-.73.14-1.08.08-.29.17-.55.13-.85-.03-.27-.13-.53-.26-.76-.22-.4-.58-.7-1-.87-.83-.33-1.81-.05-2.37.64-.42.52-.49,1.11-.54,1.73-.07-.13-.15-.26-.25-.38-.51-.6-1.43-.95-2.12-.46-.44.31-.72.82-.9,1.34-.04-.13-.09-.25-.15-.37-.45-.92-1.46-1.23-2.36-.78-.82.4-1.44,1.32-1.43,2.25,0,1.14.88,2.18.7,3.33-.11.68-.65,1.18-1.15,1.6-.16.13-.32.28-.5.37,0-.38-.62-.51-.74-.09-.12.42,0,.91.52.91.31-.1.65-.15,1.04-.15.72,0,1.32.2,1.79.52.19,0,.37,0,.56-.02.71-.04.91-.07,1.76-.23,1.39-.25,2.76-.58,4.15-.8.51-.69,1.33-1.17,2.46-1.17Z"/>
      <path class="cls-2" d="M95.48,180.44c3.49-.02,3.92-.16,7.32-.95.32-.08,1.44-.83,1.76-.81.09-.19.17-.63.26-.59-.2-.17-.38-.37-.57-.57-.39-.41-.77-.8-.95-1.35-.18-.54-.13-1.15-.1-1.71.04-.67.14-1.33.21-2,.05-.52.33-1,.1-1.51-.15-.33-.43-.58-.77-.68-.8-.23-1.57.34-1.73,1.13-.07.32-.05.66-.08.99-.03.3-.1.58-.18.87-.14.53.08,1.04-.33,1.49-.2.22-.55.09-.63-.17-.13-.41-.12-.83-.11-1.26.01-.39.02-.8-.2-1.13-.31-.48-.95-.75-1.37-.28-.68.75-.72,1.8-.69,2.8.03.34.03.68.03,1.03,0,.49-.75.48-.75,0,0-.4-.03-.8-.04-1.21,0,0,0,0,0,0-.04-.35-.15-.68-.23-1.02-.12-.54-.22-1.23-.73-1.55-.75-.47-1.66.46-1.88,1.12-.16.49-.03.99.12,1.46.18.56.42,1.1.49,1.69.16,1.31-.66,2.22-1.61,2.99-.08.07-.17.33-.26.59.24-.05,2.66.61,2.94.61Z"/>
    </g>
    <g>
      <path class="cls-1" d="M183.77,198.65s-.05,0-.07,0c.02-.2-.1-.43-.36-.44-.19-.01-.33-.25-.44-.37-.18-.2-.38-.36-.6-.51-.18-.12-.39-.25-.48-.45-.09-.21-.03-.45.02-.66.13-.59.3-1.17.56-1.71.24-.5.53-.97.47-1.55-.1-.89-.91-1.72-1.76-1.97-.42-.12-.89-.09-1.28.14-.34.2-.59.53-.82.84-.03.03-.05.07-.08.1,0-.08-.02-.16-.03-.23-.15-.8-.74-1.32-1.57-1.16-.8.15-1.46.77-1.93,1.41,0,0-.01.02-.02.03,0-.29-.03-.57-.1-.86-.1-.44-.34-.86-.78-1.01-.37-.13-.79-.02-1.11.2-.4.28-.7.7-.97,1.1-.3.44-.54.9-.63,1.42-.19,1.04.04,2.09-.11,3.13-.07.49-.17,1.03-.41,1.46-.07.13-.18.32-.3.49-.1-.07-.23-.09-.37.01-.25.18-.42.41-.38.73.01.03.03.07.04.1.05.06.1.12.15.19.17,0,.35.01.52.01.5,0,.99,0,1.48.02,1.88.05,3.77.12,5.64-.11,1.01-.12,1.98-.26,3.01-.25.37,0,1.86-.06,2.56.08.06-.03.12-.06.18-.08,0-.03,0-.05.01-.08,0,0-.02,0-.03,0Z"/>
      <path class="cls-2" d="M172.56,199.81c-.53-.25.49.02.02,0,.25.01.5.04.75.04.56.01,1.13-.02,1.69-.05,1.19-.06,2.38-.12,3.56-.25.96-.11,2.28-.55,3.53-.65.3-.02.58-.03.86,0-.32-.15-.51-.46-.8-.71-.4-.35-.88-.53-1.07-1.07-.16-.45-.03-.95.08-1.4.13-.53.31-1.04.54-1.53.22-.47.54-.9.31-1.43-.16-.36-.45-.67-.78-.87-.3-.18-.67-.29-1-.11-.3.16-.54.52-.74.79-.19.26-.41.56-.6.88-.03.15-.06.31-.12.45-.09.25-.27.48-.27.74-.01.48-.75.49-.75,0,0-.49.17-.99.42-1.45.04-.3.04-.61.02-.9-.03-.52-.2-1.02-.81-.86-.62.17-1.12.69-1.47,1.21-.34.5-.64,1.11-.64,1.73,0,.49-.75.48-.75,0,0-.56.06-1.11.09-1.67.02-.48.07-1.1-.15-1.54-.41-.8-1.34.69-1.54.99-.56.89-.46,1.87-.44,2.87.02.86-.09,1.77-.42,2.58-.14.34-.33.64-.56.92-.21.26-.47.56-.81.63-.06.01-.11.01-.16,0,.18.07.34.17.49.28.52.02,1.04.15,1.53.38Z"/>
    </g>
    <g>
      <path class="cls-1" d="M217.35,33.48c-1.9.67-3.99.44-5.97.43-2.55-.01-5.1-.03-7.65-.04-9.77-.05-19.53-.11-29.3-.16-.04,0-.07.01-.12,0-.04,0-.09,0-.13,0-.12,0-.25,0-.37,0,0,0,0-.01,0-.02-.97-.05-1.95.02-2.9.23-.94.21-1.87.58-2.84.59-5.21.34-10.45.23-15.64-.34-3.24-.36-6.46-.89-9.64-1.6-3.09-.69-6.21-1.48-9.18-2.59-2.46-.92-5.08-2.35-5.86-5.05-.05-.18.06-.43.26-.46,9.9-1.6,19.93-.64,29.9-.53,2.52.03,5.04,0,7.55-.14,2.54-.14,5.07-.41,7.6-.69,4.87-.54,9.72-1.04,14.63-.97,9.46.14,18.91,1.92,27.76,5.28,1.55.59,4.06,1.2,4.36,3.15.24,1.53-1.21,2.48-2.47,2.92Z"/>
      <path class="cls-3" d="M218.9,30.16c-.43-.8-1.44-1.16-2.23-1.47-8.57-3.43-17.73-5.38-26.95-5.75-4.74-.19-9.44.12-14.15.63-4.87.53-9.72,1.06-14.63,1.11-9.71.1-19.44-.97-29.13.02-1.07.11-2.13.25-3.19.41.82,2.12,3.04,3.31,5.07,4.08,2.82,1.07,5.79,1.83,8.72,2.5,6.23,1.43,12.61,2.18,19,2.24,2.01.02,4.02-.04,6.02-.16.06-.04.13-.07.23-.06,1.13.13,2.2-.38,3.29-.59,1.07-.21,2.15-.27,3.24-.19,8.27.05,16.54.09,24.81.14,4.98.03,9.96.05,14.94.08,1.54,0,3.41-.08,4.62-1.2.52-.49.7-1.16.35-1.81Z"/>
    </g>
    <g>
      <path class="cls-1" d="M86.13,57.98c-.15-1.02-1.02-1.63-1.87-2.07-.98-.51-2.01-.91-3.07-1.21-2.1-.58-4.31-.73-6.47-.45-1.06.14-2.11.38-3.12.74-.06.02-.11.06-.15.1-3.98.58-7.89-1.25-11.84-1.48-1.02-.06-2.04,0-3.04.21-1.06.23-2.05.67-3,1.17-.99.52-1.95,1.09-2.96,1.55-1.05.47-2.17.75-3.32.86-2.36.21-4.73-.16-7.09-.15-2.02,0-4.02.37-5.9,1.13-1.79.72-3.45,1.75-4.89,3.05-.73.66-1.39,1.38-1.99,2.16-.29.38-.56.77-.81,1.17-.26.42-.57.88-.68,1.37-.25,1.18.92,1.66,1.84,1.96,1.05.34,2.17.44,3.27.39,2.28-.09,4.48-.73,6.73-1.03,5.02-.68,10.04.45,14.96,1.29,4.3.74,8.76,1.27,13.08.35,2.05-.43,4.02-1.22,5.75-2.41,1.66-1.14,3.13-2.54,4.85-3.6.83-.51,1.72-.92,2.68-1.14,1.12-.25,2.28-.2,3.42-.37,1.02-.15,1.98-.49,2.71-1.24.6-.62,1.03-1.48.9-2.36Z"/>
      <path class="cls-3" d="M85.43,58.65c-.19.83-.88,1.52-1.64,1.88-.99.46-2.16.45-3.22.53-1.03.08-2.02.25-2.98.65-1.78.74-3.27,2-4.77,3.18-1.59,1.25-3.25,2.32-5.18,2.98-3.95,1.35-8.28,1.16-12.36.58-4.72-.67-9.4-1.88-14.2-1.9-1.17,0-2.35.07-3.51.23-1.1.15-2.18.38-3.27.58-2.1.39-4.34.74-6.41.04-.39-.13-1.09-.32-1.28-.73-.2-.43.23-1,.44-1.34.48-.8,1.04-1.56,1.66-2.25,1.25-1.39,2.76-2.55,4.42-3.42,1.65-.86,3.47-1.44,5.33-1.63,2.25-.24,4.51.08,6.76.12,1.13.02,2.26-.03,3.37-.24,1.07-.21,2.07-.61,3.04-1.1,1.88-.95,3.64-2.14,5.77-2.44,1.99-.28,4.02.09,5.97.5,1.97.42,3.95.91,5.97,1,.98.04,1.96-.02,2.93-.23.14-.03.21-.12.24-.22,3.82-1.11,8.07-.73,11.58,1.17.79.43,1.57,1.06,1.34,2.06Z"/>
    </g>
    <g>
      <path class="cls-1" d="M20.29,122.98c-.79.8-.89,2.07-.4,3.06.48.99,1.44,1.64,2.48,1.93,1.17.33,2.43.23,3.59-.08,1.21-.32,2.34-.87,3.43-1.46,1.04-.55,2.11-1.1,3.05-1.8-.06.99-.08,1.97-.06,2.96.04,1.93.16,3.86.3,5.79.12,1.71.31,3.43.71,5.11.13,1.16-.1,2.32-.43,3.44-.65,2.22-1.71,4.45-1.39,6.82.19,1.35.77,2.6,1.15,3.9.34,1.16.53,2.46.06,3.6-.3-.07-.55.24-.55.53,0,.2.07.4.12.6.06.21.11.42.17.63.09.33.16.69.31,1,.14.28.39.46.68.55.34.11.69.09,1.04.08.2,0,.39,0,.58.03.16.03.33.07.49.11.3.07.65.14.94.02.14-.06.24-.15.3-.27.03.02.06.04.1.05.18.06.35-.03.46-.18.04-.06.08-.13.11-.21.35.05.71.11,1.06.15.18.02.33-.04.48-.13.07-.04.13-.09.18-.16.22.06.45.07.68.01.1-.02.13-.11.12-.18,0,0,0,0,0,0,.18-.42.16-.91,0-1.34-.14-.38-.38-.7-.67-.99-.15-.14-.34-.35-.55-.46.03-.05.03-.11,0-.17-.21-.5-.16-1.06-.05-1.58.11-.53.28-1.06.44-1.58.3-.98.63-1.94.99-2.9.35-.92.72-1.84,1.23-2.68.83-1.37,1.96-2.61,2.39-4.18,2.7,0,5.39.81,7.85,1.85,1.51.64,3.01,1.38,4.65,1.61.78.11,1.58.09,2.34-.14.76-.23,1.42-.68,2.09-1.09.73-.45,1.48-.76,2.32-.95.87-.2,1.77-.34,2.65-.47,1.8-.25,3.61-.37,5.43-.38.02,0,.03,0,.04,0,.28.58.44,1.2.51,1.85.09.82.07,1.65.14,2.47.07.84.21,1.67.42,2.48.21.83.54,1.61.8,2.42.25.76.44,1.58.24,2.38-.18.73-.64,1.47-.38,2.23.01.03.03.06.05.08-.27.52-.24,1.14-.15,1.71.08.54.18,1.2.69,1.51.25.15.54.21.83.26.32.05.65.08.97.11.33.03.66.08,1,.1.21.02.32-.08.39-.23.24,0,.49-.04.72-.13.2-.08.39-.18.44-.41.04-.21-.03-.45-.08-.65-.05-.22-.12-.44-.21-.65-.17-.42-.39-.82-.66-1.19-.25-.33-.56-.74-.97-.89,0-.09,0-.17,0-.26,0-.88-.03-1.78.18-2.64.18-.74.53-1.43.81-2.13.27-.68.52-1.41.44-2.15-.04-.37-.16-.72-.34-1.05-.17-.32-.37-.62-.52-.95-.46-1.06.13-2.07.72-2.99.09-.02.18-.04.27-.06.02,0,.04,0,.06,0,0,0,0,0,0,0,.03.01.06.02.1.01.25-.04.5-.05.75-.04.23.01.46.04.68.09.04.22.08.44.12.67.38,1.96.91,3.89,1.6,5.77.17.47.35.93.54,1.39.19.46.41.92.57,1.39.15.46.23.93.08,1.4-.13.4-.36.79-.29,1.23.02.12.06.24.12.34-.01.02-.02.03-.03.05-.33.76-.24,1.67.08,2.41.14.34.38.56.73.67.37.12.77.14,1.15.15.39,0,.79-.02,1.18,0,.2.01.39.06.59.07.16.01.31-.03.41-.15.19-.22.18-.62.16-.89-.02-.31-.09-.62-.21-.91-.23-.55-.62-1.03-1.12-1.35.05-.28.02-.59,0-.87-.02-.51-.07-1.02-.15-1.52-.07-.5-.17-1.01-.16-1.52,0-.5.13-1,.23-1.49.21-1,.22-2,.09-3.02-.13-.97-.37-1.91-.61-2.85.08-.02.16-.03.25-.05,2.15-.55,3.58-2.37,4.71-4.16,1.26-1.97,2.39-4.03,3.41-6.13,1.01-2.08,1.86-4.22,2.66-6.4.35-.95.74-1.94,1.49-2.66.74-.71,1.79-1.05,2.8-.95,0,0,0,0,0,0,.02.01.05.02.08.02,0,0,.02,0,.03,0,.02,0,.04.02.07.02,0,0,.01,0,.02,0,.02,0,.04.02.07.02.09,0,.14-.06.16-.13.12.1.24.19.37.28,1.03.69,2.31,1.03,3.55,1.06.62.02,1.24-.05,1.84-.19.26-.06.58-.12.78-.32.1-.1.15-.22.19-.35.03-.12.04-.25.11-.35.11-.16.34-.14.51-.13.2.01.41.04.61-.03.51-.17.54-.89.42-1.35.4-.09.78-.4,1.05-.68.33-.33.61-.75.71-1.22.05-.24.05-.48,0-.73-.05-.27-.17-.51-.26-.77-.28-.81-.05-1.86-.74-2.49-.05-.05-.62-.5-.83-.74-.29-.32-.56-.66-.81-1,.23-.7.4-1.43.51-2.16.21-1.38.29-2.78.27-4.18.2,0,.4.04.59.09.45.12.88.18,1.34.14.46-.04.91-.14,1.35-.23.88-.19,1.77-.38,2.62-.7.41-.15.81-.38,1.25-.48.39-.08.8-.04,1.18-.17.66-.22,1.22-.71,1.56-1.32.38-.68.5-1.53.16-2.25-.34-.71-1.02-1.18-1.73-1.48-.4-.17-.81-.3-1.22-.42-.44-.13-.88-.26-1.33-.35-.44-.08-.89-.13-1.34-.08-.44.04-.86.17-1.26.35-.38.17-.72.35-.99.68-.24.3-.42.64-.7.9-.51.48-1.23.73-1.92.66,0-.02-.01-.04-.02-.06-.21-.7-.58-1.37-1.16-1.82.64-.18,1.29-.29,1.96-.27.17,0,.35.02.52.04.14.02.28.06.42.05.13,0,.25-.06.3-.19.04-.11,0-.24-.03-.35-.15-.5-.5-.92-.93-1.21-.49-.33-1.07-.49-1.65-.53-.32-.03-.64-.02-.96,0-.29.02-.58.05-.85.13-.3-.19-.62-.34-.97-.44.39-.23.83-.39,1.28-.47.15-.03.16-.23.04-.31-1.4-.86-3.2-.97-4.7-.31-.78-.77-1.87-1.2-2.97-1.15-.16,0-.24.22-.09.31.47.27.86.67,1.13,1.15-.59-.18-1.18-.32-1.79-.41-.69-.1-1.45-.24-2.05.21-.08.06-.12.18-.04.26.21.21.45.39.71.53.12.06.26.1.37.17.05.03.02.04-.02.09-.04.05-.09.08-.14.12-.09.08-.19.16-.27.25-.01,0-.02,0-.03,0-.89-.12-1.79-.06-2.65.15-.6.15-1.44.31-1.65.99-.02.07.01.15.07.19.35.22.75.22,1.15.27.19.02.39.07.56.18.1.07.19.16.28.24-.71.41-1.62.69-1.91,1.51-.24-.19-.47-.38-.71-.57-.43-.34-.88-.66-1.37-.91-.53-.27-1.1-.47-1.68-.58-1.18-.23-2.41-.15-3.57.13-.58.14-1.15.33-1.69.58-.47.21-.95.63-.82,1.2.06.26.26.42.51.5.23.08.46.1.5.38.03.25,0,.52.03.78.03.25.07.51.14.75.28.98.88,1.87,1.68,2.51.4.32.84.57,1.31.74.56.21,1.14.27,1.73.28,1.16,0,2.6-.2,3.52.69.39.38.59.91.69,1.44.05.27.07.55.08.83.01.32.01.64-.04.95-.11.62-.5,1.07-.96,1.48-.41.37-.89.87-1.49.86-.07,0-.12.04-.15.09-.19.05-.39.09-.59.13-1.87.35-3.79.24-5.67.03-1.94-.21-3.88-.48-5.82-.68-4.03-.42-8.07-.7-12.11-.83s-8.1-.12-12.14.03c-2.02.08-4.04.19-6.06.34-1.96.14-3.96.24-5.9.59-3.47.63-6.12,2.97-8.63,5.29,0,0-.02.02-.02.02-.02,0-.04.02-.07.04-.75.65-1.54,1.25-2.36,1.81-.73.49-1.49.95-2.26,1.37-.39.21-.78.41-1.19.6-.43.2-.86.34-1.33.41-.45.08-.91.15-1.37.17-.43.02-.89,0-1.3-.18-.17-.08-.34-.19-.45-.35-.11-.17-.16-.37-.2-.57-.09-.45-.1-.9-.06-1.36.71-.02,1.42-.19,2.03-.57.55-.34,1-.83,1.26-1.43.13-.29.2-.6.22-.92.02-.36-.05-.71-.14-1.05-.1-.39-.19-.77-.31-1.15-.11-.38-.25-.74-.37-1.12-.24-.72-.36-1.46.01-2.16.07-.12-.03-.24-.13-.25-.08-.05-.21-.03-.25.09-.13.38-.53.62-.84.84-.33.22-.67.42-1.01.62-.6.35-1.2.7-1.71,1.16-.54.48-.96,1.08-1.23,1.76-.27.69-.38,1.49-.19,2.21.15.58.52,1.09,1.04,1.37ZM35.58,155.83c.11-.22.15-.46.17-.71.03.08.06.17.1.25.06.14.17.29.21.44-.04.02-.09.04-.13.07-.04.02-.09.04-.13.07-.01,0-.02.02-.03.02,0,0,0-.01,0-.02-.02-.1-.11-.13-.19-.12Z"/>
      <path class="cls-1" d="M108.18,108.13c.01.19.02.38.03.57.01,0,.02,0,.04.01.28.11.56.03.84-.05.31-.09.62-.18.93-.26.59-.17,1.19-.38,1.81-.42.32-.02.63-.03.94-.09.28-.05.55-.11.82-.17.5-.11,1.01-.24,1.47-.47.42-.21.95-.56,1.08-1.05.14-.55-.48-.93-.95-.97-.57-.05-1.16.09-1.7.24-.55.15-1.08.35-1.61.54-.63.22-1.26.43-1.92.54-.62.11-1.24.14-1.87.12.06.49.08.98.11,1.46Z"/>
      <path class="cls-3" d="M108.03,106.32c.62.03,1.24,0,1.85-.11.62-.11,1.21-.29,1.8-.5.58-.21,1.16-.43,1.75-.59.57-.16,1.22-.3,1.82-.23.52.07,1.12.41,1.21.97.1.57-.35,1.05-.77,1.37-.43.32-.95.52-1.46.66-.58.16-1.18.29-1.77.36-.36.04-.73.03-1.09.1-.37.08-.72.19-1.08.29-.37.11-.74.21-1.11.32-.31.09-.63.17-.94.07,0,.18.01.36.02.55.38,0,.72.13,1.1.2.44.08.9.04,1.33-.04.86-.15,1.72-.34,2.56-.58.42-.12.83-.26,1.23-.43.39-.17.77-.33,1.2-.36.37-.03.72-.05,1.05-.21.3-.14.57-.34.79-.59.48-.53.79-1.33.63-2.04-.17-.74-.8-1.27-1.45-1.59-.37-.18-.76-.31-1.16-.44-.42-.13-.83-.26-1.26-.36-.43-.1-.86-.17-1.3-.16-.44,0-.85.11-1.26.27-.37.15-.73.32-1,.63-.24.28-.41.61-.67.88-.49.51-1.18.81-1.89.84-.09,0-.17,0-.26,0,.05.24.1.48.13.72Z"/>
      <path class="cls-6" d="M107.85,112.2s-.07.02-.11,0c-.4-.1-.63-.49-.75-.85-.15-.42-.16-.88-.16-1.32,0-.42.04-.85.22-1.23.08-.17.21-.36.39-.45.14-.07.3-.06.43.01-.01-.21-.02-.41-.03-.62-.04-.08-.08-.09-.26-.14-.01,0-.04,0-.05,0-.05,0-.09,0-.14.02-.09.02-.18.07-.26.12-.18.12-.31.28-.43.46-.23.35-.37.76-.43,1.17-.12.83.04,1.74.46,2.47.24.42.6.81,1.08.94.02-.2.03-.39.04-.59Z"/>
      <path class="cls-1" d="M107.33,116.64s-.15-.24-.26-.35c-.58-.8-1.08-1.65-1.49-2.54-.45-.98-.83-2.01-.92-3.09-.1-1.11.23-2.17.4-3.25.08-.53.12-1.07.03-1.59-.08-.46-.23-.91-.45-1.33-.45-.86-1.16-1.54-2.01-2-.85-.46-1.86-.71-2.83-.68-.46.01-.94.11-1.32.38-.34.24-.56.61-.67,1-.25.91.05,1.82.45,2.63.24.48.5.93.74,1.41.23.48.42.98.6,1.48.18.5.37,1.01.63,1.48.23.41.5.79.78,1.16.56.74,1.18,1.47,1.54,2.33.37.88.43,1.86.15,2.78-.14.46-.36.89-.66,1.27-.18.24-.39.46-.57.69.22.02.44.16.6.32.22.22.42.67.77.7.19.01.36-.15.52-.21.16-.06.34-.07.51-.03.36.07.61.33.73.67.06.18.09.37.21.52.1.12.24.21.39.26.32.1.62,0,.85-.24.22-.24.34-.56.47-.85.14-.31.3-.62.55-.86.45-.42,1.07-.59,1.66-.5-.5-.5-.97-1.02-1.4-1.59Z"/>
      <path class="cls-3" d="M20.59,122.75c.11.04.13.16.09.25,0,.04-.01.08-.05.12-.72.65-.88,1.72-.52,2.6.4.95,1.27,1.6,2.24,1.89,2.27.7,4.64-.29,6.63-1.33.59-.31,1.18-.63,1.76-.96.59-.33,1.17-.67,1.71-1.09.03-.02.07-.04.1-.04.1-.07.28-.03.26.13-.15,1.93-.08,3.87.02,5.79.1,1.89.19,3.78.43,5.66.09.71.2,1.41.35,2.1.03.02.05.05.05.09.03.16.05.32.07.47.03.14.07.29.11.43.02.08-.01.14-.07.18.03,1.99-.82,3.92-1.39,5.81-.34,1.14-.61,2.33-.5,3.53.12,1.4.73,2.69,1.13,4.01.39,1.29.6,2.71.09,3.98.53.1,1.11.1,1.6-.13.27-.13.49-.33.61-.6.17-.38.13-.81.13-1.21,0-1.51.53-2.92,1.13-4.28.61-1.38,1.29-2.75,1.56-4.26.13-.7.22-1.46.77-1.98.53-.51,1.31-.72,2.01-.89.89-.22,1.79-.33,2.69-.34,0,0,0-.02,0-.03.04-.19.3-.13.32.03,2.28.01,4.56.58,6.68,1.38,1.55.58,3.03,1.36,4.62,1.82.77.22,1.57.36,2.38.31.82-.06,1.56-.36,2.26-.77.69-.41,1.34-.86,2.1-1.14.83-.31,1.71-.45,2.57-.6,1.76-.3,3.53-.48,5.31-.54.4-.01.81-.02,1.21-.02-.02-.03-.03-.05-.05-.08-.42-.7-.92-1.37-1.36-2.06-.43-.68-.84-1.38-1.16-2.11-.71-1.62-1.03-3.52-.35-5.21.08-.2.4-.11.32.09-.61,1.5-.39,3.19.2,4.67.6,1.51,1.57,2.81,2.45,4.16.44.68.75,1.39.89,2.19.13.79.14,1.6.17,2.39.04.84.14,1.67.32,2.49.18.82.45,1.61.74,2.4.31.85.61,1.75.51,2.66-.05.44-.21.85-.35,1.27-.12.34-.22.7-.15,1.05.61-.16,1.18.28,1.61.69.11.11.22.24.34.35.13.11.24.08.32-.06.07-.12.1-.27.11-.41.02-.21.03-.42.03-.64.02-.85-.03-1.71.1-2.56.12-.77.42-1.48.73-2.2.28-.65.58-1.34.62-2.06.02-.35-.03-.7-.17-1.03-.14-.35-.36-.66-.53-.99-.17-.31-.29-.64-.32-.99-.03-.33.02-.66.12-.97.21-.67.61-1.26.98-1.85.21-.34.43-.69.58-1.06.17-.39.28-.81.34-1.23.12-.86.01-1.75-.33-2.55-.08-.2.21-.36.29-.17.62,1.46.54,3.13-.22,4.52-.09.17-.19.34-.3.51,0,0,.01,0,.02,0,.04,0,.08,0,.12.01,2.1-.33,3.92,1.24,6,1.09,2.23-.16,3.83-1.99,4.98-3.73,1.28-1.94,2.42-3.99,3.44-6.08,1.03-2.1,1.94-4.26,2.73-6.46.34-.96.7-1.94,1.36-2.74.65-.79,1.6-1.29,2.61-1.4.25-.03.51-.03.76,0,.03,0,.05,0,.07.02,0,0,0,0,.01,0,.03,0,.05,0,.07.02,0,0,.02,0,.02,0-.27-.26-.52-.53-.78-.81-.41-.43-.87-.81-1.37-1.14-.56-.36-1.16-.65-1.8-.86-.57-.18-1.34-.44-1.88-.06-.18.12-.34-.17-.17-.29.47-.33,1.08-.25,1.6-.12.55.13,1.09.33,1.61.59.53.26,1.02.58,1.48.95.47.38.86.82,1.27,1.25.44.46.93.82,1.51,1.1.55.26,1.14.44,1.75.54.6.1,1.22.12,1.83.06.31-.03.62-.08.92-.16.24-.06.56-.1.66-.36.1-.26.1-.54.36-.7.2-.12.44-.11.66-.1.17,0,.44.06.57-.08.1-.11.13-.33.13-.47,0-.16-.02-.32-.07-.47-.4-.05-.73-.31-1.11-.43-.49-.16-.88.14-1.26.41-.39.28-.81.49-1.3.55-.47.06-.96.01-1.4-.16-.49-.2-.88-.53-1.22-.93-.6-.72-1.03-1.6-1.16-2.53-.13-.95.08-1.86.68-2.62.33-.42.69-.79.93-1.27.22-.44.34-.93.37-1.42.06-1-.32-1.9-.88-2.71-.55-.8-1.21-1.52-1.69-2.37-.55-.97-.79-2.07-1.28-3.06-.46-.93-1.08-1.83-1.25-2.87-.14-.84,0-1.8.65-2.41.74-.69,1.86-.68,2.8-.53,1.99.32,3.8,1.65,4.39,3.63.32,1.05.15,2.11-.06,3.16-.11.56-.23,1.13-.25,1.71-.02.57.07,1.14.21,1.7.28,1.05.74,2.05,1.27,2.99.23.41.49.81.76,1.2.28-.91.45-1.86.54-2.82-.02,0-.03,0-.05,0-1.06-.28-1.59-1.48-1.76-2.46-.17-1-.02-2.17.7-2.94.19-.2.44-.37.72-.42.13-.02.27-.02.38.04.01,0,.03.02.04.03-.02-.27-.05-.53-.08-.8-.02-.04-.03-.09-.02-.13-.03-.21-.06-.42-.11-.63-.02-.11-.05-.22-.08-.33,0-.02-.01-.03-.01-.05-.21-.77-.6-1.52-1.3-1.94-.12-.07-.09-.21,0-.28.02-.03.05-.06.1-.08.56-.18,1.12-.31,1.71-.35.29-.02.58-.02.86,0,.14,0,.28.02.42.04.06,0,.13.02.19.03.02,0,.03,0,.05,0,0-.01,0-.03,0-.04-.24-.97-1.27-1.47-2.18-1.57-.32-.03-.64-.03-.96,0-.2.01-.4.03-.6.07.24.21.46.45.64.71.12.18-.17.34-.29.17-.21-.31-.47-.58-.77-.79-.06,0-.1-.04-.13-.09-.37-.24-.8-.4-1.24-.47-.16-.02-.14-.23-.04-.31.39-.29.82-.5,1.28-.63-1.24-.61-2.75-.65-4.02-.09-.05.09-.16.14-.25.05-.04-.02-.08-.05-.1-.1-.59-.59-1.37-.97-2.2-1.06.43.36.76.82.97,1.34.05.12-.1.24-.21.2-.65-.22-1.32-.39-2-.5-.34-.05-.68-.1-1.02-.11-.27-.01-.51.03-.74.14.2.17.42.32.66.42.13.06.28.1.36.24.07.13.03.27-.04.38-.08.12-.2.2-.31.29-.12.11-.24.22-.34.34-.22.25-.4.53-.55.84-.09.19-.38.02-.29-.17.14-.28.31-.55.51-.79-.73-.07-1.46-.03-2.18.13-.33.08-.66.15-.98.28-.21.08-.42.2-.53.4.31.14.68.12,1.02.17.19.03.38.09.54.19.18.12.31.29.49.42.1.07.11.22,0,.29-.67.44-1.76.67-2,1.56.52.41,1.07.78,1.69,1.02.24.09.49.16.75.21.21.04.12.36-.09.32-1.08-.19-1.97-.84-2.81-1.5-.88-.69-1.74-1.41-2.81-1.78-1.13-.39-2.36-.44-3.54-.24-.6.1-1.19.26-1.77.47-.27.1-.54.2-.79.34-.22.13-.43.32-.43.59,0,.28.2.35.43.42.24.07.46.18.55.43.09.25.04.54.06.8.01.25.05.49.11.73.24.99.83,1.88,1.63,2.51.39.31.84.55,1.31.71.58.19,1.18.22,1.79.21,1.18-.02,2.54-.1,3.45.79.8.77.92,2.05.86,3.1-.02.33-.07.65-.21.96-.12.26-.28.49-.47.7-.2.22-.42.42-.64.61-.21.18-.43.37-.67.51-.01.05-.05.09-.11.11-3.61,1.16-7.48.32-11.14-.1-4-.46-8.02-.78-12.04-.96-4.01-.18-8.02-.21-12.03-.1-4,.11-8.01.35-11.99.74-.99.1-1.98.22-2.93.49-.82.23-1.61.58-2.36.99-1.51.84-2.85,1.97-4.13,3.12-.31.28-.62.56-.92.84-.02.02-.04.03-.07.04,0,0-.01.02-.02.02-1.42,1.23-2.97,2.3-4.63,3.2-.84.45-1.69.91-2.64,1.07-.91.15-1.97.36-2.85,0-.46-.19-.75-.52-.87-1-.13-.54-.16-1.11-.1-1.66,0-.03.01-.05.02-.07-.02-.09.03-.21.16-.21,1.28,0,2.62-.57,3.14-1.82.12-.29.19-.59.19-.9,0-.35-.1-.7-.18-1.04-.1-.38-.19-.76-.31-1.13-.11-.35-.25-.7-.36-1.05-.16-.52-.24-1.04-.16-1.55-.05.04-.1.08-.14.12-.26.2-.54.38-.82.56-.57.35-1.17.67-1.72,1.06-.55.39-1.03.87-1.37,1.45-.35.61-.56,1.32-.53,2.03.03.73.38,1.5,1.09,1.79Z"/>
      <path class="cls-1" d="M94.32,108.91c-.43.7-.44,1.63-.33,2.41.11.81.36,1.59.62,2.36.19.56.41,1.15.82,1.6.49.53,1.19.65,1.88.51.63-.13,1.25-.47,1.53-1.07.15-.32.2-.68.23-1.03.03-.35.04-.71.02-1.07-.04-.74-.19-1.47-.5-2.14-.53-1.13-1.59-2.04-2.85-2.19-.19-.06-.41-.06-.61,0-.34.09-.62.33-.8.63ZM94.53,109.22c.13-.26.32-.49.6-.59.14-.05.29-.07.43-.04.02.01.33.05.54.11,1.09.3,1.94,1.24,2.33,2.29.23.62.32,1.27.33,1.93,0,.32-.01.64-.05.96-.04.31-.11.62-.28.88-.31.48-.94.71-1.49.76-.32.03-.64-.01-.92-.17-.22-.13-.4-.32-.54-.53-.32-.47-.49-1.03-.66-1.56-.22-.67-.43-1.36-.51-2.06-.07-.64-.07-1.38.23-1.96Z"/>
      <path class="cls-1" d="M95.53,109.17c.21-.01.4.04.57.13.4.1.73.43.98.76.35.46.62.96.82,1.49.2.53.31,1.09.34,1.65.03.47-.01,1.01-.33,1.39-.33.39-.86.41-1.3.21-.51-.24-.81-.72-1.05-1.2-.28-.55-.56-1.12-.76-1.7-.18-.51-.32-1.09-.25-1.63.07-.55.39-1.05.99-1.08Z"/>
      <path class="cls-1" d="M90.35,109.66c-1.44-.3-2.85-.84-4.09-1.66-.6-.4-1.24-.86-1.62-1.48-.37-.6-.41-1.42.12-1.93.48-.46,1.23-.59,1.88-.56.72.04,1.42.3,2.04.66,1.39.8,2.35,2.12,3.55,3.15,0,0,0,0,0,0,.12.06.23.15.3.25.03.03.05.06.06.09.06.1.09.22.11.33.04.3-.07.59-.27.81-.53.58-1.38.47-2.08.33Z"/>
      <path class="cls-1" d="M92.35,108.8c.04-.17.01-.36-.09-.49-.07-.06-.14-.11-.21-.17,0,0,0,0,0,0-.03-.01-.05-.03-.07-.06-.93-.81-1.72-1.76-2.67-2.54-.98-.79-2.3-1.42-3.58-1.09-.28.07-.56.2-.77.41-.22.23-.3.54-.27.85.07.67.62,1.16,1.12,1.55,1.05.83,2.28,1.43,3.56,1.81.37.11.74.2,1.11.28.4.08.82.15,1.21.04.29-.08.58-.28.65-.59Z"/>
      <polygon class="cls-1" points="37.08 159.26 37.08 159.25 37.08 159.26 37.08 159.26"/>
      <path class="cls-6" d="M108.34,123.55c.23-.07.43-.23.61-.38.35-.3.66-.68.8-1.13.06-.22.09-.44.04-.67-.05-.26-.16-.5-.25-.74-.16-.43-.18-.88-.24-1.33-.03-.21-.07-.42-.14-.62-.03,0-.06,0-.09-.02-.6-.27-1.35-.12-1.81.34-.46.46-.54,1.18-.98,1.66-.45.49-1.25.5-1.7-.01-.12-.14-.19-.29-.24-.46-.05-.18-.09-.36-.23-.5-.11-.11-.26-.17-.42-.17-.18,0-.32.09-.47.17-.41.2-.77.03-1.06-.3-.19-.22-.54-.81-.9-.58-.02.01-.04.02-.06.02-.02.04-.04.07-.06.11-.4.79-.35,1.73-.08,2.55.14.43.35.84.6,1.21.27.4.61.8,1.02,1.06.8.5,1.85.46,2.62-.07.37-.25.73-.57,1.2-.61.45-.04.82.23,1.21.39.2.08.4.13.62.06Z"/>
      <path class="cls-5" d="M82.11,158.92c.08.27.18.58.44.73.29.16.67.19.99.2.33.02.67,0,1,0,.09,0,.19,0,.28,0,.03-.18.03-.36,0-.53-.02-.19-.05-.4-.12-.58-.06-.16-.19-.29-.33-.4-.13-.11-.27-.24-.43-.3-.2-.07-.11-.39.09-.32.21.07.38.22.55.36.17.14.32.3.41.5.09.21.12.45.15.68.03.21.04.42,0,.63.12.01.25.03.37.04.06,0,.14.03.19-.02.04-.04.06-.11.07-.16.03-.13.03-.27.03-.4,0-.26-.05-.53-.14-.78-.18-.52-.52-.97-.96-1.28,0,0,0,0,0,0-.14.29-.47.45-.76.27-.13-.08-.22-.2-.31-.32-.08-.1-.17-.25-.3-.27-.15-.02-.31.09-.44.16-.16.08-.33.15-.52.13-.1-.01-.19-.05-.27-.1-.21.56-.17,1.18,0,1.75Z"/>
      <path class="cls-3" d="M80.86,150.14c.3.91.64,1.82,1.02,2.7.35.83.79,1.73.47,2.64-.13.36-.37.75-.24,1.14.04.13.13.26.26.3.15.05.3-.05.43-.11.3-.16.62-.26.91,0,.11.1.19.23.28.34.07.08.16.19.28.16.12-.03.18-.19.2-.3.05-.17.04-.34.04-.52-.01-.49-.05-.99-.1-1.48-.06-.48-.15-.95-.2-1.43-.05-.48,0-.96.08-1.44.09-.48.21-.95.26-1.44.05-.48.05-.97.02-1.46-.07-.98-.29-1.95-.53-2.91-.05-.2-.1-.4-.16-.6-.83.09-1.65-.07-2.46-.32-.64-.2-1.28-.46-1.93-.62.33,1.81.78,3.59,1.36,5.34Z"/>
      <path class="cls-5" d="M73.15,158.72c.03.25.07.51.12.76.05.23.12.49.28.68.16.18.4.26.63.31.25.06.51.08.77.11.28.03.56.06.83.09.13.01.25.03.38.04.06,0,.13.01.19.02.08,0,.08,0,.1-.07.13-.54-.19-1.09-.49-1.52-.12-.18.17-.34.29-.17.31.44.6.98.56,1.53.18,0,.36-.04.54-.11.07-.03.18-.06.21-.13.03-.07.01-.17,0-.24-.06-.37-.17-.73-.32-1.07-.15-.33-.33-.65-.55-.94-.11-.15-.23-.29-.35-.42-.11-.11-.22-.24-.36-.32,0,.02,0,.05,0,.07-.01.2-.02.41-.08.61-.1.32-.36.64-.72.5-.19-.07-.32-.25-.46-.39-.15-.15-.3-.3-.47-.42-.23-.17-.52-.33-.8-.3-.3.4-.34.91-.28,1.39Z"/>
      <path class="cls-3" d="M38.74,153.3c.29-1,.61-1.99.96-2.96.35-.97.72-1.94,1.21-2.85.42-.78.95-1.48,1.44-2.21.47-.7.91-1.44,1.16-2.25-.52.01-1.04.06-1.56.14-.77.12-1.6.29-2.3.64-.35.18-.65.42-.83.76-.17.32-.24.69-.31,1.04-.13.75-.31,1.48-.58,2.2-.27.71-.58,1.41-.89,2.1-.51,1.13-1.02,2.31-1.2,3.55.01.02.02.05.02.09-.02.41.02.83.13,1.23.06.2.13.39.22.58.07.13.14.25.17.39.36.04.72.08,1.06.2.2.07.36.18.55.27.18.09.3-.08.46-.14.03-.01.06-.02.09-.02-.35-.9-.06-1.86.19-2.75Z"/>
      <path class="cls-5" d="M37.62,158.43c.01.13.02.29,0,.44.27.04.54.08.81.11.13.02.26.06.38,0,.04-.02.13-.06.17-.1-.01-.05,0-.1.01-.14.05-.1.02-.23,0-.34-.02-.14-.04-.27-.08-.4-.06-.22-.17-.44-.38-.55-.19-.1-.02-.39.17-.29.28.16.45.45.53.76.04.16.07.32.09.48.02.12.02.22,0,.33.13.04.27.05.41.03.36-.89-.29-1.84-1.01-2.33-.09-.06-.15-.08-.24-.02-.09.05-.17.12-.27.15-.24.08-.43-.07-.63-.18-.41-.22-.88-.27-1.34-.32,0,0,0,0,0,0,0,0-.02.02-.03.03-.05.03-.11.05-.16.08-.04.02-.08.04-.12.07,0,0-.02.02-.02.02.16.19.4.32.6.45.3.19.56.42.76.73.18.3.29.63.33.98Z"/>
      <path class="cls-5" d="M32.82,156.65s-.08-.04-.1-.08c-.06,0-.11.04-.13.1-.06.14.01.32.05.45.08.29.16.58.24.87.07.27.13.56.25.82.11.22.3.36.54.43.26.08.54.07.81.06.29,0,.57,0,.85.05.34.07,1.28.44,1.32-.16.04-.53-.26-1.08-.68-1.38-.17-.12,0-.41.17-.29.5.36.82.92.85,1.54.07.03.13.09.11.18,0,0,0,0,0,0,0,0,0,0,0,0,0,0,0,0,0,0,0,0,0,0,.02,0,.02,0,.04-.02.05-.04.05-.06.07-.15.09-.22.04-.16.05-.32.04-.48-.02-.34-.13-.68-.32-.96-.21-.32-.51-.5-.83-.7-.19-.12-.37-.26-.5-.43,0,0,0,0,0,0-.04-.03-.07-.07-.08-.12-.05-.08-.08-.16-.11-.26-.04.06-.09.12-.14.17-.41.41-1.02.55-1.59.55-.3,0-.6-.04-.89-.12Z"/>
      <path class="cls-1" d="M104.23,122.2c-.08.02-.19-.03-.2-.12-.04-.3-.12-.6-.26-.88-.08.09-.2.15-.32.19-.25.06-.51,0-.76-.05-.4-.09-.9-.35-.84-.84.05-.42.5-.68.9-.62.44.06.79.4,1.05.75.3.4.5.88.56,1.38.01.09-.02.18-.12.2Z"/>
      <path class="cls-1" d="M107.16,121.67c.05.21-.28.3-.32.09-.07-.34-.02-.68.09-1,0-.03.01-.05.03-.08.03-.09.07-.17.11-.26.16-.34.42-.77.86-.76.41.01.85.4.87.82.01.41-.41.67-.76.74-.29.06-.61.02-.85-.15-.05.2-.06.4-.02.6Z"/>
      <path class="cls-1" d="M89.79,132.35c.19-.39.53-.62.82-.94.1-.11.19-.25.18-.41-.02-.21-.19-.38-.29-.55-.21-.38-.17-.83.09-1.17.27-.36.67-.57,1.12-.59.58-.02,1.12.25,1.6.56.23.15.45.32.72.39.17.04.41.02.53-.14.07-.09.18-.14.29-.07.09.05.14.19.07.29-.09.12-.2.21-.33.27,0,.04,0,.07-.02.11-.17.39-.33.77-.5,1.16.02.04.02.08,0,.13-.08.27-.2.52-.33.77-.11.24-.22.47-.34.71,0,.04,0,.08-.02.12-.3.69-.62,1.37-.97,2.04,0,.01-.01.02-.02.03-.27.63-.56,1.26-.86,1.88-.01.02-.03.04-.04.06,0,.19-.02.37-.06.55-.06.26-.46.15-.4-.11.1-.43.05-.89-.12-1.29-.19-.43-.52-.71-.83-1.05-.34-.38-.52-.79-.53-1.3,0-.48.06-.99.27-1.42Z"/>
      <path class="cls-1" d="M90,134.24c.07.21.2.39.35.55.16.18.34.34.5.52.17.2.31.42.41.66.04.09.07.18.1.28.32-.68.63-1.37.91-2.07.03-.06.07-.11.13-.14.03-.07.07-.14.1-.2,0-.02,0-.03,0-.05.1-.46.32-.88.55-1.28.35-.81.7-1.63,1.06-2.44-.13,0-.26-.03-.38-.08-.46-.19-.84-.54-1.3-.73-.41-.16-.89-.23-1.27.03-.29.2-.5.58-.32.92.1.2.25.37.33.58.07.2.05.42-.04.61-.16.36-.53.57-.78.87-.29.34-.37.82-.4,1.26-.01.24-.01.49.06.72Z"/>
      <path class="cls-1" d="M63.8,123.89c.09-.6.46-1.19,1-1.48.3-.16.61-.21.95-.2.34,0,.71.03.97-.22.21-.2.33-.47.43-.73.12-.32.23-.64.36-.96.26-.64.59-1.26,1.08-1.75.45-.45,1.02-.73,1.65-.81.6-.07,1.24.1,1.66.55.45.48.59,1.15.59,1.79,0,.32-.02.64-.06.95,0,.03,0,.05-.02.07.02.05.03.1.02.16-.05.32.37.5.61.57.34.09.68.15,1.01.3.56.26,1.07.71,1.34,1.27.27.55.32,1.18.11,1.76-.2.56-.62,1.03-1.18,1.24-.37.14-.77.13-1.14.21-.25.05-.49.15-.69.31-.37.29-.62.71-.85,1.11-.46.81-.93,1.83-1.92,2.1-.35.09-.74.06-1.02-.19-.23-.2-.33-.51-.36-.81-.04-.38.07-.75.1-1.12.02-.28.01-.68-.27-.85-.13-.08-.3-.07-.45-.08-.19,0-.38-.02-.56-.04-.38-.04-.75-.1-1.12-.22-.66-.21-1.27-.57-1.71-1.12-.41-.51-.65-1.16-.55-1.82Z"/>
      <path class="cls-1" d="M44.96,121.79c.08-.74.32-1.52.94-1.98.64-.47,1.47-.39,2.21-.3.41.05.82.1,1.23.1.44,0,.89-.04,1.32-.1.63-.08,1.25-.19,1.87-.27.28-.12.56-.23.86-.29.46-.09.93-.08,1.38.05.3.03.59.18.8.4.28.29.44.67.5,1.06.07.44.04.88.02,1.32-.03.47-.07.94-.14,1.4-.06.42-.15.84-.19,1.26-.04.38-.06.78.06,1.15.13.39.43.66.74.9.32.25.64.49.95.75,1.23,1.01,2.38,2.44,2.13,4.14-.2,1.39-1.59,2.46-2.99,2.31-.41-.04-.76-.18-1-.53-.11-.16-.18-.34-.3-.49-.1-.13-.23-.26-.37-.36-.67-.5-1.53-.59-2.34-.69-.79-.1-1.66-.21-2.17-.89-.45-.6-.48-1.38-.75-2.05-.28-.68-.78-1.29-1.4-1.69-.37-.24-.77-.42-1.14-.65-.32-.19-.61-.42-.87-.68-.99-1-1.53-2.45-1.38-3.85Z"/>
      <path class="cls-1" d="M32.54,125.84c.44-.16.89.1,1.2.41.3.3.55.66.75,1.04.02,0,.03.02.05.04,1,1.28,2.78,1.31,4.19,1.85.72.28,1.37.7,1.89,1.28.52.57,1.02,1.34.98,2.15-.04.7-.59,1.42-1.34,1.36-.39-.03-.72-.24-1.1-.3-.29-.04-.6-.01-.87.11-.28.13-.49.36-.57.66-.1.37-.05.77-.07,1.15-.01.34-.07.7-.26.99-.19.29-.49.48-.84.5-.76.05-1.33-.56-1.67-1.16-.34-.6-.62-1.42-1.36-1.64-.06-.02-.12-.03-.18-.03-.04.02-.09.04-.13.04-.04,0-.07,0-.1-.02-.02,0-.04,0-.05.01-.25.08-.36-.31-.12-.4-.23-1.95-.38-3.92-.46-5.88-.02-.57-.04-1.14-.05-1.71,0-.05.01-.09.03-.12-.02-.02-.03-.04-.04-.07-.03-.12.04-.22.15-.26Z"/>
      <path class="cls-1" d="M86.7,123.16c.4.3,1.15.54,1.56.12.24-.25.42-.54.68-.77.26-.23.57-.4.92-.45.16-.02.32-.01.48.03.15.04.3.17.47.17.25,0,.51-.3.65-.49.32-.44.43-.98.41-1.51-.03-.62-.25-1.26-.65-1.74-.41-.49-1.04-.9-1.7-.71-.05.01-.09.01-.13,0-.55.22-1.01.64-1.28,1.16-.14.27-.21.58-.34.85-.16.31-.41.47-.71.62-.5.26-.84.71-.93,1.27-.09.56.14,1.11.59,1.45Z"/>
      <path class="cls-1" d="M80.94,141.34c.22-.12.46-.26.71-.29.27-.04.46.09.68.23.39.25.89.16,1.33.26.54.12.87.53,1.16.97.27.41.54.88.5,1.39.1.07.14.21.03.31-.63.58-1.58.76-2.39.48-.4-.14-.84-.41-1.01-.82-.08-.19-.08-.42-.27-.54-.17-.11-.38-.13-.57-.15-.23-.02-.47-.05-.66-.2-.18-.14-.27-.34-.28-.56-.02-.5.36-.85.77-1.08Z"/>
      <path class="cls-1" d="M80.73,142.66c.15.1.36.08.53.1.37.04.77.17.94.53.08.18.09.39.22.55.11.14.27.25.43.33.63.33,1.45.27,2.03-.13,0,0,0-.02,0-.03.11-.43-.13-.84-.35-1.19-.2-.32-.43-.69-.79-.83-.37-.15-.79-.09-1.18-.17-.2-.05-.37-.14-.55-.25-.08-.05-.15-.1-.24-.11-.11,0-.23.04-.33.09-.32.15-.77.35-.84.74-.03.14,0,.29.13.37Z"/>
      <path class="cls-1" d="M82.71,130.85c-1.83.63-3.75.97-5.67,1.27-.24.04-.48.07-.73.11-.11.02-.22-.03-.26-.15,0-.02,0-.04,0-.06-.36,0-.67-.23-.84-.53-.2-.35-.18-.77-.08-1.15.11-.41.29-.82.5-1.19.23-.38.54-.7.94-.9.8-.4,1.73-.34,2.59-.2.83.14,1.68.38,2.52.24.91-.15,1.7-.66,2.56-.95.74-.25,1.77-.33,2.19.49.19.36.13.77-.12,1.09-.25.33-.64.54-.99.75-.83.49-1.72.87-2.64,1.19Z"/>
      <path class="cls-1" d="M44.09,138.95c.26-.54.79-.84,1.38-.89.6-.05,1.21.16,1.74.43.58.31,1.11.72,1.72.96.31.12.64.2.98.18.35-.02.69-.13,1.04-.18.32-.04.65-.03.95.09.27.11.51.29.71.5.4.43.65.97.88,1.5.36.83.72,1.65,1.08,2.48.29.66.55,1.44,1.16,1.89.09.07.14.18.07.29-.05.09-.19.14-.29.07-.12-.09-.22-.18-.32-.28-.05.02-.1.03-.17.01-.63-.17-1.25-.36-1.83-.66-.01,0-.02,0-.04,0-.34,0-.69-.23-.98-.39-.09-.05-.18-.1-.27-.15-.04,0-.08,0-.12,0-.89-.14-1.66-.7-2.48-1.04-.28-.11-.56-.22-.85-.31-.05.02-.11.03-.18.01-1.03-.3-2.08-.48-3.15-.54-.02,0-.04,0-.06,0-.03.03-.07.06-.1.07-.12.03-.21-.04-.26-.15-.28-.68-.55-1.39-.71-2.11-.13-.59-.17-1.23.09-1.79Z"/>
      <path class="cls-1" d="M32.02,145.93c.16-.65.31-1.3.47-1.96-.04-.16,0-.3.1-.41.03-.13.06-.26.09-.39.03-.12.12-.16.22-.15.05-.1.17-.16.29-.1.58.3.83.97.67,1.59-.09.32-.26.61-.38.93-.13.33-.18.68-.18,1.04,0,.74.18,1.46.24,2.19.04.46-.03,1.27-.68,1.23-.27-.01-.45-.22-.58-.44-.1-.16-.2-.43-.38-.5-.1-.04-.18-.14-.15-.26,0,0,0,0,0-.01,0-.02-.02-.04-.02-.06-.18-.91.07-1.81.28-2.69Z"/>
    </g>
    <g>
      <path class="cls-1" d="M223.12,97.97c.19-.71.08-1.49-.19-2.16-.26-.66-.67-1.25-1.2-1.72-.51-.45-1.09-.79-1.68-1.13-.33-.19-.66-.39-.98-.61-.31-.21-.7-.45-.82-.82-.04-.12-.16-.13-.25-.09-.1.02-.19.13-.13.25.36.68.24,1.41.01,2.11-.12.36-.26.72-.37,1.09-.11.37-.21.75-.3,1.13-.08.34-.16.68-.13,1.03.02.31.09.61.22.9.25.58.69,1.07,1.23,1.4.6.36,1.29.53,1.99.55.04.44.03.89-.06,1.33-.04.19-.08.39-.2.55-.11.16-.27.27-.44.34-.39.17-.85.2-1.27.18-.45-.02-.9-.09-1.34-.16-.46-.08-.88-.21-1.3-.4-.39-.18-.78-.38-1.16-.58-.76-.41-1.5-.85-2.21-1.34-.8-.54-1.57-1.14-2.31-1.77-.02-.02-.04-.03-.06-.04,0,0-.01-.02-.02-.02-2.45-2.26-5.04-4.55-8.43-5.17-1.89-.34-3.85-.44-5.77-.58-1.97-.15-3.95-.26-5.93-.33-3.95-.15-7.91-.16-11.87-.03-3.95.13-7.9.4-11.84.81-1.9.2-3.79.46-5.69.67-1.84.2-3.72.31-5.54-.03-.19-.04-.38-.08-.57-.13-.02-.05-.07-.09-.14-.09-.58,0-1.05-.48-1.45-.84-.44-.4-.83-.84-.94-1.45-.05-.31-.05-.62-.04-.93,0-.27.03-.54.08-.81.09-.52.29-1.03.67-1.41.9-.87,2.31-.66,3.44-.67.58,0,1.15-.07,1.69-.27.46-.17.89-.42,1.28-.73.78-.62,1.37-1.49,1.64-2.45.07-.24.11-.49.14-.74.03-.25,0-.51.02-.76.04-.28.26-.3.49-.38.24-.08.44-.23.5-.49.14-.57-.34-.97-.8-1.18-.53-.24-1.09-.43-1.65-.57-1.14-.28-2.33-.35-3.49-.13-.57.11-1.13.3-1.65.57-.48.25-.92.56-1.34.89-.23.18-.46.37-.69.55-.29-.8-1.17-1.08-1.87-1.47.09-.08.17-.17.27-.24.16-.11.35-.15.54-.18.38-.05.78-.05,1.12-.26.06-.04.09-.12.07-.19-.21-.67-1.02-.82-1.61-.97-.85-.21-1.73-.27-2.59-.15-.01,0-.02,0-.03,0-.09-.08-.17-.17-.27-.24-.05-.04-.1-.08-.14-.12-.04-.05-.06-.06-.01-.09.11-.07.25-.1.36-.17.26-.14.49-.32.69-.52.08-.08.05-.19-.04-.26-.58-.44-1.33-.3-2.01-.2-.59.09-1.18.22-1.75.4.26-.46.64-.85,1.1-1.12.15-.08.07-.3-.09-.3-1.07-.04-2.14.37-2.9,1.13-1.47-.65-3.23-.54-4.6.31-.11.07-.1.27.04.3.45.08.87.24,1.25.46-.34.09-.65.24-.94.43-.27-.07-.56-.1-.84-.12-.31-.02-.63-.03-.94,0-.57.05-1.14.2-1.61.52-.42.29-.76.69-.91,1.18-.03.11-.07.23-.03.34.05.12.17.18.29.18.13,0,.27-.04.41-.05.17-.02.34-.03.51-.04.66-.02,1.29.09,1.92.27-.56.44-.93,1.09-1.13,1.78,0,.02-.01.04-.02.06-.68.07-1.39-.17-1.88-.64-.27-.26-.45-.59-.69-.88-.26-.32-.59-.51-.97-.67-.4-.17-.8-.3-1.24-.34-.44-.04-.88,0-1.31.08-.44.08-.87.21-1.3.34-.4.12-.8.25-1.19.41-.69.3-1.36.75-1.69,1.45-.34.71-.22,1.53.16,2.2.33.59.88,1.07,1.52,1.29.38.13.77.09,1.16.17.42.09.81.31,1.22.47.83.31,1.69.5,2.56.68.44.09.88.19,1.32.23.45.04.88-.02,1.31-.14.19-.05.38-.1.58-.09-.02,1.37.06,2.74.27,4.09.11.72.27,1.43.5,2.11-.25.34-.52.67-.8.98-.21.24-.76.67-.82.72-.67.62-.44,1.65-.72,2.44-.09.25-.2.49-.26.75-.05.24-.04.47,0,.71.1.46.37.87.69,1.19.27.27.63.58,1.03.67-.12.45-.09,1.16.41,1.32.19.06.4.03.59.02.16,0,.39-.03.5.12.07.1.08.23.11.35.04.13.09.25.18.35.19.2.5.25.76.31.59.14,1.19.2,1.79.18,1.21-.03,2.46-.36,3.47-1.04.13-.09.25-.18.36-.28.02.07.07.12.15.12.03,0,.05,0,.07-.02,0,0,.01,0,.02,0,.03,0,.05,0,.07-.02,0,0,.02,0,.03,0,.03,0,.05,0,.08-.02,0,0,0,0,0,0,1-.1,2.02.23,2.74.93.73.7,1.12,1.66,1.46,2.6.77,2.12,1.61,4.22,2.6,6.25.99,2.06,2.1,4.07,3.33,5.99,1.11,1.74,2.51,3.53,4.61,4.06.08.02.16.04.24.05-.24.92-.47,1.84-.6,2.79-.13.99-.11,1.97.09,2.95.1.48.21.96.22,1.45,0,.5-.09.99-.16,1.49-.07.49-.12.99-.14,1.48-.01.28-.04.57,0,.85-.49.31-.88.78-1.1,1.32-.12.29-.19.59-.21.89-.02.27-.03.66.16.87.1.12.25.16.4.15.19-.02.38-.06.58-.07.39-.02.77,0,1.16,0,.38,0,.76-.03,1.13-.14.34-.11.57-.33.71-.66.31-.73.39-1.62.07-2.36,0-.02-.02-.04-.03-.05.06-.1.1-.22.12-.33.07-.43-.16-.81-.29-1.2-.15-.46-.07-.92.08-1.37.16-.46.37-.91.55-1.36.18-.45.36-.9.52-1.36.67-1.84,1.19-3.73,1.56-5.64.04-.22.08-.43.12-.65.22-.04.44-.07.67-.08.25-.01.49,0,.73.04.04,0,.07,0,.1-.01,0,0,0,0,0,0,.02,0,.04,0,.05,0,.09.01.18.03.27.05.58.91,1.16,1.89.71,2.92-.14.32-.34.62-.51.93-.17.32-.29.66-.33,1.03-.08.72.16,1.44.43,2.1.28.69.62,1.36.79,2.09.21.84.17,1.72.17,2.58,0,.08,0,.17,0,.25-.4.15-.7.55-.95.87-.27.36-.48.75-.65,1.16-.08.21-.15.42-.2.64-.05.2-.12.43-.07.63.05.22.23.33.43.4.22.09.46.12.7.13.06.14.18.24.38.22.33-.02.65-.07.97-.1.32-.03.63-.06.95-.11.28-.04.57-.1.81-.25.5-.3.6-.95.68-1.48.09-.56.12-1.16-.15-1.67.02-.02.04-.04.05-.08.26-.75-.19-1.47-.37-2.18-.2-.78,0-1.58.24-2.33.26-.79.58-1.56.78-2.37.21-.79.34-1.61.41-2.43.07-.8.05-1.61.14-2.41.07-.64.23-1.24.5-1.81.01,0,.03,0,.04,0,1.78,0,3.55.12,5.31.37.87.12,1.74.26,2.59.46.82.19,1.55.49,2.27.93.66.4,1.3.83,2.04,1.06.74.23,1.53.25,2.29.14,1.6-.23,3.07-.95,4.55-1.57,2.41-1.02,5.04-1.81,7.67-1.8.42,1.53,1.52,2.75,2.34,4.08.5.83.86,1.72,1.21,2.62.35.93.68,1.88.97,2.83.15.51.32,1.02.43,1.55.11.5.15,1.05-.05,1.54-.02.06-.02.12,0,.16-.21.1-.4.3-.54.45-.28.28-.51.6-.65.96-.16.42-.18.9,0,1.31,0,0,0,0,0,0-.01.07.02.15.11.18.22.05.45.05.66-.01.05.06.11.11.17.15.15.09.3.15.47.13.35-.04.69-.1,1.04-.15.03.07.06.14.1.21.1.15.27.23.45.17.04-.01.07-.03.1-.05.06.12.15.21.29.27.29.11.63.05.92-.02.16-.04.32-.08.48-.11.19-.03.38-.03.57-.03.34,0,.69.03,1.02-.08.29-.09.53-.27.67-.54.16-.3.22-.65.31-.97.06-.21.11-.41.17-.62.05-.19.12-.39.12-.58,0-.28-.25-.59-.54-.52-.45-1.12-.27-2.39.06-3.52.37-1.27.94-2.49,1.13-3.81.32-2.32-.72-4.5-1.35-6.67-.32-1.09-.55-2.23-.42-3.36.39-1.64.57-3.31.69-4.99.14-1.88.26-3.77.29-5.66.02-.97,0-1.93-.06-2.89.93.69,1.97,1.22,2.99,1.76,1.07.57,2.18,1.11,3.36,1.43,1.14.3,2.37.39,3.51.07,1.01-.28,1.95-.92,2.43-1.89.48-.97.38-2.21-.39-2.99.51-.28.86-.78,1.01-1.34ZM206.98,131.54s0,.01,0,.02c-.01,0-.02-.02-.03-.02-.04-.02-.08-.04-.13-.07-.04-.02-.08-.04-.13-.06.04-.15.14-.29.2-.43.04-.08.07-.16.1-.24.02.24.07.48.17.7-.08-.02-.16.02-.18.11Z"/>
      <path class="cls-1" d="M136.18,84.79c-.01.18-.02.37-.03.55-.01,0-.02,0-.04.01-.27.11-.55.02-.82-.05-.3-.09-.6-.17-.91-.26-.58-.17-1.16-.37-1.77-.41-.31-.02-.61-.03-.92-.08-.27-.05-.54-.1-.81-.16-.49-.11-.98-.24-1.43-.46-.41-.21-.93-.55-1.05-1.02-.14-.54.47-.91.93-.95.55-.05,1.13.08,1.67.23.53.15,1.05.35,1.58.53.61.22,1.24.42,1.88.53.6.1,1.22.14,1.83.11-.05.48-.08.96-.11,1.43Z"/>
      <path class="cls-3" d="M136.34,83.03c-.61.03-1.21,0-1.81-.11-.6-.1-1.19-.29-1.76-.49-.57-.2-1.13-.42-1.71-.58-.56-.15-1.2-.3-1.78-.22-.51.06-1.09.4-1.18.95-.1.56.34,1.03.75,1.34.42.31.93.51,1.43.64.56.16,1.15.29,1.73.35.36.04.71.03,1.07.1.36.07.71.19,1.06.29.36.1.72.21,1.09.31.3.09.62.16.92.07,0,.18-.01.36-.02.53-.37,0-.71.13-1.07.19-.43.08-.88.04-1.3-.04-.84-.14-1.68-.33-2.5-.57-.41-.12-.81-.25-1.21-.42-.38-.17-.75-.32-1.17-.35-.36-.03-.7-.05-1.03-.21-.29-.14-.55-.34-.77-.58-.47-.52-.77-1.3-.61-2,.17-.73.78-1.24,1.42-1.56.36-.18.75-.31,1.13-.43.41-.13.82-.25,1.23-.35.42-.1.84-.16,1.27-.15.43,0,.84.1,1.23.26.37.15.72.31.98.62.23.28.4.6.66.86.48.5,1.16.79,1.85.82.08,0,.17,0,.25,0-.05.23-.09.47-.13.71Z"/>
      <path class="cls-6" d="M136.51,88.78s.07.02.11,0c.39-.1.61-.48.74-.83.14-.41.16-.86.15-1.29,0-.41-.04-.83-.22-1.2-.08-.17-.2-.35-.38-.44-.14-.07-.29-.06-.42.01.01-.2.02-.4.03-.61.04-.07.08-.09.25-.13.01,0,.04,0,.05,0,.05,0,.09,0,.14.02.09.02.18.06.26.12.17.11.31.28.42.45.22.34.36.74.42,1.15.12.81-.04,1.7-.45,2.41-.23.41-.59.79-1.06.92-.02-.19-.03-.38-.04-.57Z"/>
      <path class="cls-1" d="M137.02,93.12s.15-.24.25-.34c.56-.78,1.05-1.61,1.45-2.48.44-.95.81-1.96.9-3.02.09-1.08-.22-2.12-.39-3.18-.08-.51-.12-1.04-.03-1.56.07-.45.22-.89.44-1.3.44-.84,1.13-1.51,1.96-1.96.83-.45,1.82-.7,2.77-.67.45.01.92.11,1.29.38.33.24.55.59.65.98.24.89-.05,1.78-.44,2.58-.23.47-.49.91-.72,1.38-.23.47-.41.96-.59,1.45-.18.49-.36.98-.62,1.44-.22.4-.49.77-.76,1.14-.55.73-1.15,1.44-1.51,2.28-.36.86-.42,1.82-.15,2.72.14.45.36.87.65,1.24.18.23.38.45.56.68-.22.02-.43.16-.59.32-.22.21-.41.65-.75.68-.18.01-.35-.14-.51-.2-.16-.06-.33-.07-.5-.03-.35.07-.6.33-.71.66-.06.18-.09.36-.2.51-.1.12-.23.21-.38.26-.31.1-.61,0-.83-.24-.21-.23-.33-.54-.46-.83-.14-.3-.29-.61-.54-.84-.44-.41-1.05-.58-1.62-.49.49-.48.95-1,1.37-1.55Z"/>
      <path class="cls-3" d="M221.82,99.09c-.11.04-.13.16-.09.24,0,.04.01.08.05.11.71.63.86,1.68.51,2.54-.39.93-1.24,1.56-2.19,1.85-2.22.68-4.53-.28-6.48-1.3-.58-.3-1.15-.62-1.72-.94-.58-.33-1.15-.66-1.67-1.07-.03-.02-.06-.04-.1-.04-.1-.07-.27-.03-.26.13.14,1.89.08,3.78-.02,5.66-.1,1.85-.19,3.7-.42,5.53-.09.69-.2,1.38-.34,2.06-.03.02-.05.05-.05.09-.03.15-.05.31-.07.46-.03.14-.07.28-.1.42-.02.08.01.14.07.17-.03,1.95.8,3.83,1.36,5.68.34,1.12.59,2.28.49,3.45-.12,1.36-.71,2.63-1.11,3.92-.39,1.26-.59,2.65-.09,3.89-.52.1-1.09.1-1.56-.13-.26-.13-.48-.32-.6-.59-.16-.37-.13-.79-.13-1.18,0-1.47-.52-2.85-1.1-4.18-.6-1.35-1.26-2.69-1.52-4.16-.12-.69-.22-1.43-.75-1.93-.52-.5-1.28-.7-1.96-.87-.87-.21-1.75-.32-2.63-.34,0,0,0-.02,0-.03-.04-.18-.29-.13-.32.02-2.23.01-4.46.57-6.53,1.35-1.51.57-2.96,1.33-4.51,1.78-.75.22-1.54.35-2.32.3-.8-.05-1.53-.35-2.21-.76-.67-.4-1.31-.84-2.05-1.12-.81-.3-1.67-.44-2.51-.58-1.72-.29-3.45-.47-5.2-.53-.39-.01-.79-.02-1.18-.02.02-.03.03-.05.04-.08.41-.69.89-1.34,1.33-2.01.42-.66.82-1.35,1.13-2.07.69-1.59,1.01-3.44.34-5.09-.08-.19-.39-.11-.31.09.59,1.47.38,3.12-.19,4.56-.59,1.47-1.53,2.74-2.39,4.07-.43.66-.74,1.36-.87,2.14-.13.77-.13,1.56-.17,2.34-.04.82-.14,1.63-.31,2.44-.18.8-.44,1.57-.72,2.34-.3.83-.6,1.71-.5,2.6.05.43.2.83.34,1.24.11.34.21.68.15,1.03-.59-.16-1.16.27-1.57.68-.11.11-.21.24-.33.34-.13.11-.23.08-.31-.06-.07-.12-.1-.26-.11-.4-.02-.21-.03-.41-.03-.62-.02-.83.03-1.67-.1-2.5-.11-.76-.41-1.45-.71-2.15-.27-.64-.57-1.31-.6-2.01-.02-.34.03-.68.16-1,.14-.34.35-.64.52-.97.16-.31.28-.63.32-.97.03-.32-.02-.64-.11-.95-.2-.66-.6-1.23-.96-1.81-.21-.33-.42-.67-.57-1.04-.16-.38-.27-.79-.33-1.2-.12-.84-.01-1.71.32-2.49.08-.19-.2-.36-.28-.16-.6,1.42-.52,3.06.21,4.42.09.16.19.33.3.5,0,0-.01,0-.02,0-.04,0-.08,0-.11.01-2.05-.33-3.83,1.21-5.86,1.06-2.18-.16-3.75-1.95-4.87-3.65-1.25-1.9-2.36-3.9-3.37-5.94-1.01-2.05-1.9-4.16-2.67-6.31-.34-.94-.69-1.9-1.33-2.68-.64-.78-1.56-1.26-2.55-1.37-.25-.03-.5-.03-.74,0-.02,0-.05,0-.07.02,0,0,0,0-.01,0-.03,0-.05,0-.07.02,0,0-.02,0-.02,0,.27-.25.51-.52.77-.79.4-.42.85-.8,1.33-1.11.55-.35,1.14-.64,1.76-.84.55-.18,1.31-.43,1.84-.06.17.12.33-.16.16-.28-.46-.33-1.05-.24-1.56-.12-.54.13-1.07.33-1.57.57-.51.25-1,.56-1.44.92-.46.37-.84.8-1.24,1.22-.43.45-.91.81-1.47,1.07-.54.26-1.12.43-1.71.53-.59.1-1.19.11-1.79.05-.3-.03-.6-.08-.9-.15-.23-.06-.55-.1-.65-.35-.09-.25-.1-.53-.35-.68-.19-.12-.43-.11-.65-.1-.16,0-.43.06-.55-.08-.1-.11-.12-.32-.13-.46,0-.16.02-.31.06-.46.39-.05.71-.3,1.08-.42.48-.16.86.13,1.23.4.38.27.79.47,1.27.54.46.06.94.01,1.37-.16.48-.19.86-.52,1.19-.91.59-.7,1.01-1.56,1.14-2.47.13-.93-.08-1.82-.67-2.56-.32-.41-.67-.77-.91-1.24-.21-.43-.34-.91-.37-1.39-.06-.98.31-1.86.86-2.65.54-.78,1.19-1.49,1.65-2.32.53-.95.77-2.02,1.25-2.99.45-.91,1.05-1.79,1.22-2.81.13-.82,0-1.76-.63-2.36-.73-.68-1.82-.67-2.74-.52-1.95.32-3.71,1.62-4.29,3.55-.31,1.03-.15,2.06.06,3.09.11.55.22,1.11.24,1.67.02.56-.07,1.12-.21,1.66-.27,1.02-.72,2-1.24,2.92-.23.4-.48.79-.74,1.17-.28-.89-.44-1.82-.53-2.76.02,0,.03,0,.05,0,1.04-.27,1.56-1.45,1.72-2.41.17-.98.02-2.12-.69-2.87-.19-.2-.43-.37-.7-.41-.12-.02-.26-.02-.37.04-.01,0-.03.02-.04.03.02-.26.05-.52.08-.78.02-.04.03-.08.02-.13.03-.21.06-.41.1-.61.02-.11.05-.21.07-.32,0-.02.01-.03.01-.05.21-.76.59-1.48,1.28-1.9.11-.07.09-.21,0-.27-.02-.03-.05-.06-.09-.07-.55-.18-1.1-.3-1.67-.34-.28-.02-.56-.02-.84,0-.14,0-.27.02-.41.04-.06,0-.12.02-.19.03-.02,0-.03,0-.05,0,0-.01,0-.02,0-.04.24-.94,1.24-1.44,2.13-1.53.31-.03.62-.03.94,0,.19.01.39.03.58.06-.24.2-.45.44-.62.7-.12.18.17.34.28.16.2-.3.46-.56.75-.77.06,0,.1-.04.12-.08.36-.23.78-.39,1.21-.46.16-.02.13-.23.04-.3-.38-.28-.8-.49-1.25-.62,1.22-.6,2.68-.64,3.93-.09.05.09.16.13.25.05.04-.02.08-.05.09-.09.58-.58,1.34-.94,2.15-1.04-.42.35-.74.8-.95,1.31-.05.12.09.24.2.2.64-.22,1.29-.39,1.96-.49.33-.05.66-.1.99-.11.26-.01.5.03.72.14-.19.17-.41.31-.64.41-.13.06-.28.1-.35.23-.07.12-.03.27.04.38.08.12.2.2.3.29.12.1.23.22.34.34.22.25.39.52.53.82.09.19.37.02.28-.17-.13-.28-.3-.54-.49-.77.71-.07,1.43-.03,2.13.13.32.07.65.15.96.27.2.08.41.2.52.39-.31.13-.67.12-1,.17-.18.03-.37.09-.53.19-.18.12-.31.29-.48.41-.1.07-.1.21,0,.28.66.43,1.72.66,1.95,1.52-.51.4-1.05.77-1.65,1-.24.09-.48.16-.73.2-.21.04-.12.35.09.31,1.05-.18,1.92-.82,2.74-1.46.86-.68,1.7-1.38,2.75-1.74,1.11-.38,2.31-.43,3.46-.24.59.1,1.17.25,1.73.46.26.1.53.2.77.34.22.13.42.31.42.58,0,.27-.2.35-.42.41-.24.07-.45.18-.54.42-.09.25-.04.52-.06.78-.01.24-.05.48-.1.71-.23.97-.82,1.84-1.59,2.45-.38.3-.82.54-1.28.69-.57.19-1.16.21-1.75.21-1.15-.02-2.48-.1-3.38.77-.78.76-.9,2-.84,3.03.02.32.07.64.2.94.11.25.27.48.46.69.19.22.41.41.63.6.21.18.42.36.66.5.01.05.05.09.11.1,3.53,1.13,7.31.32,10.89-.09,3.91-.45,7.84-.76,11.77-.93,3.92-.17,7.84-.21,11.76-.1,3.91.1,7.83.34,11.72.72.96.1,1.93.21,2.87.48.81.23,1.58.56,2.31.97,1.48.82,2.78,1.92,4.04,3.05.3.27.6.55.9.83.02.02.04.03.07.04,0,0,.01.01.02.02,1.39,1.2,2.91,2.25,4.52,3.12.82.44,1.65.89,2.58,1.05.89.15,1.92.35,2.79,0,.45-.18.73-.51.85-.98.13-.53.15-1.08.1-1.62,0-.02,0-.05-.02-.06.02-.09-.03-.2-.16-.2-1.25,0-2.56-.56-3.07-1.78-.12-.28-.18-.58-.18-.88,0-.35.09-.68.18-1.01.09-.37.19-.74.3-1.1.11-.35.24-.68.35-1.03.16-.5.24-1.02.16-1.52.05.04.09.08.14.11.26.2.53.38.8.55.56.34,1.14.65,1.68,1.03.54.38,1.01.85,1.34,1.42.34.6.55,1.29.52,1.98-.03.71-.37,1.47-1.07,1.75Z"/>
      <path class="cls-1" d="M148.95,84.95c-.2-.05-.41-.05-.6,0-1.23.15-2.27,1.04-2.79,2.14-.31.66-.46,1.37-.49,2.09-.02.35,0,.7.02,1.04.03.34.08.69.23,1.01.27.59.88.93,1.49,1.05.67.13,1.35.02,1.83-.5.4-.43.62-1.01.8-1.56.25-.75.5-1.51.61-2.3.1-.77.1-1.68-.32-2.36-.18-.29-.45-.53-.78-.62ZM149.75,87.78c-.08.69-.28,1.36-.5,2.02-.17.52-.34,1.06-.65,1.52-.14.21-.32.39-.53.51-.27.16-.59.2-.9.17-.54-.04-1.15-.27-1.46-.74-.17-.26-.24-.56-.27-.86-.04-.31-.05-.63-.05-.94,0-.64.1-1.28.32-1.88.38-1.03,1.21-1.95,2.27-2.24.21-.06.51-.09.53-.11.14-.02.29,0,.42.04.27.1.46.33.58.58.29.58.29,1.29.22,1.92Z"/>
      <path class="cls-1" d="M148.56,85.81c-.21-.01-.39.04-.56.12-.39.1-.71.42-.95.74-.34.45-.6.94-.8,1.46-.19.52-.3,1.06-.34,1.61-.03.46.01.99.33,1.36.32.38.84.4,1.27.2.5-.23.79-.7,1.03-1.17.27-.54.55-1.09.74-1.66.17-.5.31-1.06.25-1.6-.07-.54-.38-1.03-.97-1.06Z"/>
      <path class="cls-1" d="M153.62,86.3c1.41-.29,2.79-.82,3.99-1.62.58-.39,1.21-.84,1.59-1.44.36-.58.41-1.38-.12-1.88-.47-.45-1.21-.58-1.84-.54-.71.04-1.38.29-1.99.64-1.36.78-2.29,2.07-3.47,3.08,0,0,0,0,0,0-.12.05-.22.14-.3.25-.03.02-.04.05-.05.09-.05.1-.09.21-.11.33-.04.29.07.57.27.79.52.56,1.35.46,2.03.32Z"/>
      <path class="cls-1" d="M151.66,85.45c-.04-.17-.01-.35.09-.48.07-.05.13-.11.2-.17,0,0,0,0,0,0,.03-.01.05-.03.07-.05.91-.79,1.68-1.72,2.61-2.48.95-.77,2.25-1.38,3.5-1.06.28.07.55.19.76.4.22.22.3.53.26.83-.07.65-.6,1.13-1.09,1.52-1.03.81-2.23,1.39-3.48,1.77-.36.11-.72.2-1.09.27-.39.08-.8.15-1.19.04-.28-.08-.56-.28-.64-.57Z"/>
      <polygon class="cls-1" points="205.69 134.78 205.69 134.77 205.69 134.78 205.69 134.78"/>
      <path class="cls-6" d="M136.03,99.87c-.22-.07-.42-.23-.6-.38-.34-.29-.65-.66-.78-1.1-.06-.21-.08-.43-.04-.65.05-.25.16-.49.25-.73.15-.42.17-.86.23-1.3.03-.21.07-.41.14-.6.03,0,.06,0,.09-.02.58-.27,1.32-.12,1.77.33.45.45.53,1.15.96,1.62.44.48,1.22.49,1.66-.01.11-.13.18-.28.23-.45.05-.17.09-.36.22-.48.11-.1.26-.17.41-.17.18,0,.31.09.46.16.4.2.76.03,1.03-.29.19-.21.53-.79.88-.57.02.01.04.02.06.02.02.04.04.07.06.11.39.77.34,1.69.08,2.5-.14.42-.34.82-.59,1.19-.27.39-.6.78-1,1.03-.78.49-1.8.45-2.56-.06-.37-.25-.72-.56-1.18-.6-.44-.04-.8.22-1.19.38-.2.08-.4.13-.6.06Z"/>
      <path class="cls-5" d="M161.67,134.45c-.08.26-.18.57-.43.71-.28.15-.65.18-.97.2-.33.01-.65,0-.98,0-.09,0-.18,0-.27,0-.03-.17-.03-.35,0-.52.02-.19.05-.39.12-.57.06-.16.19-.28.32-.39.13-.11.26-.23.42-.29.2-.07.11-.38-.09-.31-.21.07-.37.21-.54.35-.16.14-.31.29-.4.49-.09.21-.12.44-.15.66-.03.21-.03.41,0,.61-.12.01-.24.03-.36.04-.06,0-.14.02-.19-.02-.04-.04-.05-.11-.06-.16-.03-.13-.03-.26-.03-.39,0-.26.05-.51.14-.76.17-.5.5-.95.94-1.25,0,0,0,0,0,0,.14.28.46.44.75.27.13-.08.21-.2.3-.32.07-.1.16-.24.3-.26.15-.02.31.09.43.15.16.08.33.15.5.13.1-.01.18-.04.26-.09.2.55.17,1.15,0,1.71Z"/>
      <path class="cls-3" d="M162.9,125.86c-.3.89-.63,1.78-1,2.64-.34.81-.78,1.69-.46,2.58.12.35.36.73.24,1.12-.04.12-.12.26-.26.3-.15.05-.3-.04-.42-.11-.3-.15-.61-.25-.88,0-.11.1-.18.22-.27.33-.06.08-.15.19-.27.16-.12-.03-.17-.19-.2-.29-.05-.17-.04-.33-.04-.51.01-.48.04-.97.1-1.44.06-.47.15-.93.19-1.4.04-.47,0-.94-.08-1.4-.09-.47-.21-.93-.26-1.4-.05-.47-.05-.95-.02-1.42.07-.96.28-1.91.52-2.84.05-.2.1-.39.15-.59.81.09,1.61-.07,2.4-.32.62-.2,1.25-.45,1.89-.61-.32,1.77-.76,3.51-1.33,5.22Z"/>
      <path class="cls-5" d="M170.43,134.25c-.03.25-.07.5-.12.74-.05.23-.12.48-.28.66-.15.18-.39.26-.62.31-.25.06-.5.08-.75.1-.27.03-.54.06-.82.09-.12.01-.25.03-.37.04-.06,0-.12.01-.18.02-.08,0-.08,0-.1-.07-.13-.53.19-1.07.48-1.49.12-.17-.16-.33-.28-.16-.3.43-.58.95-.55,1.5-.18,0-.35-.04-.52-.1-.07-.03-.17-.06-.21-.13-.03-.07-.01-.16,0-.23.06-.36.17-.71.32-1.04.14-.33.32-.64.54-.92.11-.14.22-.28.35-.41.11-.11.22-.23.35-.31,0,.02,0,.05,0,.07.01.2.02.4.07.59.09.31.35.62.71.49.19-.07.32-.25.45-.38.14-.15.29-.29.46-.41.23-.17.51-.32.79-.29.3.39.33.89.28,1.36Z"/>
      <path class="cls-3" d="M204.07,128.96c-.28-.98-.59-1.94-.94-2.9-.35-.94-.7-1.9-1.18-2.79-.41-.76-.93-1.45-1.41-2.16-.46-.69-.89-1.41-1.13-2.2.51.01,1.02.06,1.53.14.75.12,1.56.28,2.24.63.34.17.63.41.81.75.17.31.24.67.3,1.02.13.74.3,1.45.56,2.15.26.7.57,1.37.87,2.05.5,1.11,1,2.26,1.17,3.47-.01.02-.02.05-.02.09.02.41-.02.81-.13,1.2-.05.19-.13.38-.22.56-.06.13-.13.25-.17.38-.35.04-.7.08-1.04.2-.19.07-.36.17-.54.26-.17.09-.29-.08-.45-.14-.03-.01-.06-.02-.09-.02.34-.88.06-1.82-.19-2.68Z"/>
      <path class="cls-5" d="M205.16,133.96c-.01.13-.02.28,0,.43-.26.04-.53.07-.79.11-.12.02-.26.06-.38,0-.04-.02-.13-.06-.17-.1.01-.04,0-.09-.01-.13-.05-.1-.02-.23,0-.33.02-.13.04-.26.08-.39.06-.22.17-.43.37-.54.18-.1.02-.38-.17-.28-.28.15-.44.44-.52.74-.04.15-.07.31-.09.47-.02.11-.02.22,0,.33-.13.04-.27.05-.4.03-.35-.87.28-1.79.98-2.28.09-.06.14-.07.23-.02.09.05.16.12.26.15.23.07.42-.07.61-.18.4-.21.86-.26,1.31-.31,0,0,0,0,0,0,0,0,.02.02.03.03.05.03.1.05.16.08.04.02.08.04.12.07,0,0,.02.02.02.02-.16.18-.39.31-.59.44-.3.19-.55.41-.74.72-.18.29-.29.62-.32.96Z"/>
      <path class="cls-5" d="M209.86,132.23s.08-.04.1-.08c.06,0,.11.04.13.1.05.13-.01.31-.05.44-.08.28-.15.57-.23.85-.07.26-.12.55-.24.8-.11.22-.29.35-.52.42-.26.07-.52.07-.79.06-.28,0-.56,0-.83.05-.33.07-1.25.43-1.29-.15-.04-.52.25-1.05.67-1.35.17-.12,0-.4-.17-.28-.49.35-.8.9-.83,1.5-.07.02-.12.09-.11.18,0,0,0,0,0,0,0,0,0,0,0,0,0,0,0,0,0,0,0,0,0,0-.02,0-.02,0-.04-.02-.05-.04-.05-.06-.07-.15-.09-.22-.04-.15-.05-.31-.04-.47.02-.34.13-.66.31-.94.21-.31.5-.49.81-.68.18-.12.36-.25.49-.42,0,0,0,0,0,0,.04-.03.07-.07.08-.12.04-.08.08-.16.1-.25.04.06.09.11.14.17.4.4,1,.54,1.55.54.29,0,.59-.04.87-.11Z"/>
      <path class="cls-1" d="M140.05,98.55c.08.02.19-.03.2-.12.04-.29.12-.59.26-.86.08.09.19.15.31.18.24.06.5,0,.74-.05.39-.09.88-.34.82-.82-.05-.41-.49-.66-.88-.61-.43.06-.77.39-1.03.73-.29.39-.48.86-.55,1.35-.01.09.02.17.12.2Z"/>
      <path class="cls-1" d="M137.18,98.03c-.04.21.27.29.32.08.07-.33.02-.67-.09-.98,0-.03-.01-.05-.03-.08-.03-.08-.07-.17-.11-.25-.16-.33-.41-.75-.84-.74-.4.01-.84.39-.85.8-.01.4.4.65.75.72.29.06.6.02.83-.15.04.19.06.39.02.58Z"/>
      <path class="cls-1" d="M154.17,108.47c-.18-.38-.52-.61-.8-.92-.1-.11-.19-.25-.17-.4.02-.2.19-.37.28-.54.21-.37.17-.81-.09-1.15-.26-.35-.66-.56-1.1-.57-.56-.02-1.1.25-1.56.55-.22.14-.44.31-.7.38-.17.04-.41.02-.52-.14-.06-.09-.18-.13-.28-.07-.09.05-.14.19-.07.28.09.12.2.21.32.27,0,.03,0,.07.02.1.16.38.33.76.49,1.13-.01.04-.02.08,0,.12.08.26.2.51.33.75.11.23.22.46.33.69,0,.04,0,.08.02.12.29.68.61,1.34.95,2,0,.01.01.02.02.03.26.62.54,1.23.84,1.84.01.02.03.04.04.06,0,.18.02.36.06.54.06.26.45.15.39-.11-.09-.42-.05-.87.12-1.26.18-.42.51-.7.81-1.02.34-.37.51-.78.52-1.28,0-.47-.06-.96-.26-1.39Z"/>
      <path class="cls-1" d="M153.96,110.32c-.06.21-.2.38-.34.54-.16.17-.34.33-.49.51-.17.19-.3.41-.4.64-.04.09-.07.18-.09.27-.32-.67-.62-1.34-.89-2.03-.02-.06-.07-.11-.13-.14-.03-.07-.07-.13-.1-.2,0-.02,0-.03,0-.05-.1-.45-.31-.86-.53-1.26-.34-.8-.69-1.59-1.03-2.39.12,0,.25-.03.37-.08.45-.18.82-.53,1.28-.71.4-.16.87-.22,1.25.03.28.19.49.56.32.9-.1.2-.25.36-.32.57-.07.2-.04.41.04.59.16.35.51.56.76.85.29.34.37.8.39,1.23.01.24.01.48-.06.71Z"/>
      <path class="cls-1" d="M179.57,100.21c-.08-.59-.45-1.16-.98-1.45-.29-.16-.6-.2-.93-.2-.33,0-.69.03-.95-.22-.21-.19-.33-.46-.42-.72-.12-.31-.22-.63-.35-.94-.26-.62-.57-1.23-1.06-1.71-.44-.44-1-.72-1.61-.79-.59-.07-1.21.1-1.63.53-.44.47-.57,1.12-.58,1.75,0,.31.02.62.05.93,0,.03,0,.05.02.07-.02.05-.03.1-.02.16.05.32-.36.49-.6.56-.34.09-.67.15-.98.3-.55.25-1.04.7-1.31,1.24-.26.54-.31,1.15-.1,1.72.2.55.6,1.01,1.15,1.22.36.13.75.13,1.12.21.25.05.47.15.67.31.36.29.6.69.83,1.08.45.8.91,1.79,1.88,2.05.34.09.72.06.99-.19.23-.2.33-.5.36-.79.04-.37-.06-.73-.09-1.1-.02-.28-.01-.67.26-.83.13-.08.29-.07.44-.07.18,0,.37-.02.55-.04.37-.04.74-.1,1.09-.21.65-.2,1.25-.56,1.67-1.09.4-.5.63-1.13.54-1.78Z"/>
      <path class="cls-1" d="M197.99,98.15c-.08-.72-.31-1.49-.92-1.94-.62-.46-1.44-.38-2.16-.29-.4.05-.8.1-1.21.1-.43,0-.87-.04-1.3-.1-.61-.08-1.22-.19-1.83-.27-.27-.12-.55-.22-.84-.28-.45-.09-.91-.07-1.35.05-.3.03-.58.18-.79.39-.28.28-.43.65-.48,1.04-.06.43-.04.86-.02,1.29.03.46.07.91.14,1.37.06.41.14.82.19,1.23.04.37.06.76-.06,1.13-.13.38-.42.64-.73.88-.31.24-.63.48-.93.73-1.2.99-2.33,2.39-2.09,4.05.2,1.36,1.55,2.41,2.92,2.26.4-.04.75-.17.97-.52.1-.16.18-.33.29-.48.1-.13.23-.25.36-.35.66-.49,1.5-.58,2.28-.68.77-.1,1.62-.21,2.12-.87.44-.58.47-1.35.74-2.01.28-.67.76-1.26,1.37-1.65.36-.23.75-.41,1.11-.63.31-.19.59-.41.85-.67.96-.97,1.49-2.4,1.34-3.77Z"/>
      <path class="cls-1" d="M210.13,102.11c-.43-.16-.87.1-1.17.4-.29.29-.54.65-.73,1.01-.02,0-.03.02-.05.04-.97,1.25-2.72,1.28-4.09,1.81-.7.27-1.34.69-1.85,1.25-.51.56-1,1.31-.96,2.1.04.68.57,1.39,1.31,1.33.38-.03.71-.23,1.08-.29.28-.04.59,0,.85.11.28.13.47.35.56.65.1.36.05.75.07,1.12.01.33.07.69.26.97.19.29.48.47.83.49.74.05,1.3-.54,1.63-1.13.33-.59.61-1.39,1.33-1.6.06-.02.12-.03.18-.03.04.02.09.04.13.04.04,0,.07,0,.1-.02.02,0,.03,0,.05.01.25.07.36-.31.12-.39.22-1.91.37-3.83.44-5.75.02-.56.04-1.11.04-1.67,0-.05-.01-.09-.03-.12.02-.02.03-.04.03-.07.03-.11-.04-.21-.14-.25Z"/>
      <path class="cls-1" d="M157.19,99.49c-.39.3-1.13.53-1.52.12-.23-.24-.41-.53-.66-.75-.26-.23-.56-.39-.9-.44-.16-.02-.31-.01-.47.03-.15.04-.3.17-.46.17-.25,0-.5-.3-.63-.48-.31-.43-.42-.96-.4-1.48.03-.61.24-1.23.64-1.7.4-.48,1.02-.88,1.66-.7.05.01.09.01.13,0,.54.21.98.62,1.25,1.13.14.27.2.56.34.83.15.3.4.46.69.61.49.25.82.7.91,1.24.09.54-.14,1.08-.58,1.42Z"/>
      <path class="cls-1" d="M162.82,117.26c-.21-.12-.45-.25-.69-.28-.26-.03-.45.09-.66.22-.39.25-.87.16-1.3.25-.52.12-.85.52-1.13.95-.27.4-.52.87-.49,1.35-.1.07-.14.2-.03.3.62.56,1.55.75,2.34.47.4-.14.82-.4.99-.8.08-.19.08-.41.26-.53.17-.11.37-.13.56-.15.23-.02.46-.05.64-.19.17-.13.26-.33.27-.55.02-.49-.35-.84-.75-1.05Z"/>
      <path class="cls-1" d="M163.02,118.55c-.15.09-.35.08-.52.1-.36.04-.76.17-.92.52-.08.18-.09.38-.21.54-.11.14-.27.24-.42.32-.61.33-1.41.27-1.98-.13,0,0,0-.02,0-.03-.11-.42.13-.83.34-1.17.2-.31.42-.67.77-.81.36-.15.78-.09,1.15-.17.2-.04.37-.14.53-.25.07-.05.15-.1.24-.11.11,0,.22.04.32.09.31.15.75.34.83.72.03.14,0,.28-.13.36Z"/>
      <path class="cls-1" d="M161.08,107.01c1.79.62,3.67.95,5.54,1.24.24.04.47.07.71.11.11.02.22-.03.25-.15,0-.02,0-.04,0-.06.35,0,.66-.22.82-.52.19-.35.18-.76.07-1.13-.11-.4-.28-.81-.49-1.16-.22-.38-.53-.69-.92-.88-.79-.39-1.69-.34-2.53-.19-.81.14-1.64.37-2.46.24-.89-.14-1.66-.65-2.51-.93-.72-.25-1.73-.32-2.14.48-.18.36-.13.75.11,1.06.25.32.63.53.97.73.82.48,1.69.85,2.58,1.16Z"/>
      <path class="cls-1" d="M198.84,114.92c-.25-.52-.78-.82-1.34-.87-.59-.05-1.19.15-1.7.42-.57.3-1.08.7-1.68.94-.31.12-.63.19-.96.17-.34-.02-.68-.13-1.02-.18-.31-.04-.63-.03-.93.09-.26.11-.5.28-.69.49-.39.42-.64.95-.86,1.47-.35.81-.7,1.61-1.05,2.42-.28.64-.54,1.41-1.13,1.84-.09.07-.13.18-.07.28.05.09.19.14.28.07.11-.08.22-.18.31-.28.05.02.1.03.16.01.62-.17,1.23-.35,1.79-.65.01,0,.02,0,.03,0,.33,0,.67-.23.96-.38.09-.05.18-.1.26-.15.04,0,.08,0,.11,0,.87-.13,1.62-.68,2.43-1.01.27-.11.55-.21.83-.3.05.02.11.03.17.01,1-.29,2.04-.47,3.08-.53.02,0,.04,0,.05,0,.03.03.06.06.1.07.12.03.21-.04.25-.14.27-.67.54-1.36.7-2.06.13-.57.17-1.2-.09-1.75Z"/>
      <path class="cls-1" d="M210.64,121.75c-.15-.64-.3-1.28-.46-1.91.04-.15,0-.29-.1-.4-.03-.13-.06-.25-.09-.38-.03-.11-.12-.16-.21-.14-.05-.09-.16-.16-.28-.1-.57.3-.81.95-.65,1.56.08.32.25.6.37.91.12.33.17.67.17,1.01,0,.72-.18,1.42-.24,2.14-.04.45.03,1.24.66,1.2.27-.01.44-.22.57-.43.09-.16.2-.42.37-.49.1-.04.17-.14.14-.25,0,0,0,0,0-.01,0-.02.02-.04.02-.06.18-.89-.07-1.77-.27-2.63Z"/>
    </g>
  </g>
  <path class="cls-9" d="M101.36,2.38s28.09-3.06,54.98,4.94c26.89,8,36.94,24.51,40.34,27.23s17.7,11.91,27.57,37.96c9.87,26.04,1.53,74.55-2.21,83.91-3.74,9.36-26.72,48.17-54.81,60.26-28.09,12.09-48.17,15.32-64,11.4-15.83-3.91-24.34-1.7-37.62-7.49-13.28-5.79-26.21-19.06-29.79-24.17s-6.98,2.38-22.13-24.68C-1.45,144.68,1.28,112.85,6.04,88.85c4.77-24,17.53-40.34,24-43.4,6.47-3.06,12.77-16.17,20.26-21.11,7.49-4.94,26.21-19.74,51.06-21.96Z"/>
  <path class="cls-10" d="M127.53,146.13s-10.02.34-13.52,5.62c-3.51,5.28-3.01,31.49-1.84,37.45s4.67,10.38,14.53,10.89c9.85.51,39.24-.68,49.25,0s51.32.26,56.71.13,48.47,1.31,54.31.25c5.84-1.06,14.02-3.1,13.69-9.57-.33-6.47.67-22.13-1-30.81-1.67-8.68-1-11.57-11.52-13.96-10.52-2.38-107.02,1.31-116.54,0s-44.08,0-44.08,0Z"/>
  <g>
    <g>
      <path class="cls-7" d="M152.52,176.76c0,.08-.1.19-.29.32-.19.13-.44.25-.73.34-.3.09-.61.14-.92.14-.18,0-.33-.05-.45-.15-.12-.1-.17-.22-.17-.35.07-.93.12-1.85.16-2.76.04-.91.07-2.07.09-3.46v-3.39c0-2.09-.11-3.79-.32-5.1l2.84,1.19h13.09l.5-.65c.07-.07.15-.16.25-.29.1-.12.18-.22.25-.29.07-.07.13-.1.2-.1.1,0,.35.14.75.42.4.28.77.58,1.11.88.34.31.51.52.51.63-.22.25-.55.42-1,.5v5.9c.03,2.06.1,4.01.2,5.85-.12.17-.42.34-.9.52-.48.18-.91.27-1.29.27-.28,0-.42-.17-.42-.5l.1-.6v-.57h-5.65v2.76c.05,2.31.11,4.09.17,5.35-.12.2-.37.39-.75.57s-.84.27-1.37.27c-.2,0-.36-.05-.47-.15-.12-.1-.17-.22-.17-.35.12-1.64.19-3.47.22-5.48v-2.99h-5.53v1.22ZM158.05,169.12v-4.85h-5.53v4.85h5.53ZM152.52,169.84v4.98h5.53v-4.98h-5.53ZM166.06,169.12v-4.85h-5.65v4.85h5.65ZM160.41,169.84v4.98h5.65v-4.98h-5.65Z"/>
      <path class="cls-7" d="M211.58,162.17c.44.17.66.31.66.42,0,.08-.07.17-.2.25l-.42.3v10.01c-.02,2.74-.54,5.04-1.57,6.9-1.03,1.86-2.78,3.34-5.25,4.46l-.25-.3c1.41-1,2.49-2.14,3.24-3.42s1.25-2.78,1.49-4.49c-1.13.9-2.15,1.68-3.06,2.34-.12.35-.31.56-.57.62l-1-2.74c.85-.17,2.42-.56,4.73-1.17.07-.61.1-1.34.1-2.19v-1.37h-1.07c-.61.02-1.24.13-1.89.35l-.37-.75.05.17-2.74,1.94v8.12c0,.63-.06,1.13-.19,1.49-.12.37-.39.66-.78.9-.4.23-1,.39-1.79.47-.08-.8-.23-1.33-.45-1.59-.33-.38-.91-.64-1.74-.77v-.37c1.31.1,2.1.15,2.37.15.2,0,.34-.03.41-.1.08-.07.11-.18.11-.35v-6.55l-1.74,1.12c-.07.32-.25.55-.55.7l-1.05-2.79c.71-.18,1.83-.53,3.34-1.05v-5h-.95c-.51.02-1.04.13-1.59.35l-.62-1.27c.58.1,1.29.17,2.14.2h1.02v-.82c0-2.09-.11-3.79-.32-5.1,1.13.28,1.92.51,2.36.68.45.17.67.32.67.44,0,.07-.07.14-.2.22l-.45.27v4.31h.35l.47-.87c.07-.1.14-.23.24-.4.09-.17.17-.29.24-.37s.13-.12.2-.12c.1,0,.34.19.71.57.37.38.67.74.88,1.07l-.62-1.17c.66.1,1.48.17,2.44.2h1.12c0-1.92-.09-3.44-.27-4.56,1.15.28,1.94.51,2.38.67ZM209.48,171.06v-4.31h-1.07c-.6.02-1.21.13-1.84.35.12.2.17.32.17.37-.05.27-.26.4-.62.4h-2.66v4.31l2.64-.92-.2-.4c.66.1,1.48.17,2.44.2h1.14ZM219.55,175.53c.36.31.69.63,1,.97.31.34.46.57.46.68-.07.27-.28.4-.65.4h-4.48v2.04c.03,1.64.08,2.95.15,3.91-.08.22-.33.43-.73.63-.41.21-.82.31-1.23.31-.2,0-.36-.05-.49-.15-.12-.1-.19-.22-.19-.35.07-.98.12-1.93.17-2.85.05-.92.08-2.13.1-3.62v-10.88c0-2.09-.11-3.79-.32-5.1,1.19.28,2.02.51,2.48.68.46.17.68.33.68.46,0,.05-.07.12-.2.22l-.42.3v2.86h1.49l.55-.87c.07-.1.15-.23.26-.4.11-.17.19-.29.26-.37.07-.08.13-.12.2-.12.1,0,.32.15.66.45.34.3.66.62.96.96.3.34.45.57.45.68-.07.25-.28.37-.65.37h-4.18v4.38h1.32l.52-.82c.05-.07.12-.18.22-.35s.19-.29.26-.37c.08-.08.15-.12.21-.12.1,0,.31.14.65.42.33.28.64.58.93.91.29.32.44.54.44.66-.07.27-.27.4-.62.4h-3.93v5.03h1.67l.57-.9c.07-.1.15-.24.26-.41.11-.17.2-.3.27-.39.07-.08.14-.12.21-.12.1,0,.33.15.68.46Z"/>
      <path class="cls-7" d="M232,165.53c.05-.08.14-.21.26-.39.12-.17.23-.3.31-.39s.16-.12.22-.12c.1,0,.33.15.7.44s.71.6,1.03.93c.32.33.49.56.49.67-.07.27-.27.4-.62.4h-5.65c-.03,1.39-.09,2.63-.17,3.71h2.24l.52-.62c.07-.07.17-.19.32-.36.15-.17.27-.26.37-.26s.32.13.67.4c.35.27.67.55.97.85s.45.51.45.62c-.18.22-.51.36-1,.42-.1,3.68-.29,6.38-.56,8.08-.27,1.7-.68,2.83-1.23,3.4-.63.61-1.49.92-2.59.92,0-.75-.12-1.26-.35-1.54-.28-.35-.81-.6-1.57-.75l.02-.37c1.13.08,1.85.12,2.17.12.2,0,.35-.02.46-.05.11-.03.21-.1.31-.2.35-.33.62-1.29.82-2.88s.33-3.94.4-7.06h-2.49c-.23,2.75-.74,5.19-1.52,7.32-.78,2.12-2,3.97-3.66,5.53l-.27-.25c1.24-2.04,2.1-4.32,2.56-6.83.46-2.51.7-5.37.7-8.58l-.03-1.62h-.95c-.51.02-1.06.13-1.64.35l-.62-1.22c.88.1,1.92.17,3.14.2h1.52v-.08c0-2.09-.11-3.79-.32-5.1,1.18.27,2,.49,2.46.66s.7.32.7.44c0,.08-.07.17-.2.25l-.42.27v3.56h1.44l.6-.87ZM242.58,166.13c.05-.08.14-.21.26-.39.12-.17.23-.3.31-.39s.16-.12.22-.12c.1,0,.34.15.73.46.39.31.75.63,1.1.97.34.34.51.57.51.68-.05.27-.27.4-.65.4h-1.39c-.28,2.04-.68,3.89-1.21,5.54-.52,1.65-1.23,3.16-2.13,4.52,1.44,1.96,3.25,3.48,5.43,4.56l-.07.22c-1.08.23-1.75.88-2.02,1.94-1.88-1.31-3.37-3.03-4.48-5.15-1.83,2.17-4.27,3.88-7.34,5.1l-.17-.3c2.9-1.73,5.12-3.96,6.65-6.7-.81-2.11-1.42-4.66-1.82-7.64-.81,1.46-1.73,2.71-2.74,3.76l-.32-.17c.91-1.84,1.68-4.1,2.32-6.77.2-.81.35-1.75.46-2.83.11-1.07.14-1.95.09-2.63,1.31.27,2.22.48,2.73.65.51.17.76.31.76.42,0,.05-.08.12-.22.2l-.45.22c-.32,1.39-.76,2.84-1.34,4.33h4.21l.6-.9ZM236.91,169.09c.5,2.64,1.24,4.9,2.24,6.77,1.01-2.24,1.68-4.95,1.99-8.12h-3.63l-.6,1.34Z"/>
      <path class="cls-7" d="M264.49,171.88c.07-.07.15-.16.25-.29.1-.12.18-.22.25-.29.07-.07.13-.1.2-.1.1,0,.35.14.75.42s.77.58,1.11.88c.34.31.51.52.51.63-.18.23-.53.42-1.05.55v4.9s-.06.07-.17.15c.22.17.56.45,1.05.86.48.41.9.78,1.27,1.11-.07.27-.28.4-.65.4h-7.69v2.12h6.15l.62-.9c.08-.12.17-.25.27-.39.1-.14.2-.27.3-.37.1-.11.18-.16.25-.16.1,0,.35.15.75.46.4.31.78.63,1.13.98.36.35.54.58.54.7-.07.26-.29.4-.67.4h-17c-1.18.02-2.42.13-3.73.35l-.67-1.27c.91.1,2.02.17,3.31.2h6.57v-2.12h-3.68c-1.18.02-2.42.13-3.73.35l-.65-1.25c.91.1,2.02.17,3.31.2h4.75v-1.92h-3.81v.5c0,.13-.22.29-.65.47s-.85.27-1.27.27c-.17,0-.29-.05-.37-.15-.08-.1-.12-.22-.12-.35.07-.6.12-1.34.15-2.24v-1.39c0-1.79-.09-3.21-.27-4.26l2.71,1.17h9.48l.52-.65ZM267.05,169.37c.07-.1.16-.23.27-.39.12-.16.21-.27.29-.35.07-.07.14-.11.21-.11.1,0,.34.14.71.42s.72.58,1.04.91c.32.32.49.54.49.66-.05.27-.26.4-.62.4h-16.68c-1.18.02-2.42.13-3.73.35l-.65-1.27c.91.1,2.02.17,3.31.2h14.76l.6-.82ZM264.22,162.12c.07-.08.14-.18.21-.3.07-.12.15-.21.24-.3.08-.08.16-.12.22-.12.1,0,.34.15.72.44.38.29.74.6,1.08.93.34.33.51.56.51.67-.18.25-.51.42-1,.52v1.62l.03.97c.02.73.05,1.44.1,2.12-.08.15-.35.31-.8.47s-.85.25-1.22.25h-.37v-.82h-9.38v.42c0,.07-.1.16-.3.27s-.45.22-.75.31c-.3.09-.6.14-.9.14-.13,0-.24-.05-.32-.15s-.12-.22-.12-.35c.07-.55.12-1.26.15-2.14v-1.32c0-1.66-.08-3.01-.25-4.06l2.64,1.14h9.01l.5-.72ZM258.12,175.14v-1.89h-3.81v1.89h3.81ZM254.31,175.86v1.92h3.81v-1.92h-3.81ZM263.94,165.31v-1.77h-9.38v1.77h9.38ZM254.56,166v1.84h9.38v-1.84h-9.38ZM264.22,175.14v-1.89h-3.91v1.89h3.91ZM260.31,177.78h3.91v-1.92h-3.91v1.92ZM266.28,178.78c-.22.1-.49.19-.82.29-.33.09-.62.14-.87.14h-.37v-.7h-3.91v1.92h4.73l1.25-1.64Z"/>
    </g>
    <path class="cls-7" d="M178.34,168.08c.27-.35.69-1.23,1.27-2.64l1.49,1.1c.17.12.25.23.25.35s-.15.23-.46.34c-.31.11-.69.34-1.15.68-.46.35-.94.68-1.46,1-.12,3.73-.23,6.16-.35,7.27,1.53.76,2.54,1.36,3.04,1.79s.75.91.75,1.43-.16.99-.47,1.39-.62.61-.92.61-.49-.06-.56-.19c-.08-.12-.15-.35-.21-.68-.28-1.59-.84-2.9-1.67-3.93-.32,2.87-2.09,5.64-5.33,8.31l-.35-.32c1.23-1.44,2.13-2.79,2.7-4.04s.96-2.69,1.16-4.32c.2-1.63.3-3.9.3-6.82s-.05-5.52-.15-7.79c1.2.25,2.02.45,2.49.6s.7.3.7.45-.12.28-.37.4-.41.27-.47.46c-.07.19-.11.75-.12,1.68l-.1,2.89ZM174.54,168.18c.38,1.78.57,3.07.57,3.87s-.2,1.44-.61,1.9c-.41.46-.83.7-1.28.7-.27,0-.49-.09-.66-.26-.17-.17-.26-.39-.26-.66s.2-.74.6-1.42c.4-.68.68-1.33.85-1.97s.27-1.33.3-2.09l.5-.07ZM189.77,174.36v6.52c0,.48.06.79.17.93.12.14.57.21,1.36.21s1.25-.08,1.37-.22c.12-.15.24-.53.34-1.13s.22-1.69.35-3.25h.52c-.02.48-.02.91-.02,1.27,0,1.01.08,1.71.25,2.08.17.37.47.68.92.91.23.12.35.25.35.39s-.17.49-.5,1.03-.86.86-1.59.93c-.73.07-1.39.11-1.97.11-1.21,0-2.04-.07-2.49-.21-.45-.14-.75-.39-.9-.75s-.22-.92-.22-1.68v-7.14h-1.59c-.08,3.32-.73,5.63-1.94,6.92-1.21,1.29-3.49,2.42-6.85,3.36l-.17-.52c2.59-1.01,4.37-2.19,5.35-3.52.98-1.34,1.5-3.41,1.57-6.24h-2.84c-.45,0-.8.06-1.05.17l-.45-1.07c.35.08.76.12,1.25.12h10.31l1.12-1.37c.13-.15.27-.22.42-.22s.57.32,1.26.96c.69.64,1.03,1.03,1.03,1.18s-.14.22-.42.22h-4.93ZM187.46,165.62c-.53-1.58-1.29-2.74-2.27-3.48l.27-.45c1.2.32,2.17.65,2.93,1,.75.35,1.13.76,1.13,1.25,0,.22-.07.51-.22.87-.15.37-.36.64-.62.82h2.84l.8-.97c.12-.15.25-.22.4-.22.12,0,.37.15.77.46.4.31.81.66,1.22,1.05.41.39.62.66.62.8s-.05.23-.14.26c-.09.03-.31.05-.66.05s-.72.14-1.12.41-1.05.88-1.97,1.8c.63.53,1,.86,1.1.98.1.12.15.24.15.34s-.16.15-.47.15h-8.07c-.45,0-.8.06-1.04.17l-.42-.97c-.45.38-.85.57-1.22.57s-.63-.09-.81-.27c-.17-.18-.26-.37-.26-.57,0-.32.17-.63.5-.93.33-.31.64-.81.93-1.52.29-.71.5-1.53.63-2.48h.52l.17.9h4.31ZM190.87,168.8l.87-2.41h-8.46c.08.6.12,1.09.12,1.49,0,.86-.22,1.52-.65,1.97.33.07.71.1,1.14.1h5.18l.72-1.15c.13-.2.27-.3.42-.3s.37.1.65.3Z"/>
  </g>
</svg>