<?xml version="1.0" encoding="UTF-8"?>
<svg id="_便祕風險" data-name="便祕風險" xmlns="http://www.w3.org/2000/svg" xmlns:xlink="http://www.w3.org/1999/xlink" viewBox="0 0 302.81 231.25">
  <defs>
    <style>
      .cls-1, .cls-2, .cls-3, .cls-4, .cls-5, .cls-6, .cls-7, .cls-8, .cls-9 {
        stroke-width: 0px;
      }

      .cls-1, .cls-3 {
        fill: #313231;
      }

      .cls-2 {
        fill: #60534d;
      }

      .cls-3 {
        opacity: .1;
      }

      .cls-4, .cls-10 {
        fill: none;
      }

      .cls-10, .cls-11 {
        stroke: #303131;
        stroke-miterlimit: 10;
      }

      .cls-5 {
        fill: #f0cbb5;
      }

      .cls-11 {
        fill: #efebe4;
      }

      .cls-6 {
        fill: #bee3f9;
      }

      .cls-12 {
        clip-path: url(#clippath);
      }

      .cls-7 {
        fill: #fdfdfe;
      }

      .cls-8 {
        fill: #fff;
      }

      .cls-9 {
        fill: #231815;
      }
    </style>
    <clipPath id="clippath">
      <path class="cls-4" d="M101.35,2.38s28.09-3.06,54.98,4.94c26.89,8,36.94,24.51,40.34,27.23,3.4,2.72,17.7,11.91,27.57,37.96,9.87,26.04,1.53,74.55-2.21,83.91-3.74,9.36-26.72,48.17-54.81,60.26-28.09,12.09-48.17,15.32-64,11.4s-24.34-1.7-37.62-7.49-26.21-19.06-29.79-24.17-6.98,2.38-22.13-24.68C-1.46,144.68,1.26,112.85,6.03,88.85c4.77-24,17.53-40.34,24-43.4s12.77-16.17,20.26-21.11S76.49,4.6,101.35,2.38Z"/>
    </clipPath>
  </defs>
  <g class="cls-12">
    <path class="cls-7" d="M101.35,1.69s28.09-3.06,54.98,4.94c26.89,8,36.94,24.51,40.34,27.23,3.4,2.72,17.7,11.91,27.57,37.96,9.87,26.04,1.53,74.55-2.21,83.91-3.74,9.36-26.72,48.17-54.81,60.26-28.09,12.09-48.17,15.32-64,11.4s-24.34-1.7-37.62-7.49-26.21-19.06-29.79-24.17-6.98,2.38-22.13-24.68C-1.46,143.99,1.26,112.16,6.03,88.16s17.53-40.34,24-43.4,12.77-16.17,20.26-21.11S76.49,3.91,101.35,1.69Z"/>
    <path class="cls-3" d="M171.09-17.78h54.4c1.53,0,1.53-2.37,0-2.37h-54.4v-96.17h54.4c1.53,0,1.53-2.37,0-2.37h-54.4v-41.77c0-1.53-2.37-1.53-2.37,0v41.77h-57.64v-41.77c0-1.53-2.37-1.53-2.37,0v41.77h-57.64v-41.77c0-1.53-2.37-1.53-2.37,0v41.77H5.67c-1.53,0-1.53,2.37,0,2.37h43.03V-20.16H5.67c-1.53,0-1.53,2.37,0,2.37h43.03v96.17H5.67c-1.53,0-1.53,2.37,0,2.37h43.03v96.17H5.67c-1.53,0-1.53,2.37,0,2.37h43.03v57.56c0,1.53,2.37,1.53,2.37,0v-57.56h57.64v57.56c0,1.53,2.37,1.53,2.37,0v-57.56h57.64v57.56c0,1.53,2.37,1.53,2.37,0v-57.56h54.4c1.53,0,1.53-2.37,0-2.37h-54.4v-96.17h54.4c1.53,0,1.53-2.37,0-2.37h-54.4V-17.78ZM51.07,36.62V-17.78h57.64v96.17h-57.64v-41.77ZM111.08,36.62V-17.78h57.64v96.17h-57.64v-41.77ZM111.08-116.32h57.64V-20.16h-57.64v-96.17ZM51.07-116.32h57.64V-20.16h-57.64v-96.17ZM51.07,176.93v-96.17h57.64v96.17h-57.64ZM111.08,176.93v-96.17h57.64v96.17h-57.64Z"/>
    <g>
      <path class="cls-1" d="M174.36,165.62c-.29-.65-.71-1.17-1.26-1.62-.51-.41-1.31-.83-1.56-1.47-.21-.55.26-.94.63-1.28.45-.41.88-.79,1.24-1.28.58-.79,1.04-1.81,1.05-2.81,0-1.09-.67-1.93-1.75-2.11-1.45-.24-2.92.45-4,1.37-.85.72-1.5,1.64-1.86,2.68-1-.76-1.93-1.67-2.79-2.53-1.25-1.25-2.33-2.65-3.39-4.05-2.21-2.93-4.61-5.7-6.67-8.75-2.16-3.18-4.07-6.51-5.83-9.93-.88-1.7-1.71-3.43-2.67-5.08-.98-1.69-2.03-3.33-3.02-5.01-1.74-2.97-3.42-6.06-5.84-8.55-2.07-2.13-4.64-3.88-7.45-4.86-2.79-.97-5.92-.99-8.51.56-2.59,1.55-4.06,4.14-4.39,7.09-.32,2.84.31,5.74,1.05,8.47.81,2.97,1.66,5.97,2.99,8.75.36.75.75,1.48,1.2,2.17.49.76,1.08,1.43,1.53,2.22.39.68.71,1.4,1.09,2.08.46.82,1.03,1.57,1.63,2.29,1.2,1.43,2.54,2.75,3.82,4.11,1.42,1.51,2.84,3.02,4.27,4.52,1.34,1.41,2.69,2.82,4.13,4.13,1.46,1.32,2.97,2.57,4.45,3.87,2.58,2.27,4.96,4.76,7.59,6.97,2.62,2.19,5.47,4.08,8.69,5.27,1.74.64,3.55,1.04,5.28,1.7,1.43.54,2.88.48,4.37.26,2.92-.43,5.81-1.78,6.45-4.93.29-1.42.14-2.92-.45-4.24Z"/>
      <path class="cls-5" d="M172.03,171.81c-1.02.86-2.43,1.23-3.72,1.45-1.42.25-2.74.26-4.09-.27-1.6-.62-3.28-.97-4.9-1.55-2.97-1.07-5.64-2.81-8.05-4.82-2.52-2.09-4.79-4.46-7.23-6.64-2.73-2.44-5.53-4.75-8.08-7.39-2.55-2.65-5.06-5.33-7.58-8-1.18-1.26-2.32-2.53-3.13-4.06-.37-.69-.7-1.41-1.11-2.08-.43-.7-.97-1.32-1.42-2.02-1.65-2.6-2.53-5.58-3.39-8.51-.74-2.51-1.46-5.07-1.59-7.69-.13-2.62.44-5.25,2.44-7.08,2.13-1.95,4.99-2.34,7.71-1.6,2.64.72,5.05,2.27,7.03,4.13,2.39,2.24,4.04,5.1,5.67,7.91,1.8,3.1,3.73,6.11,5.35,9.3,1.63,3.19,3.31,6.34,5.22,9.37,1.86,2.95,3.94,5.69,6.14,8.4,2.11,2.61,3.93,5.49,6.44,7.74,1.08.97,2.16,2.03,3.43,2.77.78.45,1.48-.6.97-1.17.26-1.29,1.3-2.42,2.42-3.03.52-.28,2.17-.87,2.34-.01.14.71-.4,1.67-.83,2.23-.68.88-1.79,1.39-2.08,2.54-.37,1.47.87,2.45,1.87,3.24,1.05.82,1.5,1.93,1.54,3.26.04,1.31-.35,2.7-1.39,3.58Z"/>
    </g>
    <g id="_袖子-左手" data-name="袖子-左手">
      <path class="cls-1" d="M143.99,126.36c.04-.2.02-.42-.1-.65-.52-.99-1.17-1.88-1.8-2.8-.73-1.07-1.25-2.18-1.82-3.33-.99-2-2.12-4.07-3.44-5.87-1.81-2.47-4.5-4.26-7.49-4.95-2.78-.64-5.87-.35-8.27,1.29-3,2.06-4.43,5.76-4.65,9.29-.16,2.61.51,5.25,1.31,7.72.87,2.69,2.03,5.28,3.38,7.76.2.37.52.5.83.47,1.32.55,2.74,0,4.06-.36,2.17-.58,4.27-1.24,6.36-2.05,3.85-1.5,8.11-2.94,11.37-5.54.36-.29.4-.65.25-.96Z"/>
      <path class="cls-6" d="M132.24,130.86c-1.74.68-3.48,1.33-5.28,1.82-.74.2-1.48.39-2.21.6-.6.17-1.49.54-2.09.21-.03-.02-.06-.03-.09-.04-1.99-3.7-3.8-7.91-4.19-12.11-.3-3.25.62-7.16,3.24-9.32,4.15-3.42,10.73-1.26,13.63,2.75,1.33,1.83,2.47,3.92,3.45,5.95.5,1.04.98,2.05,1.64,3.01.57.84,1.16,1.65,1.67,2.52-1.3.95-2.78,1.64-4.24,2.29-1.82.81-3.66,1.59-5.52,2.32Z"/>
    </g>
    <path class="cls-1" d="M44.29,78.21c-.04-1.28.09-2.55.06-3.82-.03-1.23-.1-2.37.19-3.57.27-1.13.52-2.18.94-3.26.41-1.04.93-2.02,1.34-3.06.41-1.04.71-2.14,1.17-3.16.53-1.17,1.29-2.2,1.97-3.29.58-.95.99-1.98,1.63-2.89.72-1.02,1.66-1.81,2.53-2.7,1.65-1.67,3.52-3.15,5.28-4.7.81-.72,1.78-1.24,2.59-1.96.88-.78,1.52-1.62,2.57-2.18.99-.52,1.83-1.15,2.75-1.77.97-.65,2.03-1.15,3.07-1.67,1.06-.53,2.19-1,3.29-1.45,1-.41,1.95-.88,2.97-1.26,2.29-.85,4.74-1.36,7.12-1.89,2.48-.56,5.06-.23,7.57-.25,2.65-.03,5.23.4,7.86.58,2.54.17,5.05.62,7.58.89,1.14.12,2.23.06,3.35.35,1.18.3,2.44.38,3.64.67,2.4.58,4.88,1.21,7.12,2.24,1.03.47,2.08.92,3.17,1.22,1.08.3,1.98.88,2.96,1.39,1.07.56,2.09,1.15,3.1,1.8.44.28.89.56,1.36.79.56.28,1.16.42,1.67.8.85.64,1.66,1.4,2.61,1.9.39.21.79.36,1.15.62.57.41.99.97,1.5,1.45.79.74,1.6,1.43,2.38,2.19.87.84,1.52,1.67,2.23,2.64.64.87,1.41,1.65,1.98,2.57.66,1.06,1.11,2.22,1.64,3.34,1.01,2.12,2.21,4.05,2.84,6.32.29,1.06.36,2.21.71,3.23.16.46.17.92.19,1.39.03.66.15,1.32.19,1.98.08,1.25.07,2.52.11,3.77.03,1.21.1,2.4-.06,3.61-.32,2.45-.39,4.92-.79,7.35-.09.52-.28.97-.45,1.46-.16.43-.23.87-.41,1.31-.49,1.18-.83,2.49-1.19,3.72-.29,1-.58,1.96-1.15,2.85-.66,1.05-1.63,1.94-2.38,2.93-.62.83-1.21,1.79-1.97,2.5-.85.79-1.88,1.57-2.86,2.2-.83.53-1.84.95-2.79,1.23-1.08.32-2.12.74-3.21,1.01-2.16.53-4.24,1.35-6.34,2.05,0,.8-.22,1.67-.2,2.43.06,2.05-.06,4.09,0,6.13.06,2.08.12,4.17.17,6.25.05,1.94.3,3.98.11,5.91-.2,2-.45,4.08-.4,6.09.02.99.17,1.96.08,2.95-.09.93-.09,1.82-.06,2.76l.18,6.52c.03,1.06.13,2.14.09,3.2-.01.4-.13.78-.17,1.18-.06.58.02,1.2.04,1.78.1,2.27.12,4.52.05,6.79-.04,1.13-.09,2.27-.09,3.4,0,.61-.06,1.21-.1,1.81.08.18.11.38.08.61-.11.82-.03,1.63-.14,2.44-.12.92-.04,1.8-.09,2.73-.04.77-.24,1.53-.29,2.29.18.17.3.42.27.76-.03.37-.17.59-.26.93.11-.39.07.24.08.41.04.78,0,1.49-.27,2.22-.51,1.34-.96,2.7-1.44,4.05-.52,1.45-1.6,2.43-2.34,3.74-.38.67-.66,1.25-1.28,1.75-.6.48-1.1,1.03-1.62,1.58-1.01,1.07-2.38,1.76-3.58,2.62-1.3.93-2.73,1.64-4.31,1.98-3.15.67-6.32,1.21-9.52,1.68-1.62.24-3.3.52-4.93.62-1.61.1-3.21-.04-4.81.01-1.88.06-3.76.1-5.64.15-1.51.04-3.12.16-4.59-.23-1.51-.4-3.1-.63-4.58-1.15-.67-.24-1.31-.54-2-.72-.73-.2-1.45-.31-2.13-.67-.59-.31-1.17-.48-1.77-.74-.43-.18-.8-.47-1.21-.68-.54-.28-1.15-.43-1.69-.73-.66-.36-1.23-.71-1.77-1.23-.57-.54-1.09-1.16-1.63-1.74-.54-.58-.83-1.3-1.25-1.96-.46-.72-.97-1.39-1.32-2.17-.33-.73-.91-1.63-1.05-2.42,0-.02,0-.07,0-.12-.04-.08-.09-.19-.13-.25-.21-.36-.19-.8-.24-1.21-.12-.94-.13-1.89-.15-2.84s-.13-1.92-.09-2.86c0-.11.03-.22.04-.33-.05.04-.09.08-.14.12.03-.19.06-.38.09-.56.17-1.16.39-2.3.58-3.46.18-1.11.3-2.23.42-3.35.13-1.19.34-2.39.34-3.58.01-2.25-.21-4.52-.27-6.78l-.2-7.02c-.07-2.36-.28-4.76-.15-7.12.06-1.07.07-2.12.05-3.19-.02-1.15.21-2.28.15-3.44-.1-2.17-.17-4.34-.23-6.52s-.28-4.51-.04-6.73c.13-1.19-.09-2.41-.05-3.6.04-1.16.15-2.26.09-3.42-.07-1.29.13-2.53.09-3.81-.03-1.28.25-2.48.28-3.74,0-.1.02-.2.04-.29-.18-.09-.34-.19-.51-.32,0,0-.01,0-.04-.02-.05-.02-.1-.05-.15-.07-.14-.07-.26-.13-.39-.22-.04-.03-.07-.05-.1-.08-.08-.03-.17-.05-.25-.09-.4-.19-.73-.51-1.12-.72-.04-.01-.09-.02-.13-.04-.17-.07-.32-.17-.46-.27-.25-.14-.49-.3-.69-.52-.06-.06-.11-.13-.15-.2-.34-.27-.68-.51-1.01-.8-.38-.34-.79-.62-1.21-.93-.55-.41-1.01-.92-1.54-1.34-1.66-1.34-3.1-3.09-4.4-4.78-1.52-1.96-2.11-4.23-3.02-6.48-.44-1.08-1.02-2.1-1.37-3.22-.36-1.15-.66-2.35-.9-3.53-.48-2.31-.35-4.79-.42-7.14Z"/>
    <path class="cls-5" d="M148.33,74.8c-.03-1.11-.14-2.22-.23-3.32-.03-.44-.24-.81-.33-1.25-.12-.64-.15-1.28-.31-1.92-.26-1.02-.56-1.98-.99-2.94-.49-1.08-1.11-2.09-1.63-3.16-.46-.93-.84-1.89-1.32-2.81-.55-1.06-1.3-1.92-2.03-2.85-.61-.78-1.09-1.63-1.82-2.32-.85-.8-1.69-1.6-2.57-2.38-.76-.67-1.29-1.39-2.22-1.85-.99-.49-1.84-1.22-2.71-1.88-.83-.63-1.86-.92-2.76-1.47-.97-.59-1.89-1.22-2.9-1.75-.92-.48-1.87-1.17-2.87-1.45-1.01-.29-1.97-.65-2.94-1.06-1.12-.47-2.17-.96-3.35-1.29-1.21-.34-2.42-.71-3.64-1.02-1.09-.28-2.17-.53-3.29-.64-.52-.05-1-.23-1.51-.32-.62-.11-1.26-.03-1.89-.09-4.97-.44-9.9-1.46-14.91-1.5-1.16-.01-2.33-.13-3.48-.1-1.16.03-2.41-.02-3.56.13-1.11.15-2.19.54-3.28.77-1.23.26-2.45.56-3.64.95-2.05.68-3.95,1.68-5.95,2.47-1,.4-1.98.95-2.91,1.48-.96.55-1.78,1.31-2.75,1.85-.44.24-.92.43-1.33.7-.4.27-.69.64-1.02.98-.81.84-1.76,1.47-2.7,2.15-.83.6-1.52,1.37-2.29,2.04-.92.79-1.85,1.54-2.74,2.36-.78.71-1.58,1.44-2.31,2.2-.82.85-1.3,1.87-1.84,2.89-.51.98-1.2,1.85-1.74,2.81-.61,1.07-.88,2.2-1.35,3.32-.81,1.92-1.85,3.81-2.27,5.86-.11.54-.29,1.07-.38,1.61-.09.56-.03,1.12,0,1.68.06,1.26-.1,2.49-.05,3.75.08,2.33.14,4.64.34,6.96.19,2.26,1.11,4.39,2.01,6.45.94,2.15,1.43,4.41,2.84,6.33.59.8,1.27,1.57,1.9,2.34.61.74,1.42,1.55,2.18,2.13.83.64,1.63,1.34,2.45,1.99.43.35.81.73,1.26,1.06.24.18.46.42.7.6.14.07.29.14.43.22.19.1.37.21.54.34.17.12.35.22.51.34,0,0,.01,0,.02,0,.25.08.41.17.62.34,0,0,.01.01.02.02,0,0,.01,0,.02,0,.09.04.19.08.28.13.12.06.24.15.35.23,0,0,0,0,0,0,.04.03.08.06.13.08.03.02.06.03.09.05.59-.01,1.17.47,1.15,1.07,0,.19-.06.38-.15.54.08.14.13.32.12.53-.02,1.09-.32,2.13-.29,3.23.02,1.12-.16,2.21-.15,3.32.02,1.03.18,2.05.12,3.08-.06,1.14-.14,2.24-.1,3.39.03.95-.1,1.83-.13,2.77-.04,1.22.09,2.47.13,3.69.06,2.28.1,4.56.19,6.83.09,2.18,0,4.34-.02,6.53,0,1.05-.13,2.09-.1,3.15l.11,3.78c.13,4.63.16,9.28.45,13.9.16,2.51-.22,5-.52,7.49-.11.89-.27,1.78-.43,2.66.17.17.28.4.29.7.03.66-.19,1.12-.45,1.71-.26.6-.13,1.26-.11,1.92.02.77.04,1.54.06,2.31.01.38,0,.78.04,1.16.02.2.27,1.3,0,.72.55,1.17.91,2.57,1.64,3.69.35.53.75,1.03,1.07,1.59.32.56.57,1.06,1.02,1.53.94.96,1.65,1.93,2.93,2.48.98.42,1.69.88,2.71,1.26.56.21,1.09.43,1.62.71.61.32,1.34.37,2,.59.65.21,1.26.5,1.91.71.73.23,1.48.34,2.22.55,1.28.38,2.55.6,3.87.69,1.66.12,3.4-.07,5.07-.11,3.13-.08,6.29.12,9.39-.32,3.01-.43,6.01-.95,9.01-1.37,1.37-.19,2.85-.46,4.16-.92,1.44-.51,2.66-1.42,3.87-2.31.59-.44,1.24-.72,1.76-1.26.54-.55,1.03-1.14,1.63-1.63.62-.5.85-1.1,1.27-1.76.46-.72,1.05-1.34,1.52-2.05.8-1.23,1.01-2.81,1.54-4.16.3-.76.51-1.29.48-2.12,0-.22-.03-.44-.04-.66,0,0,0,0,0,0,0,0,0,0,0,0,0-.06,0-.13,0-.19,0-.02,0-.03,0-.05-.02-.42-.08-.83-.07-1.25.02-.97.33-1.92.31-2.89-.02-1.22.01-2.44.11-3.66-.01-.06-.02-.11-.02-.17-.06-1.85.27-3.66.23-5.51-.04-1.95.08-3.89.03-5.85-.03-1-.08-2-.11-2.99-.03-.99.18-1.94.14-2.93-.08-2.12-.12-4.24-.18-6.36-.05-1.88-.09-3.72.02-5.59.06-.93-.1-1.86-.11-2.79-.01-1.05.13-2.11.16-3.16.03-.91.15-1.81.23-2.71.09-.96.01-1.91-.01-2.88l-.17-6.05c-.06-2.25-.13-4.48-.04-6.73l-.16-6.68c.12-.03.23-.07.35-.11.37-.1.72-.21,1.16-.36,1.62-.54,3.21-1.14,4.85-1.64.97-.29,2.01-.46,2.94-.83,1-.39,2.01-.71,3.02-1.08,1.99-.74,3.63-2.22,4.9-3.85.71-.91,1.35-1.87,2.13-2.72.82-.89,1.31-1.74,1.64-2.9.58-2.06,1.25-4.09,1.97-6.08.35-.97.43-2.16.48-3.19.06-1.2.16-2.4.3-3.6.28-2.36.17-4.67.11-7.04Z"/>
    <path class="cls-5" d="M106.47,112.62c-1.14.03-2.28.06-3.41.1-1.32.04-2.69.21-4.01.12-.99-.07-1.99-.07-2.98-.21-.66-.09-1.32-.14-1.98-.2"/>
    <path class="cls-1" d="M119.74,74.12c-.03-1.54-.14-3.08-.19-4.62-.07-2.35-.02-4.59.67-6.87.3-.99.96-2.31,1.88-2.9,1.11-.71,2.27-.88,3.57-.93.97-.03,1.99.11,2.94.33,1.16.28,1.98.81,2.96,1.45.84.55,1.7,1.43,2.27,2.25.67.96,1.38,1.92,1.78,3.04.82,2.26,1.35,4.67,1.42,7.07.04,1.24-.11,2.44-.22,3.67-.11,1.18-.48,2.61-1.12,3.63-.66,1.06-1.51,1.82-2.49,2.59-.42.33-.76.66-1.29.83-.54.17-1.13.29-1.68.42-.75.18-1.34.15-2.08.03-.33-.05-.62-.1-.94-.22-.13,0-.27,0-.4-.03-1.14-.2-2.38-.94-3.24-1.7-.95-.84-1.63-1.66-2.24-2.74-.28-.5-.61-.95-.87-1.47-.17-.34-.26-.65-.33-.98-.38-.85-.37-1.96-.39-2.86Z"/>
    <path class="cls-8" d="M122.76,77.51c.08.11.17.21.24.32.23.36.39.75.61,1.12.23.39.51.61.84.92.65.61,1.26,1.13,2.05,1.57.3.17.61.19.94.26.51.11,1.01.29,1.55.32,1.83.07,3.57-1.17,4.57-2.59.56-.78.83-1.81.98-2.74.15-.97.28-2.02.27-3,0-.94.02-1.95-.18-2.87-.19-.87-.47-1.74-.65-2.61-.41-1.92-1.44-3.56-2.77-4.98-.55-.58-1.21-1.04-1.88-1.47-.72-.47-1.56-.53-2.4-.65-.84-.12-1.79-.2-2.62.03-.95.26-1.5.99-1.84,1.87-.75,1.93-.73,4.05-.67,6.08.04,1.43.08,2.86.18,4.28.04.6-.05,1.23.04,1.81.02.11.07.24.1.36,0,0,0,.02,0,.02.05.11.08.23.1.36,0,0,0,0,0,0,.05.17.09.32.05.3.06.32.13.58.29.91.02.04.25.44.2.4Z"/>
    <path class="cls-1" d="M123.63,68.63c.15-.5.4-.96.68-1.4.36-.56.88-.91,1.48-1.21,1.17-.58,2.39-.28,3.47.35.52.31.98.58,1.32,1.09.35.52.6,1.13.76,1.72.31,1.12.59,2.32.6,3.49,0,.61-.09,1.19-.23,1.78-.15.6-.18,1.19-.49,1.75-.65,1.17-2.1,1.86-3.45,1.66-.58-.09-1.05-.39-1.58-.54-.61-.18-1.31-.5-1.52-1.14-.29-.34-.44-.74-.62-1.16-.39-.94-.56-1.99-.68-3-.12-1.12-.08-2.3.25-3.38Z"/>
    <path class="cls-1" d="M60.34,71.86c.1-1.16.33-2.27.65-3.39.33-1.14.55-2.3,1.07-3.39,1.02-2.13,2.61-3.98,4.95-4.77.56-.19,1.22-.23,1.81-.3.66-.09,1.3-.22,1.97-.18,1.29.07,2.48.36,3.64.9,2.16,1.01,4.07,2.58,5.03,4.78,1.12,2.59,1.59,5.15,1.19,7.96-.19,1.31-.56,2.69-1,3.95-.35.98-.91,2.17-1.53,3-.32.42-.57.86-.87,1.29-.14.21-.3.37-.46.55-.18.2-.08.07,0-.02-.12.13-.23.27-.36.41-.84.9-1.74,1.75-2.92,2.19-1.43.53-3.09.57-4.61.51-1.29-.05-2.63-.46-3.7-1.15-.48-.31-1.07-.6-1.48-1-.48-.46-.95-1.09-1.35-1.63-.34-.46-.71-.93-1.04-1.42-.2-.11-.37-.29-.48-.54-.48-1.07-.58-2.61-.61-3.77-.03-1.33-.02-2.66.1-3.99Z"/>
    <path class="cls-8" d="M64.21,80.31c.59.75,1.21,1.37,1.99,1.92.7.48,1.54.78,2.38.91,1.04.15,2.55.1,3.57-.16.99-.25,1.64-.84,2.35-1.53.72-.69,1.02-1.3,1.61-2.1,1.15-1.56,1.7-3.45,2.15-5.3.55-2.25.31-4.49-.46-6.64-.32-.91-.71-1.69-1.3-2.45-.59-.77-1.39-1.3-2.21-1.82-1.86-1.18-3.76-1.17-5.87-.87-2.08.3-3.31,1.87-4.24,3.57-.49.89-.65,1.89-.92,2.86-.29,1.03-.55,2.03-.67,3.09-.13,1.15-.14,2.32-.11,3.48.01.54.02,1.16.08,1.78.07.14.12.31.12.51-.01.97.95,2,1.53,2.75Z"/>
    <path class="cls-1" d="M65.79,73.24c.04-.69.16-1.6.34-2.41.16-.76.46-1.63.9-2.28.52-.76,1.35-1.37,2.29-1.48.75-.09,1.58-.21,2.33.12.79.35,1.46.68,1.9,1.45.36.63.66,1.35.77,2.07.23.74.25,1.58.16,2.36-.1.8-.25,1.74-.58,2.49-.04.16-.1.31-.2.45-.1.28-.2.57-.35.82-.2.33-.48.62-.74.91-.55.64-1.31,1.06-2.1,1.22-.96.2-1.96-.04-2.8-.53-.14-.08-.29-.19-.4-.31-.09-.1-.17-.21-.26-.31.04.08.02.08-.06-.02-.34-.34-.62-.81-.76-1.26-.03-.11-.05-.22-.05-.32-.11-.19-.2-.4-.26-.61-.1-.36-.1-.72-.11-1.09-.01-.43-.05-.86-.03-1.29Z"/>
    <path class="cls-1" d="M79.46,75.08s-.02.02-.02.03c.01-.03.02-.03.02-.03Z"/>
    <path class="cls-1" d="M99.75,81.78c-.99,0-.99,1.54,0,1.53,1.68,0,2.02,2.55,1.93,3.81-.05.68-.29,1.56-.84,2.01-.04.03-.08.06-.11.08-.04-.09-.11-.25-.11-.28-.07-.27-.08-.54-.09-.81-.03-.99-1.56-.99-1.53,0,.03,1.13.44,2.95,1.98,2.63,1.18-.25,1.88-1.62,2.12-2.69.53-2.34-.35-6.28-3.33-6.28Z"/>
    <path class="cls-1" d="M101.98,97.83c-2.09.23-4.45.39-6.3-.79-.84-.53-1.61.8-.77,1.33,2.08,1.33,4.71,1.26,7.07,1,.97-.11.98-1.64,0-1.53Z"/>
    <path class="cls-1" d="M108.24,110.51c1.14.04,2.39-.1,3.5-.17,1.55-.1,3.11-.32,4.66-.47,3.19-.31,5.96-1.16,9.07-1.92.91-.22,1.84,1.07,1.52,1.7-.14,4.42-.97,8.74-.59,13.17.37,4.33.35,8.63.35,12.98,0,4.41,0,8.82,0,13.23,0,4.2-.36,8.51.16,12.69.81.4.68,1.86-.4,1.82-1.22-.05-2.32.39-3.46.75-1.05.33-2.11.49-3.2.59-2.52.23-5.04.39-7.56.62-8.92.83-17.91.09-26.83-.35-4.21-.21-8.41-.55-12.52-1.56-3.37-.83-7.02-1.54-9.93-3.53-.66-.45-.48-1.31,0-1.67-.02-16.61-.47-33.21-.48-49.82-.43-.55-.19-1.59.72-1.58,4.54.02,8.94.3,13.34,1.52,4.25,1.18,8.64,1.66,13.04,1.87,4.65.23,16.9.19,18.61.13Z"/>
    <path class="cls-6" d="M108.22,112.65c2.91-.11,5.29-.2,7.32-.61,3.18-.63,6.53-1.11,9.6-2.19-.22,2.83-.25,7.24-.23,10.08,0,1.68.07,4.43.21,6.11.15,1.71-.17,3.6-.17,5.32,0,7.07-.1,12.93-.1,19.99,0,3.47-.2,6.94.17,10.4-1.36.26-2.65.84-4.03,1.07-2.15.35-4.34.26-6.5.52-4.36.52-8.75.65-13.14.58-4.43-.07-8.86-.34-13.28-.57-4.24-.22-8.53-.34-12.7-1.18-1.94-.39-3.87-.88-5.77-1.42-1.6-.45-3.64-.86-5.1-1.67-.95-17.47-1.13-32.9-.03-50.17,1.82.02,3.63.07,5.44.24,2.26.21,4.38.74,6.56,1.3,3.95,1.03,8.08.89,12.07,1.65"/>
    <g>
      <path class="cls-1" d="M174.4,175.22c-1.49-2.48-3.6-4.83-6.1-6.32-2.88-1.72-6.29-2.62-9.5-3.5-3.33-.92-6.54-2.01-10.03-2.04-2.49-.02-4.98-.22-7.47-.38-5.29-.33-10.81-.65-15.99.72-2.35.62-4.6,1.65-6.48,3.22-2.05,1.72-3.57,4.1-4.82,6.43-2.21,4.12-5.02,10.73-1.88,15.09,2.89,4.03,8.97,3.57,13.32,3.55,7.47-.02,14.96-.1,22.37-1.1.98-.13,1.96-.28,2.93-.45-.73.73-1.48,1.43-2.1,2.25-1.2,1.6-2.25,3.32-3.39,4.96-1.21,1.74-2.19,3.62-3.18,5.49-.94,1.78-2.01,3.47-3,5.22-1,1.77-1.79,3.66-2.57,5.54-.56,1.35-1.34,2.76-1.72,4.21-2.3,3.93-3.25,8.46-4.27,12.86-1.19,5.15-2.99,10.14-4.55,15.19-.34,1.11-.67,2.2-1.17,3.24-.44.91-.92,1.81-1.26,2.77-.28.81-.39,1.71.02,2.49.47.89,1.39,1.34,2.27,1.72,2.39,1.05,4.78,1.58,7.34,2.05,2.72.5,5.25,1.4,7.79,2.48,5.58,2.39,6.74,4.53,12.95,4.13,2.13-.14,4.61-.74,5.57-2.88,1.28-2.86-.68-6.55-2.34-8.81-1.49-2.02-3.41-3.74-5.66-4.85-1.89-.93-3.91-1.37-5.99-1.59-.66-.07-1.41-.08-2.17.14.34-6.97,3.23-13.73,8.18-18.69.18-.18.25-.39.24-.59.32-.08.51-.34.56-.63.96-1.03,1.71-2.24,2.53-3.38.96-1.34,1.93-2.66,2.9-3.99,1.98-2.7,3.96-5.41,5.87-8.17,3.79-5.48,7.28-11.22,9.72-17.44,1.22-3.13,2.23-6.42,2.71-9.75.47-3.24.05-6.4-1.66-9.23Z"/>
      <path class="cls-2" d="M139.39,248.92c-.64.83.78,1.65,1.41.82.36-.48.89-.8,1.48-1.02.3-.12.44-.14.79-.23.5-.12,1.01-.22,1.47-.22.05,0,.55.03.66.04.8.11,2.86.27,4.38.85,1.85.71,3.5,1.92,4.85,3.37,1.3,1.4,2.36,3.09,2.99,4.9.34.98.65,2.14.3,3.17-.58,1.73-2.79,2.03-4.35,2.1-5.2.22-5.63-1.28-10.33-3.31-2.19-.95-4.39-1.94-6.69-2.57-2.29-.62-4.68-.8-6.96-1.48-.96-.29-1.89-.68-2.8-1.1-.9-.43-1.44-.84-1.12-1.88.54-1.76,1.58-3.34,2.14-5.11.84-2.67,1.59-5.36,2.49-8.01.78-2.31,1.5-4.59,2.06-6.96.85-3.58,1.56-7.29,3.02-10.68.77,1.45,2.44,2.37,4.03,3.05,3.38,1.44,6.79,2.79,10.44,3.16-4.95,5.22-7.78,12.23-8,19.41-.88.37-1.66.92-2.26,1.71Z"/>
      <path class="cls-5" d="M172.44,190.58c-3.81,11.79-11.83,21.6-18.96,31.51-.83,1.15-1.58,2.38-2.57,3.4-3.4-.15-6.54-1.29-9.68-2.56-2.05-.84-5.55-1.8-4.86-4.64.06-.39.13-.41.19-.64.09-.34.13-.44.24-.71.46-1.22,1.08-2.43,1.57-3.61.72-1.73,1.49-3.44,2.45-5.04,1.9-3.16,3.45-6.55,5.5-9.62,1.17-1.74,2.3-3.56,3.57-5.23,1.01-1.32,2.33-2.35,3.36-3.65.38-.11.61-.51.59-.83.28-.77-.86-1.39-1.44-.74-6.7,1.34-13.55,1.71-20.37,1.82-3.29.05-6.59.12-9.88.04-2.04-.05-4.24-.19-6.12-1.08-4.76-2.24-3.12-8.31-1.52-12.13,1.9-4.55,4.72-9.04,9.5-10.88,4.56-1.75,9.66-1.67,14.46-1.45,2.44.12,4.87.31,7.3.44,2.75.14,5.4.11,8.09.81,3.17.83,6.38,1.71,9.46,2.82,2.83,1.02,5.19,2.35,7.22,4.59,2.01,2.23,3.55,4.87,3.69,7.93.15,3.17-.81,6.45-1.78,9.44Z"/>
    </g>
    <g>
      <path class="cls-1" d="M101.8,171.55c-2.28-1.89-5.11-2.9-7.98-3.46-3.41-.66-6.95-.9-10.41-.99-6.65-.17-14.21.45-18.92,5.76-3.81,4.29-4.98,11.04-1.23,15.73,3.41,4.27,9.17,6.29,14.19,7.94,1.45.48,3.07.66,4.4,1.45-.43,5.25-.52,10.52-.15,15.77.24,3.38.51,6.97,1.34,10.3,0,.02-.02.03-.02.04-.36.81.03,2.08.11,2.94.22,2.35.27,4.69.62,7.03.36,2.38.77,4.72.95,7.12.18,2.29.23,4.59.24,6.9-2.75,1.2-3.46,5.21-3.72,7.85-.37,3.68,2.12,6.21,5.31,7.55,5.41,2.28,13.46,1.07,16.4-4.57,2.03-3.9,1.02-8.91-.96-12.65.05-.08.1-.18.12-.29.81-3.66.98-7.43,1.77-11.1.71-3.29,1.77-6.65,1.48-10.06,0-.05-.02-.1-.03-.15.64-2.99.51-6.26.46-9.12-.06-3.59.03-7.18.17-10.77.16-4.28.29-8.58.54-12.86.41-6.78,1.21-15.49-4.65-20.35Z"/>
      <path class="cls-2" d="M101.79,235.16c-.72,3.43-.88,6.95-1.64,10.37-.02.11-.08.36-.07.46-.21.23-.24.42-.05.76,1.62,2.93,2.58,6.8,1.42,10.06-.84,2.34-2.97,3.93-5.26,4.71-2.31.79-4.9.95-7.27.31-2.43-.66-5.31-2.17-5.66-4.94-.18-1.36.18-2.89.55-4.19.37-1.29.93-2.78,2.24-3.35.23-.1.35-.26.4-.43.22-.12.38-.34.38-.67,0-4.37-.31-8.66-1.02-12.98-.35-2.1-.46-4.19-.62-6.31.88,1.18,2.02,2.15,3.34,2.85,2.38,1.25,5.16,1.67,7.81,1.41,2.41-.24,4.7-.96,6.27-2.91.11-.14.22-.28.32-.42-.31,1.77-.8,3.53-1.16,5.27Z"/>
      <path class="cls-5" d="M104.73,187.39c-.28,7.72-.81,15.43-.94,23.16-.08,4.79.57,9.92-.68,14.6-.53,1.98-1.52,3.88-3.34,4.9-2.12,1.18-5.06,1.22-7.38.76-2.38-.47-4.7-1.64-6.13-3.7-.8-1.16-1.2-2.44-1.47-3.82-.34-1.74-.62-3.5-.83-5.27-.88-7.34-.79-14.81-.07-22.16.17-1.76.38-3.52.64-5.27.15-1.05-1.42-1.5-1.57-.44-.29,1.99-.53,3.5-.72,5.51-1.06-.49-2.23-.71-3.35-1.05-1.12-.33-2.23-.74-3.32-1.15-2.37-.89-4.71-1.92-6.84-3.32-2.01-1.32-3.96-3.07-4.84-5.4-.95-2.53-.68-5.08.4-7.53,1.14-2.57,3.12-4.67,5.5-6.05,2.76-1.6,6.04-2.09,9.16-2.3,3.44-.23,6.9-.04,10.33.29,2.79.27,5.64.67,8.24,1.82,2.56,1.13,4.62,3.04,5.76,5.67,1.45,3.36,1.58,7.12,1.45,10.74Z"/>
    </g>
    <g>
      <path class="cls-1" d="M60.3,143.96c-1.63-3-3.53-5.82-4.73-9.04-.24-.64-.5-1.27-.78-1.89-.35-.76-.49-1.58-.83-2.35-.63-1.45-.77-3-1.16-4.53-.18-.71-.46-1.37-.65-2.07-.21-.76-.3-1.54-.51-2.3-.4-1.44-.64-3.03-.23-4.54.71-2.61,1.49-6.17,4.18-7.63.65-.35,1.36-.57,2.07-.73.37-.09.76-.14,1.11-.27.41-.15.79-.43,1.22-.55,1.63-.47,3.09-.14,4.64.15.69.13,1.29.18,1.92.49.58.28,1.04.72,1.64.97,1.33.57,2.56,1.17,3.36,2.39.86,1.32,1.51,2.75,2.17,4.18.25.55.3,1.13.52,1.68.29.72.68,1.38.89,2.14.18.63.3,1.2.55,1.8.31.75.75,1.43,1.05,2.18.58,1.41,1.22,2.76,1.92,4.12.13.26.25.53.36.8.13.1.25.23.34.41.2.38.36.78.49,1.18.3.47.57.94.71,1.51.05.21.03.4-.02.58.1.28.21.55.35.82.71,1.36,1.67,2.55,2.24,3.99.57,1.45,1.28,2.73,2.01,4.1.39.74.64,1.53,1.06,2.26.44.77.88,1.55,1.32,2.32.85,1.5,1.85,2.89,2.72,4.37.8,1.36,1.8,2.83,2.87,3.99.99,1.07,1.56,2.36,2.47,3.47.46.55.73,1.22,1.16,1.8.5.66.93,1.36,1.41,2.03.41.57.75,1.13,1.1,1.73.4.69.96,1.28,1.37,1.97.81,1.37,1.91,2.83,2.39,4.35.38,1.23.64,2.78.1,4.04-.53,1.25-1.6,2.11-2.76,2.82-2.56,1.55-6.15,2.53-8.81,1.06-1.48-.82-2.99-1.67-4.27-2.76-.59-.5-1.13-1.05-1.75-1.5-.67-.48-1.4-.82-1.99-1.41-1.21-1.19-2.36-2.38-3.48-3.65-.51-.58-.86-1.23-1.32-1.84-.43-.57-.94-1.03-1.34-1.63-.89-1.3-2.08-2.55-3.17-3.7-1.02-1.09-1.82-2.36-2.97-3.33-1.17-.99-2.07-2.22-3.09-3.35-.44-.49-1.02-.81-1.38-1.36-.46-.7-.91-1.29-1.45-1.93-.41-.48-.71-1.01-1.14-1.48-.58-.64-.85-1.49-1.42-2.14-1-1.15-1.71-2.39-2.44-3.73Z"/>
      <path class="cls-5" d="M65.06,148.14c.73,1.13,1.7,2.1,2.53,3.18.4.52.63,1.03,1.14,1.46.54.46,1,.99,1.49,1.5.52.55.92,1.2,1.45,1.74.44.45.98.76,1.41,1.22.99,1.05,1.9,2.14,2.9,3.18,1.01,1.06,1.97,2.19,2.91,3.31.89,1.06,1.67,2.16,2.49,3.28.86,1.17,2.02,2.28,3.12,3.25.57.5,1.05,1.03,1.7,1.44.67.41,1.31.81,1.92,1.3,1.24,1.01,2.44,1.87,3.87,2.65,1.39.75,2.39,1.31,4.15.95,1.62-.34,3.06-.87,4.42-1.87,1.26-.93,1.23-1.83.97-3.1-.29-1.43-1.41-2.76-2.12-4.02-.36-.63-.78-1.17-1.21-1.75-.42-.58-.69-1.23-1.1-1.81-.91-1.29-1.79-2.59-2.67-3.89-.44-.65-1-1.14-1.37-1.85-.37-.71-.74-1.24-1.29-1.84-1.1-1.21-2.13-2.64-3-4.02-.96-1.51-1.97-3.01-2.86-4.56-.89-1.55-1.72-3.09-2.46-4.71-.68-1.49-1.62-2.79-2.16-4.35-.53-1.51-1.5-2.73-2.25-4.12-.54-1.01-.77-2.14-1.13-3.21-.18-.26-.38-.52-.52-.8-.32-.63-.52-1.31-.86-1.94-.67-1.21-1.26-2.48-1.75-3.78-.48-1.27-1.29-2.42-1.64-3.75-.15-.59-.21-1.18-.43-1.75-.23-.59-.61-1.12-.76-1.74-.34-1.36-.88-2.56-1.58-3.77-.33-.58-.6-1.27-1.1-1.73-.48-.44-1.12-.7-1.75-.93-.63-.23-1.1-.52-1.66-.86-.57-.34-1.06-.38-1.73-.47-.72-.1-1.39-.35-2.14-.34-.88.01-1.52.29-2.32.63-1.45.62-3.15.51-4.24,1.82-.9,1.09-1.2,2.46-1.64,3.71-.25.72-.64,1.47-.78,2.2-.12.66.03,1.33.11,1.97.18,1.4.54,2.89.98,4.21.48,1.44.59,2.93.9,4.41.14.67.51,1.23.72,1.88.24.73.46,1.42.74,2.13.52,1.31.84,2.71,1.52,3.94.78,1.41,1.62,2.8,2.42,4.21s1.5,2.73,2.27,4.09c.68,1.19,1.67,2.16,2.41,3.31Z"/>
    </g>
    <g id="_袖子-右手" data-name="袖子-右手">
      <path class="cls-1" d="M77.95,127.99c.4-.32.34-.9.18-1.48-.15-.18-.36-.3-.6-.32-.52-.95-.82-2.03-1.27-3.01-.5-1.09-1.1-2.14-1.62-3.22-.6-1.23-.98-2.53-1.42-3.82-1.36-4.01-4.47-7.83-8.94-8.32-3.92-.42-8.33.71-10.86,3.91-2.7,3.41-2.86,8.35-1.7,12.38.39,1.35.97,2.63,1.37,3.98.36,1.22.64,2.46.97,3.68.32,1.15.69,2.83,1.55,3.86.03.09.07.18.13.26.61.87,1.72.6,2.6.36,1.44-.38,2.84-.95,4.22-1.5,3.2-1.28,6.35-2.7,9.51-4.09,1.37-.6,2.92-1.16,4.42-1.89.1-.16.27-.28.51-.34.26-.06.52-.13.77-.21.04-.09.1-.17.19-.24Z"/>
      <path class="cls-6" d="M71.03,129.04c-1.73.76-3.46,1.54-5.2,2.29-1.91.82-3.82,1.63-5.77,2.34-.74.27-1.48.53-2.24.73-.2.05-.4.09-.6.13-.34-.26-.55-.99-.7-1.36-.25-.66-.46-1.33-.64-2.01-.56-2.03-1.03-4.06-1.78-6.02-1.37-3.57-1.78-7.96.24-11.39,1.83-3.12,5.6-4.25,9.03-4.09,4.36.19,6.96,3.81,8.2,7.61.73,2.24,1.76,4.24,2.78,6.35.53,1.09.87,2.26,1.42,3.35,0,0,0,0,0,0-1.54.78-3.17,1.36-4.75,2.05Z"/>
    </g>
  </g>
  <path class="cls-10" d="M101.36,2.38s28.09-3.06,54.98,4.94c26.89,8,36.94,24.51,40.34,27.23s17.7,11.91,27.57,37.96c9.87,26.04,1.53,74.55-2.21,83.91-3.74,9.36-26.72,48.17-54.81,60.26-28.09,12.09-48.17,15.32-64,11.4-15.83-3.91-24.34-1.7-37.62-7.49s-26.21-19.06-29.79-24.17-6.98,2.38-22.13-24.68C-1.45,144.68,1.28,112.85,6.04,88.85c4.77-24,17.53-40.34,24-43.4,6.47-3.06,12.77-16.17,20.26-21.11,7.49-4.94,26.21-19.74,51.06-21.96Z"/>
  <g>
    <path class="cls-11" d="M127.53,146.13s-10.02.34-13.52,5.62c-3.51,5.28-3.01,31.49-1.84,37.45,1.17,5.96,4.67,10.38,14.53,10.89,9.85.51,39.24-.68,49.25,0s51.32.26,56.71.13,48.47,1.31,54.31.25,14.02-3.1,13.69-9.57c-.33-6.47.67-22.13-1-30.81s-1-11.57-11.52-13.96c-10.52-2.38-107.02,1.31-116.54,0s-44.08,0-44.08,0Z"/>
    <g>
      <path class="cls-9" d="M163.8,171.01c-1,1.33-1.97,2.42-2.91,3.26l-.32-.22c1.31-2.04,2.51-4.56,3.58-7.54.28-.8.54-1.72.78-2.76.24-1.05.38-1.91.41-2.59,1.24.4,2.11.7,2.59.91.48.21.72.37.72.49,0,.05-.07.11-.22.17l-.45.17c-.65,1.81-1.43,3.54-2.34,5.2.68.5,1.02.84,1.02,1.02,0,.05-.02.1-.06.14-.04.04-.1.08-.16.11l-.37.17v8.24c.03,2.06.1,4.01.2,5.85-.13.18-.4.37-.81.56-.41.19-.82.29-1.23.29-.2,0-.37-.05-.5-.15s-.2-.22-.2-.35c.07-.98.12-1.93.17-2.85.05-.92.08-2.13.1-3.62v-6.5ZM179.83,166.18c.05-.07.13-.17.24-.31.11-.14.19-.24.26-.31.07-.07.13-.1.2-.1.1,0,.34.15.72.44.38.29.74.6,1.07.93s.5.56.5.67c-.18.25-.51.42-.97.52v2.42c.05,2.01.11,3.56.17,4.66-.08.15-.36.31-.83.49-.47.17-.88.26-1.23.26h-.4v-.9h-3.48c-.07,1.01-.21,1.92-.42,2.73-.22.81-.54,1.55-.97,2.23,2.26,1.18,5.19,1.78,8.79,1.82v.3c-.48.13-.88.41-1.21.83-.32.42-.53.92-.61,1.51-1.79-.25-3.34-.63-4.66-1.13-1.31-.51-2.43-1.19-3.36-2.05-1.49,1.48-3.93,2.59-7.29,3.33l-.17-.32c1.61-.6,2.92-1.24,3.93-1.94s1.8-1.49,2.37-2.39c-.61-.81-1.12-1.75-1.52-2.81-.7,1.05-1.25,1.83-1.67,2.37.03.1.05.17.05.22,0,.17-.07.29-.2.37l-1.12-1.72c.43-.25.91-.55,1.44-.91.53-.36.96-.67,1.29-.93l.32-1,.85.45-.75.77c.46.81,1.07,1.53,1.82,2.14.46-1.06.74-2.35.82-3.86h-3.29v.35c0,.07-.1.16-.29.27-.19.12-.43.22-.72.31s-.58.14-.86.14c-.15,0-.27-.05-.35-.15-.08-.1-.12-.22-.12-.35.07-.76.12-1.74.15-2.94v-1.72c0-2.09-.11-3.79-.32-5.1l2.66,1.12h3.19v-2.64h-1.92c-1.13.02-2.29.13-3.48.35l-.62-1.27c.91.1,2.02.17,3.31.2h8.17l.65-.92c.08-.1.19-.24.31-.42.12-.18.22-.32.3-.4s.15-.12.21-.12c.1,0,.36.16.77.47.41.32.8.65,1.16,1.01.36.36.54.59.54.71-.05.27-.27.4-.65.4h-6.47v2.64h3.21l.5-.7ZM173.85,170.51v-2.91h-3.34v2.91h3.34ZM170.52,171.23v2.99h3.34v-2.99h-3.34ZM176.12,173.32c0,.4,0,.7-.02.9h3.46v-2.99h-3.44v2.09ZM179.55,170.51v-2.91h-3.44v2.91h3.44Z"/>
      <path class="cls-9" d="M193.15,166.9c.05-.08.14-.21.26-.39.12-.17.23-.3.31-.39s.16-.12.22-.12c.1,0,.34.15.73.46.39.31.75.63,1.09.97.34.34.51.57.51.68-.07.27-.28.4-.65.4h-4.23v9.38c.03,2.06.1,4.01.2,5.85-.13.18-.36.35-.67.5s-.7.22-1.15.22c-.17,0-.31-.05-.44-.15s-.19-.22-.19-.35c.07-.98.12-1.93.17-2.85.05-.92.08-2.13.1-3.62v-8.99h-1.15c-.66.02-1.34.13-2.04.35l-.62-1.27c.91.1,2.02.17,3.31.2h3.61l.6-.9ZM186.55,172.33c0-.8-.03-1.45-.1-1.97,1.54.45,2.31.79,2.31,1.02,0,.08-.07.17-.2.25l-.37.25v2.34c-.03,3.63-.74,6.29-2.12,7.97l-.35-.27c.35-1,.57-2.13.67-3.41.1-1.28.15-2.72.15-4.33v-1.84ZM192.4,162.52c.05-.07.14-.18.26-.35.12-.17.23-.29.31-.37s.16-.12.22-.12c.1,0,.34.15.73.44.39.29.75.6,1.08.92.33.32.5.54.5.66-.07.27-.29.4-.67.4h-4.33c-1.18.02-2.42.13-3.73.35l-.62-1.27c.91.1,2.02.17,3.31.2h2.34l.6-.85ZM192.65,175.44c0-2.09-.11-3.78-.32-5.08.93.27,1.58.48,1.95.63.37.16.56.29.56.39,0,.05-.07.12-.2.22l-.4.25v2.29c.05,2.36.11,4.17.17,5.45-.08.2-.28.38-.58.55-.31.17-.61.25-.91.25-.13,0-.24-.05-.31-.15-.08-.1-.11-.22-.11-.35.07-.73.12-1.66.15-2.79v-1.67ZM200.44,174.79c1.34-2.24,2.44-4.62,3.29-7.14.27-.76.48-1.57.65-2.43s.27-1.64.3-2.35c1.1.35,1.86.62,2.29.81.43.19.65.34.65.44,0,.03-.07.08-.22.15l-.47.15c-.61,2.19-1.34,4.19-2.17,6,1.21.78,2.09,1.62,2.65,2.51.56.9.83,1.73.83,2.49,0,.5-.1.91-.31,1.22-.21.32-.48.47-.81.47s-.65-.15-.95-.45c-.02-.88-.18-1.83-.5-2.84-.32-1.01-.71-1.97-1.2-2.89-1.14,2.41-2.49,4.53-4.03,6.37v3.63c0,.23.05.39.15.47s.3.12.6.12h1.39c.71,0,1.14,0,1.29-.02.23-.03.39-.14.47-.32.17-.31.46-1.56.87-3.73h.3l.07,3.88c.28.13.48.27.6.42.12.15.17.33.17.55,0,.5-.28.87-.85,1.11-.56.24-1.58.36-3.04.36h-1.82c-.63,0-1.11-.07-1.43-.2-.32-.13-.55-.35-.67-.65-.12-.3-.19-.73-.19-1.29v-2.09c-1.56,1.48-3.24,2.73-5.03,3.76l-.25-.32c1.96-1.43,3.72-3.15,5.28-5.15v-6.02c0-2.09-.11-3.79-.32-5.1,1.11.28,1.89.51,2.33.68.44.17.66.32.66.44,0,.07-.07.14-.2.22l-.4.27v6.47ZM196.78,170.56c.35,1.38.52,2.59.52,3.63,0,1.16-.19,2.03-.56,2.61-.37.58-.79.87-1.26.87-.25,0-.46-.09-.62-.26-.17-.17-.25-.4-.25-.68,0-.3.09-.6.27-.9.42-.55.77-1.29,1.06-2.24.29-.95.47-1.96.54-3.04h.3ZM197.73,162.05c1.21.05,2.21.24,2.99.57s1.35.73,1.71,1.18.54.91.54,1.36c0,.33-.1.61-.3.83s-.45.34-.75.34c-.18,0-.39-.05-.62-.15-.3-.7-.81-1.41-1.54-2.15-.73-.74-1.48-1.31-2.24-1.73l.22-.25Z"/>
      <path class="cls-9" d="M228.17,162.4c.07-.08.15-.19.26-.31.11-.12.2-.22.26-.29s.13-.1.2-.1c.1,0,.34.15.73.46.39.31.75.63,1.09.97s.51.57.51.68c-.2.22-.55.37-1.05.47-.1,1.44-.15,3.09-.15,4.93,0,2.59.12,4.9.37,6.95s.64,3.42,1.17,4.13c.08.12.15.17.2.17.08,0,.15-.1.2-.3.33-1.1.59-2.04.77-2.84l.25.05-.32,4.36c.26.76.4,1.34.4,1.72,0,.35-.09.59-.27.72-.22.15-.45.22-.7.22-.35,0-.69-.13-1.02-.4-.33-.27-.64-.61-.92-1.05-.88-1.2-1.48-3.13-1.8-5.81-.32-2.68-.49-5.93-.49-9.75,0-1.61,0-2.8.02-3.58h-12.4v5.5c0,1.99-.1,3.83-.29,5.5-.19,1.68-.63,3.37-1.31,5.09-.68,1.72-1.7,3.24-3.06,4.57l-.32-.2c1.13-2.01,1.87-4.22,2.23-6.65.36-2.42.54-5.19.54-8.31v-3.68c0-1.49-.07-2.76-.22-3.81l2.81,1.27h11.75l.55-.7ZM224.93,169.61s.09-.13.17-.24c.08-.11.16-.19.22-.24.07-.05.13-.08.2-.08.1,0,.3.11.6.34.3.22.57.46.82.72.25.26.37.44.37.56-.05.08-.15.16-.3.24-.15.08-.31.12-.47.14v1.84c.03,1.51.08,2.7.15,3.56-.08.15-.31.3-.67.45s-.7.22-1,.22h-.3v-1.12h-2.12v4.28l2.71-.15c-.42-.88-.87-1.64-1.37-2.29l.27-.17c1.38.61,2.39,1.32,3.02,2.12.64.8.96,1.54.96,2.24,0,.4-.1.72-.3.97s-.45.37-.75.37-.61-.13-.92-.4c-.05-.61-.26-1.36-.62-2.24-2.71.7-5.75,1.4-9.14,2.12-.17.32-.39.5-.67.55l-1.14-2.76c1.69-.03,3.67-.12,5.92-.25v-4.38h-2.07v1.07c0,.1-.17.22-.5.37-.33.15-.67.22-1.02.22-.13,0-.24-.05-.31-.15-.07-.1-.11-.22-.11-.35.07-.58.12-1.34.15-2.29v-1.39c0-1.79-.09-3.23-.27-4.31l2.19.97h1.94v-2.66c-1.86.15-3.43.22-4.73.22l-.07-.42c1.64-.26,3.37-.66,5.18-1.18,1.81-.52,3.24-1.03,4.28-1.53.71.68,1.21,1.18,1.49,1.49.28.32.42.53.42.65s-.14.16-.42.12l-.67-.1c-.93.18-2.08.36-3.46.52v2.89h1.92l.4-.55ZM218.54,170.88v4.41h2.07v-4.41h-2.07ZM224.73,175.29v-4.41h-2.12v4.41h2.12Z"/>
      <path class="cls-9" d="M242.45,178.45c-.49.6-1.31.91-2.45.95,0-.33-.03-.67-.08-1.02s-.11-.59-.17-.72c-.2-.25-.56-.42-1.07-.52v-.32h1.37c.23,0,.41-.05.55-.15.33-.18.5-.67.5-1.47,0-1.94-.56-3.68-1.69-5.2.23-.76.49-1.75.78-2.97s.53-2.3.71-3.25h-2.27v14.06c.03,2.06.1,4.01.2,5.85-.15.2-.39.39-.73.57-.34.18-.74.27-1.21.27-.18,0-.34-.05-.46-.15-.12-.1-.19-.22-.19-.35.07-.98.12-1.93.17-2.85.05-.92.08-2.13.1-3.62v-10.5c0-2.09-.11-3.79-.32-5.1l2.76,1.09h1.82l.55-.6c.07-.07.18-.19.35-.36.17-.17.3-.26.4-.26s.33.16.68.49c.36.32.69.67,1.01,1.03.32.37.47.61.47.72-.1.1-.23.17-.39.21-.16.04-.38.07-.66.09-.48.95-1.02,1.95-1.62,3s-1.13,1.91-1.59,2.58c1.08.81,1.88,1.73,2.42,2.75s.8,2.04.8,3.05c0,1.21-.25,2.12-.73,2.71ZM249.33,182.82c-.18.21-.41.31-.67.31-.22,0-.46-.09-.72-.27-.07-.4-.22-.82-.45-1.26-.23-.44-.51-.84-.85-1.21-1.26,1.83-2.8,3.18-4.63,4.06l-.2-.3c.76-.65,1.5-1.56,2.21-2.74.4-.7.74-1.5,1.02-2.42.28-.91.44-1.73.47-2.44,1.99.71,2.99,1.19,2.99,1.42,0,.05-.07.1-.2.15l-.42.12c-.37.73-.65,1.25-.85,1.54.88.25,1.53.58,1.94,1,.42.42.62.84.62,1.27,0,.3-.09.55-.27.76ZM250.55,162.62c.85,1.05,1.95,1.98,3.32,2.81,1.37.83,2.8,1.45,4.29,1.87v.32c-.42.17-.74.45-.97.85s-.38.86-.45,1.37c-1.41-.76-2.68-1.75-3.82-2.95s-2.04-2.54-2.7-4c-.75,1.48-1.8,2.85-3.17,4.11-1.37,1.26-2.92,2.27-4.64,3.04l-.17-.32c1.38-.96,2.66-2.32,3.83-4.06.46-.7.87-1.47,1.21-2.32.34-.85.55-1.61.63-2.29,2.22.58,3.34.99,3.34,1.22,0,.05-.08.11-.22.17l-.47.17ZM245.65,170.88h1.59l.42-.55s.09-.13.17-.24c.08-.11.16-.19.22-.24s.13-.08.2-.08c.1,0,.29.11.58.34.29.22.56.46.81.72.25.26.37.44.37.56-.03.08-.12.16-.25.24-.13.08-.28.12-.45.14v1.44l.02.9c.02.68.05,1.3.1,1.87-.07.13-.29.28-.68.45-.39.17-.73.25-1.03.25h-.3v-.82h-1.89v.62c0,.08-.17.2-.52.35s-.7.22-1.05.22c-.13,0-.23-.05-.3-.15-.07-.1-.1-.22-.1-.35.05-.42.08-.83.1-1.25,0-.25,0-.45.02-.6v-1.17c0-1.43-.07-2.64-.22-3.63l2.17.97ZM247.44,175.14v-3.54h-1.89v3.54h1.89ZM248.66,168.99c-.66.02-1.34.13-2.04.35l-.62-1.27c.85.1,1.88.17,3.09.2h1.49l.52-.8c.07-.08.15-.2.26-.35.11-.15.19-.26.26-.34.07-.08.13-.11.2-.11.1,0,.32.14.65.41.33.27.64.56.93.87.29.31.44.52.44.63-.05.27-.25.4-.6.4h-4.58ZM256.6,181.45c.65.62.97,1.23.97,1.83,0,.32-.09.57-.26.77-.17.2-.39.3-.66.3-.18,0-.41-.07-.67-.2-.2-.55-.56-1.14-1.07-1.78s-1.07-1.22-1.67-1.75c-1.21,1.79-2.71,3.09-4.48,3.88l-.17-.32c.81-.7,1.54-1.61,2.19-2.74.38-.68.7-1.46.96-2.34.26-.88.41-1.68.46-2.39-.17.1-.37.18-.61.25-.24.07-.48.1-.71.1-.13,0-.23-.05-.3-.15-.07-.1-.1-.22-.1-.35.05-.42.08-.83.1-1.25,0-.25,0-.45.02-.6v-1.17c0-1.43-.07-2.64-.22-3.63l2.19.97h1.79l.45-.55c.05-.07.14-.17.27-.32s.25-.22.35-.22.29.11.58.34c.29.22.56.46.81.72.25.26.37.44.37.56-.07.17-.29.3-.67.4v1.44l.02.87c.02.66.05,1.29.1,1.87-.08.15-.32.3-.71.46-.39.16-.74.24-1.06.24h-.32v-.82h-2.12v.62s-.02.07-.07.1c1.88.7,2.81,1.15,2.81,1.37,0,.05-.07.1-.2.15l-.42.12c-.35.76-.67,1.37-.97,1.82,1.36.32,2.37.78,3.01,1.41ZM254.56,171.61h-2.12v3.54h2.12v-3.54Z"/>
    </g>
  </g>
</svg>