<svg width="484" height="775" viewBox="0 0 484 775" fill="none" xmlns="http://www.w3.org/2000/svg">
<g filter="url(#filter0_d_639_8262)">
<path d="M85.3371 9.39511H119.695C126.229 0.327681 159.075 9.39545 166.587 9.39545C188.585 9.39545 231.765 2.51729 253.76 3.61798C308.881 6.37633 322.257 -1.27915 377.313 3.76548C396.374 5.51197 412.183 3.46997 427.262 3.61798C442.34 3.76548 466.549 -4.96177 472.764 20.8456C475.792 33.4204 472.764 78.1907 472.764 92.4884V154.302C472.764 185.027 473.252 215.684 474.322 246.29C475.61 283.177 474.656 320.192 476.052 357.081C477.675 399.957 480.468 442.374 481.331 485.437C482.198 528.668 482.186 571.68 481.504 614.918C481.136 638.246 480.365 661.355 479.168 684.5C478.256 702.134 477.792 723.072 473.629 738.094C470.121 750.753 464.644 756.615 458.831 756.897C447.453 757.451 436.03 755.602 424.649 755.321C404.691 754.829 384.725 755.208 364.766 755.208C316.236 755.208 267.635 749.4 219.124 751.38C169.142 753.42 119.242 755.208 69.2412 755.208C56.1458 755.208 37.3835 761.529 26.0591 738.995C21.0237 728.975 22.5623 697.116 22.2515 683.599C20.6063 612.046 22.8419 540.139 21.6457 468.548C20.601 406.019 18.1894 343.77 17.3189 281.194C16.824 245.622 16.6291 209.823 16.4102 174.231C16.1904 138.473 15.2634 100.853 17.2323 65.3536C17.8309 54.5626 18.0993 20.9374 23.0736 16.2633C28.2919 11.3598 33.5477 9.39511 39.0397 9.39511H85.3371Z" fill="#F2EFE8"/>
<path d="M85.3371 9.39511H119.695C126.229 0.327681 159.075 9.39545 166.587 9.39545C188.585 9.39545 231.765 2.51729 253.76 3.61798C308.881 6.37633 322.257 -1.27915 377.313 3.76548C396.374 5.51197 412.183 3.46997 427.262 3.61798C442.34 3.76548 466.549 -4.96177 472.764 20.8456C475.792 33.4204 472.764 78.1907 472.764 92.4884V154.302C472.764 185.027 473.252 215.684 474.322 246.29C475.61 283.177 474.656 320.192 476.052 357.081C477.675 399.957 480.468 442.374 481.331 485.437C482.198 528.668 482.186 571.68 481.504 614.918C481.136 638.246 480.365 661.355 479.168 684.5C478.256 702.134 477.792 723.072 473.629 738.094C470.121 750.753 464.644 756.615 458.831 756.897C447.453 757.451 436.03 755.602 424.649 755.321C404.691 754.829 384.725 755.208 364.766 755.208C316.236 755.208 267.635 749.4 219.124 751.38C169.142 753.42 119.242 755.208 69.2412 755.208C56.1458 755.208 37.3835 761.529 26.0591 738.995C21.0237 728.975 22.5623 697.116 22.2515 683.599C20.6063 612.046 22.8419 540.139 21.6457 468.548C20.601 406.019 18.1894 343.77 17.3189 281.194C16.824 245.622 16.6291 209.823 16.4102 174.231C16.1904 138.473 15.2634 100.853 17.2323 65.3536C17.8309 54.5626 18.0993 20.9374 23.0736 16.2633C28.2919 11.3598 33.5477 9.39511 39.0397 9.39511H85.3371Z" stroke="black" stroke-width="4" stroke-linecap="round"/>
</g>
<defs>
<filter id="filter0_d_639_8262" x="0.7" y="0" width="483.3" height="774.3" filterUnits="userSpaceOnUse" color-interpolation-filters="sRGB">
<feFlood flood-opacity="0" result="BackgroundImageFix"/>
<feColorMatrix in="SourceAlpha" type="matrix" values="0 0 0 0 0 0 0 0 0 0 0 0 0 0 0 0 0 0 127 0" result="hardAlpha"/>
<feOffset dx="-7" dy="9"/>
<feGaussianBlur stdDeviation="3.15"/>
<feComposite in2="hardAlpha" operator="out"/>
<feColorMatrix type="matrix" values="0 0 0 0 0 0 0 0 0 0 0 0 0 0 0 0 0 0 0.25 0"/>
<feBlend mode="normal" in2="BackgroundImageFix" result="effect1_dropShadow_639_8262"/>
<feBlend mode="normal" in="SourceGraphic" in2="effect1_dropShadow_639_8262" result="shape"/>
</filter>
</defs>
</svg>
