<svg width="470" height="759" viewBox="0 0 470 759" fill="none" xmlns="http://www.w3.org/2000/svg">
<path d="M71.3371 9.39511H105.695C112.229 0.327681 145.075 9.39545 152.587 9.39545C174.585 9.39545 217.765 2.51729 239.76 3.61798C294.881 6.37633 308.257 -1.27915 363.313 3.76548C382.374 5.51197 398.183 3.46997 413.262 3.61798C428.34 3.76548 452.549 -4.96177 458.764 20.8456C461.792 33.4204 458.764 78.1907 458.764 92.4884V154.302C458.764 185.027 459.252 215.684 460.322 246.29C461.61 283.177 460.656 320.192 462.052 357.081C463.675 399.957 466.468 442.374 467.331 485.437C468.198 528.668 468.186 571.68 467.504 614.918C467.136 638.246 466.365 661.355 465.168 684.5C464.256 702.134 463.792 723.072 459.629 738.094C456.121 750.753 450.644 756.615 444.831 756.897C433.453 757.451 422.03 755.602 410.649 755.321C390.691 754.829 370.725 755.208 350.766 755.208C302.236 755.208 253.635 749.4 205.124 751.38C155.142 753.42 105.242 755.208 55.2412 755.208C42.1458 755.208 23.3835 761.529 12.0591 738.995C7.02372 728.975 8.56226 697.116 8.25149 683.599C6.60633 612.046 8.8419 540.139 7.64573 468.548C6.60098 406.019 4.18937 343.77 3.31887 281.194C2.82403 245.622 2.62907 209.823 2.41023 174.231C2.19037 138.473 1.26335 100.853 3.23233 65.3536C3.83086 54.5626 4.09933 20.9374 9.07359 16.2633C14.2919 11.3598 19.5477 9.39511 25.0397 9.39511H71.3371Z" fill="#F2EFE8" stroke="black" stroke-width="4" stroke-linecap="round"/>
</svg>
