{"accessors":[{"bufferView":2,"componentType":5126,"count":14,"max":[1,1,1],"min":[-1,-1,-1],"type":"VEC3"},{"bufferView":2,"byteOffset":168,"componentType":5126,"count":14,"max":[0.5773502588272095,0.5773502588272095,0.5773502588272095],"min":[-0.5773502588272095,-0.5773502588272095,-0.5773502588272095],"type":"VEC3"},{"bufferView":1,"componentType":5126,"count":14,"max":[0.875,1],"min":[0.125,0],"type":"VEC2"},{"bufferView":0,"componentType":5125,"count":36,"type":"SCALAR"},{"bufferView":2,"byteOffset":336,"componentType":5126,"count":24,"max":[0.02080775424838066,1.8909556865692139,0.1488461196422577],"min":[-0.08937887847423553,0.5834112763404846,0.025446265935897827],"type":"VEC3"},{"bufferView":2,"byteOffset":624,"componentType":5126,"count":24,"max":[1,1,1],"min":[-1,-1,-1],"type":"VEC3"},{"bufferView":1,"byteOffset":112,"componentType":5126,"count":24,"max":[0.875,1],"min":[0.125,0],"type":"VEC2"},{"bufferView":0,"byteOffset":144,"componentType":5125,"count":36,"type":"SCALAR"},{"bufferView":2,"byteOffset":912,"componentType":5126,"count":24,"max":[0.5956104397773743,1.5958878993988037,0.20890577137470245],"min":[-0.04061943292617798,1.3403174877166748,-0.07015661895275116],"type":"VEC3"},{"bufferView":2,"byteOffset":1200,"componentType":5126,"count":24,"max":[0.9912203550338745,0.9956698417663574,0.9999693632125854],"min":[-1,-0.9499369263648987,-0.6766619086265564],"type":"VEC3"},{"bufferView":1,"byteOffset":304,"componentType":5126,"count":24,"max":[0.875,1],"min":[0.125,0],"type":"VEC2"},{"bufferView":0,"byteOffset":288,"componentType":5125,"count":36,"type":"SCALAR"}],"asset":{"extras":{"author":"tsumanenkonikita (https://sketchfab.com/tsumanenkonikita)","license":"CC-BY-4.0 (http://creativecommons.org/licenses/by/4.0/)","source":"https://sketchfab.com/3d-models/low-poly-apple-c5d4662e63f140cb813dcb66ab0c68f4","title":"Low Poly Apple"},"generator":"Sketchfab-15.44.0","version":"2.0"},"bufferViews":[{"buffer":0,"byteLength":432,"name":"floatBufferViews","target":34963},{"buffer":0,"byteLength":496,"byteOffset":432,"byteStride":8,"name":"floatBufferViews","target":34962},{"buffer":0,"byteLength":1488,"byteOffset":928,"byteStride":12,"name":"floatBufferViews","target":34962}],"buffers":[{"byteLength":2416,"uri":"data:application/octet-stream;base64,"}],"materials":[{"doubleSided":true,"name":"Material","pbrMetallicRoughness":{"baseColorFactor":[0.8,0,0.00806716,1],"metallicFactor":0,"roughnessFactor":0.5}},{"doubleSided":true,"name":"Material.001","pbrMetallicRoughness":{"baseColorFactor":[0.159665,0.0540577,0.00493243,1],"metallicFactor":0,"roughnessFactor":0.5}},{"doubleSided":true,"name":"Material.002","pbrMetallicRoughness":{"baseColorFactor":[0.0202686,0.8,0,1],"metallicFactor":0,"roughnessFactor":0.5}}],"meshes":[{"name":"Object_0","primitives":[{"attributes":{"NORMAL":1,"POSITION":0,"TEXCOORD_0":2},"indices":3,"material":0,"mode":4}]},{"name":"Object_1","primitives":[{"attributes":{"NORMAL":5,"POSITION":4,"TEXCOORD_0":6},"indices":7,"material":1,"mode":4}]},{"name":"Object_2","primitives":[{"attributes":{"NORMAL":9,"POSITION":8,"TEXCOORD_0":10},"indices":11,"material":2,"mode":4}]}],"nodes":[{"children":[1],"matrix":[1,0,0,0,0,2.220446049250313e-16,-1,0,0,1,2.220446049250313e-16,0,0,0,0,1],"name":"Sketchfab_model"},{"children":[2],"name":"root"},{"children":[3],"matrix":[1,0,0,0,0,2.220446049250313e-16,1,0,0,-1,2.220446049250313e-16,0,0,0,0,1],"name":"GLTF_SceneRootNode"},{"children":[4,5,6],"matrix":[-0.9974407951961966,0,0.07149727322338457,0,0,1,0,0,-0.07149727322338457,0,-0.9974407951961966,0,0,1.100000023841858,0,1],"name":"Cube_0"},{"mesh":0,"name":"Object_4"},{"mesh":1,"name":"Object_5"},{"mesh":2,"name":"Object_6"}],"scene":0,"scenes":[{"name":"Sketchfab_Scene","nodes":[0]}]}