<svg width="261" height="78" viewBox="0 0 261 78" fill="none" xmlns="http://www.w3.org/2000/svg">
<path d="M2.80288 16.7004C4.5831 5.76662 14.517 2.68079 24.2645 1.00053C31.9732 1.00046 32.2232 1.47581 37.1554 1.8146C42.2175 2.16229 47.5362 1.41919 52.6386 1.41919C59.0275 1.41919 65.3784 1.83785 71.7649 1.83785C91.1727 1.83785 110.611 2.67737 130.008 2.23326C135.131 2.11597 140.305 1.95151 145.421 1.65178C152.764 1.22158 159.892 1.41919 167.209 1.41919C179.166 1.41919 190.934 0.716036 202.87 1.74482C206.928 2.09462 210.844 1.18116 214.873 1.02379C218.524 0.881207 222.219 1.41237 225.849 1.74482C231.409 2.25396 237.037 1.85356 242.57 2.46585C246.682 2.92087 252.494 4.40836 255.041 7.93173C257.616 11.4937 257.381 16.6103 258.077 20.7707C258.929 25.8608 257.883 30.7198 258.497 35.7496C259.19 41.4219 261.179 46.8524 260.272 52.6589C259.759 55.9431 259.235 58.3127 259.898 61.6136C260.377 63.9995 259.712 66.2352 258.194 68.1262C256.787 69.8767 254.072 72.5764 251.818 73.4293C249.313 74.3773 246.313 74.3123 243.691 74.9178C238.758 76.0572 233.483 75.9996 228.44 75.9445L228.138 75.9412C220.999 75.8639 214.873 75.7086 207.927 76.4529C202.594 75.3727 194.918 76.7578 189.475 76.4529C181.696 76.0171 171.478 75.5856 163.774 76.4529C151.931 77.7863 143.215 76.2487 131.269 76.3599C125.544 76.4132 119.821 75.9412 114.081 75.9412C108.363 75.9412 102.366 76.5139 96.7061 75.7086C83.924 73.89 70.3252 74.9362 57.4727 75.7086C49.0987 76.2119 40.724 77.2573 32.3447 76.4529C26.0962 75.8531 19.4675 78.2116 13.522 75.1969C11.9684 74.4092 10.6788 72.8314 9.55196 71.522C8.44345 70.234 7.02977 69.3511 6.00227 67.9866C3.2962 64.3931 3.37818 59.8499 2.82624 55.5896C2.21096 50.8404 1.71691 46.0529 1.23822 41.2852C0.763594 36.5581 1.14481 31.6597 1.14481 26.9111C1.14481 23.333 2.23681 20.1771 2.80288 16.7004Z" fill="#F2EFE8" stroke="#394038" stroke-linecap="round"/>
<path d="M97.522 49.09C97.21 49.102 96.85 49.102 96.442 49.09C96.034 49.09 95.644 49.084 95.272 49.072C94.9 49.06 94.6 49.042 94.372 49.018C94.36 48.778 94.348 48.22 94.336 47.344C94.324 46.468 94.312 45.394 94.3 44.122C94.288 42.838 94.276 41.464 94.264 40C94.264 38.536 94.258 37.084 94.246 35.644C94.246 34.204 94.246 32.896 94.246 31.72C94.246 30.94 94.246 30.19 94.246 29.47C94.246 28.738 94.24 28.084 94.228 27.508C94.228 26.932 94.222 26.464 94.21 26.104C94.378 26.104 94.606 26.116 94.894 26.14C95.182 26.152 95.488 26.17 95.812 26.194C96.148 26.206 96.466 26.23 96.766 26.266C97.066 26.29 97.306 26.32 97.486 26.356C98.434 27.784 99.388 29.302 100.348 30.91C101.32 32.518 102.268 34.138 103.192 35.77C104.116 37.39 104.974 38.944 105.766 40.432C106.57 41.92 107.278 43.258 107.89 44.446L107.062 26.32C107.314 26.32 107.584 26.332 107.872 26.356C108.16 26.38 108.448 26.41 108.736 26.446C109.024 26.482 109.288 26.53 109.528 26.59C109.78 26.638 109.978 26.692 110.122 26.752C110.158 27.484 110.194 28.372 110.23 29.416C110.266 30.46 110.296 31.588 110.32 32.8C110.356 34 110.386 35.224 110.41 36.472C110.434 37.72 110.452 38.926 110.464 40.09C110.476 41.254 110.482 42.304 110.482 43.24C110.482 43.912 110.476 44.566 110.464 45.202C110.464 45.826 110.452 46.402 110.428 46.93C110.404 47.446 110.374 47.89 110.338 48.262C110.314 48.622 110.29 48.868 110.266 49C110.026 49.012 109.798 49.018 109.582 49.018C109.378 49.03 109.174 49.036 108.97 49.036C108.706 49.036 108.454 49.03 108.214 49.018C107.974 49.006 107.764 48.988 107.584 48.964C107.392 48.616 107.05 48.01 106.558 47.146C106.078 46.282 105.496 45.256 104.812 44.068C104.14 42.88 103.426 41.62 102.67 40.288C101.926 38.956 101.194 37.66 100.474 36.4C99.754 35.128 99.1 33.982 98.512 32.962C97.924 31.942 97.462 31.144 97.126 30.568C97.162 30.94 97.192 31.594 97.216 32.53C97.24 33.454 97.264 34.546 97.288 35.806C97.324 37.066 97.354 38.386 97.378 39.766C97.402 41.134 97.426 42.454 97.45 43.726C97.474 44.998 97.492 46.114 97.504 47.074C97.516 48.022 97.522 48.694 97.522 49.09ZM128.99 49.18C127.646 49.108 126.344 49.048 125.084 49C123.836 48.94 122.534 48.904 121.178 48.892C120.482 48.88 119.738 48.868 118.946 48.856C118.166 48.844 117.422 48.838 116.714 48.838C116.654 46.99 116.606 45.16 116.57 43.348C116.546 41.524 116.534 39.79 116.534 38.146C116.534 35.062 116.552 32.524 116.588 30.532C116.624 28.54 116.666 27.19 116.714 26.482C118.838 26.146 120.8 25.888 122.6 25.708C124.4 25.516 125.906 25.39 127.118 25.33C128.33 25.258 129.098 25.222 129.422 25.222C129.422 25.678 129.41 26.092 129.386 26.464C129.362 26.824 129.332 27.226 129.296 27.67L119.63 28.444C119.606 28.756 119.588 29.206 119.576 29.794C119.564 30.382 119.552 31.018 119.54 31.702C119.528 32.374 119.516 33.004 119.504 33.592C119.504 34.18 119.504 34.624 119.504 34.924C119.78 34.924 120.2 34.918 120.764 34.906C121.34 34.882 121.988 34.858 122.708 34.834C123.428 34.81 124.154 34.792 124.886 34.78C125.618 34.756 126.284 34.738 126.884 34.726C127.496 34.714 127.97 34.708 128.306 34.708L128.378 37.282C128.198 37.282 127.82 37.282 127.244 37.282C126.68 37.27 126.014 37.264 125.246 37.264C124.478 37.264 123.698 37.264 122.906 37.264C122.114 37.252 121.406 37.246 120.782 37.246C120.158 37.246 119.714 37.252 119.45 37.264C119.438 37.432 119.432 37.78 119.432 38.308C119.432 38.824 119.432 39.442 119.432 40.162C119.432 40.87 119.432 41.602 119.432 42.358C119.432 43.114 119.426 43.828 119.414 44.5C119.414 45.16 119.414 45.7 119.414 46.12C119.714 46.096 120.194 46.084 120.854 46.084C121.526 46.072 122.144 46.066 122.708 46.066C123.548 46.066 124.394 46.078 125.246 46.102C126.11 46.126 126.902 46.156 127.622 46.192C128.354 46.228 128.924 46.264 129.332 46.3C129.32 46.54 129.302 46.81 129.278 47.11C129.254 47.398 129.224 47.68 129.188 47.956C129.164 48.232 129.128 48.484 129.08 48.712C129.044 48.928 129.014 49.084 128.99 49.18ZM140.745 37.408C140.061 36.136 139.317 34.888 138.513 33.664C137.721 32.428 136.947 31.288 136.191 30.244C135.447 29.2 134.793 28.312 134.229 27.58C133.665 26.836 133.269 26.326 133.041 26.05C133.257 25.942 133.503 25.84 133.779 25.744C134.055 25.636 134.343 25.534 134.643 25.438C134.943 25.33 135.231 25.24 135.507 25.168C135.783 25.096 136.023 25.042 136.227 25.006C136.491 25.354 136.839 25.858 137.271 26.518C137.715 27.166 138.213 27.934 138.765 28.822C139.317 29.698 139.905 30.664 140.529 31.72C141.165 32.764 141.807 33.868 142.455 35.032C143.067 34.168 143.649 33.244 144.201 32.26C144.765 31.276 145.275 30.322 145.731 29.398C146.199 28.462 146.589 27.64 146.901 26.932C147.213 26.212 147.423 25.69 147.531 25.366C147.951 25.438 148.347 25.54 148.719 25.672C149.091 25.792 149.421 25.918 149.709 26.05C150.009 26.182 150.249 26.32 150.429 26.464C150.009 27.448 149.481 28.498 148.845 29.614C148.221 30.73 147.573 31.804 146.901 32.836C146.229 33.868 145.617 34.774 145.065 35.554C144.525 36.334 144.135 36.886 143.895 37.21C144.183 37.606 144.549 38.164 144.993 38.884C145.437 39.592 145.917 40.384 146.433 41.26C146.961 42.136 147.489 43.03 148.017 43.942C148.545 44.842 149.031 45.694 149.475 46.498C149.919 47.29 150.285 47.956 150.573 48.496C150.297 48.676 149.985 48.832 149.637 48.964C149.289 49.084 148.941 49.18 148.593 49.252C148.257 49.336 147.951 49.402 147.675 49.45C147.327 48.682 146.877 47.764 146.325 46.696C145.785 45.616 145.179 44.47 144.507 43.258C143.835 42.046 143.127 40.852 142.383 39.676C142.275 39.88 142.047 40.246 141.699 40.774C141.363 41.302 140.955 41.914 140.475 42.61C140.007 43.294 139.521 44.008 139.017 44.752C138.513 45.484 138.033 46.174 137.577 46.822C137.133 47.458 136.761 47.986 136.461 48.406C136.173 48.826 136.005 49.066 135.957 49.126C135.429 49.066 134.931 48.958 134.463 48.802C134.007 48.646 133.497 48.454 132.933 48.226C133.713 47.218 134.511 46.168 135.327 45.076C136.143 43.984 136.917 42.94 137.649 41.944C138.381 40.936 139.017 40.036 139.557 39.244C140.109 38.452 140.505 37.84 140.745 37.408ZM152.939 27.868C152.915 27.7 152.891 27.496 152.867 27.256C152.843 27.004 152.819 26.752 152.795 26.5C152.783 26.236 152.771 25.99 152.759 25.762C152.747 25.522 152.741 25.336 152.741 25.204C154.121 25.132 155.699 25.066 157.475 25.006C159.263 24.934 161.063 24.898 162.875 24.898C164.171 24.898 165.431 24.922 166.655 24.97C167.891 25.006 169.019 25.09 170.039 25.222C170.063 25.666 170.063 26.122 170.039 26.59C170.027 27.046 170.003 27.418 169.967 27.706C169.715 27.706 169.307 27.7 168.743 27.688C168.191 27.664 167.573 27.652 166.889 27.652C166.205 27.64 165.515 27.634 164.819 27.634C164.135 27.622 163.529 27.61 163.001 27.598C163.013 28.042 163.031 28.738 163.055 29.686C163.079 30.622 163.109 31.714 163.145 32.962C163.181 34.21 163.217 35.53 163.253 36.922C163.289 38.302 163.325 39.67 163.361 41.026C163.409 42.37 163.445 43.618 163.469 44.77C163.505 45.91 163.535 46.864 163.559 47.632C163.583 48.388 163.601 48.862 163.613 49.054C163.385 49.09 163.067 49.12 162.659 49.144C162.263 49.18 161.861 49.204 161.453 49.216C161.057 49.24 160.739 49.252 160.499 49.252C160.463 48.532 160.427 47.596 160.391 46.444C160.355 45.28 160.325 43.996 160.301 42.592C160.277 41.188 160.253 39.748 160.229 38.272C160.205 36.784 160.187 35.35 160.175 33.97C160.163 32.578 160.157 31.336 160.157 30.244C160.157 29.716 160.157 29.23 160.157 28.786C160.157 28.342 160.157 27.952 160.157 27.616C159.665 27.628 159.095 27.646 158.447 27.67C157.799 27.682 157.133 27.706 156.449 27.742C155.765 27.766 155.117 27.79 154.505 27.814C153.893 27.826 153.371 27.844 152.939 27.868Z" fill="#555555"/>
</svg>
