<svg width="34" height="34" viewBox="0 0 34 34" fill="none" xmlns="http://www.w3.org/2000/svg">
<g filter="url(#filter0_d_1052_12486)">
<path d="M11.8357 5.2621C13.0067 4.4722 14.1995 4.14947 15.6028 4H18.0407C20.121 4 22.1356 4.52876 23.8803 5.66368C24.3595 5.97535 24.7123 6.43294 25.1024 6.84291C25.5317 7.29394 25.9261 7.62448 26.4253 8.0094C27.2499 8.64509 27.7864 9.8007 28.2522 10.7185C28.7468 11.6931 28.8441 12.9027 28.9766 13.9757C29.0636 14.6796 28.8807 15.3749 28.8695 16.0728C28.8589 16.7404 28.8921 17.3887 28.7813 18.0488C28.5512 19.4199 28.152 21.0883 27.2569 22.1793C26.2179 23.4457 25.0398 25.0566 23.5969 25.8573C22.9251 26.23 22.4456 26.7387 21.6755 26.9473C20.7634 27.1943 19.9038 27.5726 18.9793 27.7759C18.0419 27.9821 17.0647 28.1156 16.1131 27.8588C15.0952 27.5842 14.0242 27.6364 13.0137 27.3488C11.9209 27.0378 10.8799 26.5744 9.98365 25.8509C9.40949 25.3874 8.9803 24.7883 8.38358 24.353C7.86064 23.9715 7.40164 23.6149 7.02919 23.0781C5.40905 20.7433 4.71396 17.5867 5.10784 14.747C5.30283 13.3412 5.72813 11.8948 6.24175 10.5782C6.63158 9.57892 7.5094 8.89834 8.29539 8.2325C8.98306 7.64994 9.48828 6.8539 10.2104 6.32022C10.7275 5.93812 11.3022 5.62199 11.8357 5.2621Z" fill="#F2EFE8" fill-opacity="0.3" shape-rendering="crispEdges"/>
<path d="M11.8357 5.2621C13.0067 4.4722 14.1995 4.14947 15.6028 4H18.0407C20.121 4 22.1356 4.52876 23.8803 5.66368C24.3595 5.97535 24.7123 6.43294 25.1024 6.84291C25.5317 7.29394 25.9261 7.62448 26.4253 8.0094C27.2499 8.64509 27.7864 9.8007 28.2522 10.7185C28.7468 11.6931 28.8441 12.9027 28.9766 13.9757C29.0636 14.6796 28.8807 15.3749 28.8695 16.0728C28.8589 16.7404 28.8921 17.3887 28.7813 18.0488C28.5512 19.4199 28.152 21.0883 27.2569 22.1793C26.2179 23.4457 25.0398 25.0566 23.5969 25.8573C22.9251 26.23 22.4456 26.7387 21.6755 26.9473C20.7634 27.1943 19.9038 27.5726 18.9793 27.7759C18.0419 27.9821 17.0647 28.1156 16.1131 27.8588C15.0952 27.5842 14.0242 27.6364 13.0137 27.3488C11.9209 27.0378 10.8799 26.5744 9.98365 25.8509C9.40949 25.3874 8.9803 24.7883 8.38358 24.353C7.86064 23.9715 7.40164 23.6149 7.02919 23.0781C5.40905 20.7433 4.71396 17.5867 5.10784 14.747C5.30283 13.3412 5.72813 11.8948 6.24175 10.5782C6.63158 9.57892 7.5094 8.89834 8.29539 8.2325C8.98306 7.64994 9.48828 6.8539 10.2104 6.32022C10.7275 5.93812 11.3022 5.62199 11.8357 5.2621Z" stroke="#394038" stroke-linecap="round" shape-rendering="crispEdges"/>
</g>
<defs>
<filter id="filter0_d_1052_12486" x="0.500061" y="0.5" width="32.9999" height="33" filterUnits="userSpaceOnUse" color-interpolation-filters="sRGB">
<feFlood flood-opacity="0" result="BackgroundImageFix"/>
<feColorMatrix in="SourceAlpha" type="matrix" values="0 0 0 0 0 0 0 0 0 0 0 0 0 0 0 0 0 0 127 0" result="hardAlpha"/>
<feOffset dy="1"/>
<feGaussianBlur stdDeviation="2"/>
<feComposite in2="hardAlpha" operator="out"/>
<feColorMatrix type="matrix" values="0 0 0 0 0 0 0 0 0 0 0 0 0 0 0 0 0 0 0.25 0"/>
<feBlend mode="normal" in2="BackgroundImageFix" result="effect1_dropShadow_1052_12486"/>
<feBlend mode="normal" in="SourceGraphic" in2="effect1_dropShadow_1052_12486" result="shape"/>
</filter>
</defs>
</svg>
